# Blender 5.1.0
# www.blender.org
mtllib Dr_Deckhouse_Tribal_A1_001_8_Dr_Deckhouse_Tribal_A1_001_8.mtl
o Dr_Deckhouse_Tribal_A1_001_8_Dr_Deckhouse_Tribal_A1_001_8
v -0.975850 10.351392 6.966699
v -0.742518 10.351392 6.966699
v -0.859184 10.284022 6.966701
v -0.859184 10.553451 6.966701
v -0.975850 10.486081 6.966701
v -0.742518 10.486081 6.966701
v -0.495371 10.553451 6.966699
v -0.612033 10.351392 6.966699
v -0.612033 10.486081 6.966699
v -0.378702 10.351392 6.966699
v -0.378702 10.486081 6.966699
v -0.495371 10.284022 6.966701
v 0.378697 7.360790 6.966699
v 0.612028 7.360790 6.966699
v 0.495363 7.293421 6.966699
v 0.495363 7.562850 6.966700
v 0.378697 7.495505 6.966700
v 0.612028 7.495505 6.966700
v -0.495371 7.562850 6.966699
v -0.612033 7.360790 6.966699
v -0.612033 7.495505 6.966699
v -0.378702 7.360790 6.966699
v -0.378702 7.495505 6.966699
v -0.495371 7.293421 6.966699
vn -0.0000 -0.0000 1.0000
vt 0.513024 2.007191
vt 0.511256 2.006174
vt 0.514791 2.006174
vt 0.513024 2.003123
vt 0.514791 2.004140
vt 0.511256 2.004140
vt 0.509279 2.004140
vt 0.509279 2.006174
vt 0.507511 2.003123
vt 0.505744 2.006174
vt 0.505744 2.004140
vt 0.507511 2.007191
vt 0.492500 2.052349
vt 0.490732 2.051332
vt 0.494268 2.051332
vt 0.492500 2.048280
vt 0.494268 2.049297
vt 0.490732 2.049297
vt 0.509279 2.049297
vt 0.509279 2.051332
vt 0.507511 2.048280
vt 0.505744 2.051332
vt 0.505744 2.049297
vt 0.507511 2.052349
s 1
g Dr_Deckhouse_Tribal_A1_001_8_Dr_Deckhouse_Tribal_A1_001_8_banner
usemtl banner
f 3/1/1 2/2/1 1/3/1
f 2/2/1 4/4/1 1/3/1
f 1/3/1 4/4/1 5/5/1
f 6/6/1 4/4/1 2/2/1
f 9/7/1 8/8/1 7/9/1
f 8/8/1 10/10/1 7/9/1
f 7/9/1 10/10/1 11/11/1
f 12/12/1 10/10/1 8/8/1
f 15/13/1 14/14/1 13/15/1
f 14/14/1 16/16/1 13/15/1
f 13/15/1 16/16/1 17/17/1
f 18/18/1 16/16/1 14/14/1
f 21/19/1 20/20/1 19/21/1
f 20/20/1 22/22/1 19/21/1
f 19/21/1 22/22/1 23/23/1
f 24/24/1 22/22/1 20/20/1
