# Blender 5.1.0
# www.blender.org
mtllib Dr_Deckhouse_Tribal_A1_001_9_Dr_Deckhouse_Tribal_A1_001_9.mtl
o Dr_Deckhouse_Tribal_A1_001_9_Dr_Deckhouse_Tribal_A1_001_9
v 0.812924 1.060797 7.312802
v -0.812930 0.910778 7.312804
v 0.812924 0.910778 7.312804
v -0.812930 1.060797 7.312804
v 0.812924 0.910778 7.312804
v -0.812930 0.910778 7.462804
v 0.812924 0.910778 7.462804
v -0.812930 0.910778 7.312804
v 0.812924 0.910778 7.462804
v -0.812930 1.060797 7.462804
v 0.812924 1.060797 7.462802
v -0.812930 0.910778 7.462804
v 0.812924 1.060797 7.462802
v -0.812930 1.060797 7.312804
v 0.812924 1.060797 7.312802
v -0.812930 1.060797 7.462804
v -0.106753 2.204243 7.312803
v -0.899613 1.071909 7.462804
v -0.899613 1.071909 7.312804
v -0.106753 2.204243 7.462803
v 0.016120 2.118196 7.312803
v -0.899613 1.071909 7.312804
v -0.776740 0.985887 7.312806
v -0.106753 2.204243 7.312803
v 0.016120 2.118196 7.462803
v -0.776740 0.985887 7.312806
v -0.776740 0.985887 7.462806
v 0.016120 2.118196 7.312803
v -0.106753 2.204243 7.462803
v -0.776740 0.985887 7.462806
v -0.899613 1.071909 7.462804
v 0.016120 2.118196 7.462803
v 0.106747 2.204243 7.312803
v 0.899607 1.071909 7.462804
v 0.106747 2.204243 7.462803
v 0.899607 1.071909 7.312804
v 0.106747 2.204243 7.462803
v 0.776734 0.985887 7.462804
v -0.016126 2.118196 7.462803
v 0.899607 1.071909 7.462804
v -0.016126 2.118196 7.462803
v 0.776734 0.985887 7.312804
v -0.016126 2.118196 7.312803
v 0.776734 0.985887 7.462804
v -0.016126 2.118196 7.312803
v 0.899607 1.071909 7.312804
v 0.106747 2.204243 7.312803
v 0.776734 0.985887 7.312804
v 0.419237 1.219720 10.048956
v -0.419242 1.069726 10.048956
v 0.419237 1.069726 10.048956
v -0.419242 1.219720 10.048956
v 0.419237 1.069726 10.048956
v -0.419242 1.069726 10.198956
v 0.419237 1.069726 10.198956
v -0.419242 1.069726 10.048956
v 0.419237 1.069726 10.198956
v -0.419242 1.219720 10.198956
v 0.419237 1.219720 10.198956
v -0.419242 1.069726 10.198956
v 0.419237 1.219720 10.198956
v -0.419242 1.219720 10.048956
v 0.419237 1.219720 10.048956
v -0.419242 1.219720 10.198956
v -0.559010 1.193378 10.048956
v 0.016120 1.753219 10.048956
v -0.106753 1.839267 10.048956
v -0.436137 1.107330 10.048956
v -0.436137 1.107330 10.048956
v 0.016120 1.753219 10.198956
v 0.016120 1.753219 10.048956
v -0.436137 1.107330 10.198956
v -0.436137 1.107330 10.198956
v -0.106753 1.839267 10.198956
v 0.016120 1.753219 10.198956
v -0.559010 1.193378 10.198956
v -0.559010 1.193378 10.198956
v -0.106753 1.839267 10.048956
v -0.106753 1.839267 10.198956
v -0.559010 1.193378 10.048956
v 0.559005 1.193378 10.048956
v -0.016126 1.753219 10.048956
v 0.436132 1.107330 10.048956
v 0.106747 1.839267 10.048956
v 0.436132 1.107330 10.048956
v -0.016126 1.753219 10.198956
v 0.436132 1.107330 10.198956
v -0.016126 1.753219 10.048956
v 0.436132 1.107330 10.198956
v 0.106747 1.839267 10.198956
v 0.559005 1.193378 10.198956
v -0.016126 1.753219 10.198956
v 0.559005 1.193378 10.198956
v 0.106747 1.839267 10.048956
v 0.559005 1.193378 10.048956
v 0.106747 1.839267 10.198956
v 0.000025 2.278013 3.925527
v 0.037744 0.089146 22.097708
v 0.149166 2.326828 3.925861
v 0.000020 0.076992 22.096106
v -0.149116 2.326828 3.925861
v -0.037705 0.089146 22.097708
v 0.061058 0.120946 22.101896
v 0.149166 2.326828 3.925861
v 0.037744 0.089146 22.097708
v 0.241418 2.454647 3.926734
v 0.061058 0.160286 22.107073
v 0.241517 2.612752 3.927817
v 0.037744 0.192111 22.111261
v 0.149328 2.740769 3.928696
v 0.000020 0.204240 22.112862
v 0.149328 2.740769 3.928696
v 0.037744 0.192111 22.111261
v 0.000025 2.789684 3.929032
v -0.037705 0.192086 22.111261
v -0.149274 2.740769 3.928696
v -0.061019 0.160286 22.107073
v -0.149274 2.740769 3.928696
v -0.037705 0.192086 22.111261
v -0.241467 2.612752 3.927817
v -0.061022 0.120946 22.101896
v -0.241368 2.454647 3.926734
v -0.149116 2.326828 3.925861
v -0.037705 0.089146 22.097708
v 0.267125 1.211509 13.617184
v 0.165098 1.525512 13.617181
v 0.267125 1.385093 13.617184
v 0.000013 1.017438 13.617184
v 0.165098 1.071065 13.617184
v 0.000013 1.579165 13.617181
v -0.165071 1.071065 13.617184
v -0.267099 1.385093 13.617181
v -0.165068 1.525512 13.617181
v -0.267099 1.211509 13.617181
v 0.267125 1.211509 13.617184
v 0.165098 1.071065 13.020033
v 0.165098 1.071065 13.617184
v 0.267125 1.211510 13.020032
v 0.267125 1.385093 13.617184
v 0.267125 1.385093 13.020032
v 0.165098 1.525512 13.617181
v 0.165098 1.525512 13.020028
v 0.000013 1.579165 13.617181
v 0.165098 1.525512 13.020028
v 0.165098 1.525512 13.617181
v 0.000013 1.579165 13.020028
v -0.165068 1.525512 13.617181
v -0.165068 1.525512 13.020028
v -0.267099 1.385093 13.617181
v -0.165068 1.525512 13.020028
v -0.165068 1.525512 13.617181
v -0.267099 1.385093 13.020028
v -0.267099 1.211509 13.617181
v -0.267099 1.211510 13.020028
v -0.165071 1.071065 13.617184
v -0.165071 1.071065 13.020032
v 0.000013 1.017438 13.617184
v -0.165071 1.071065 13.020032
v -0.165071 1.071065 13.617184
v 0.000013 1.017438 13.020033
v 0.165098 1.071065 13.617184
v 0.165098 1.071065 13.020033
v 0.165098 1.525512 13.020028
v 0.267125 1.211510 13.020032
v 0.267125 1.385093 13.020032
v 0.000013 1.579165 13.020028
v 0.000013 1.017438 13.020033
v 0.165098 1.071065 13.020033
v -0.165068 1.525512 13.020028
v -0.267099 1.211510 13.020028
v -0.165071 1.071065 13.020032
v -0.267099 1.385093 13.020028
v -1.725011 0.391840 -0.068443
v 0.035443 1.196527 13.564974
v -1.604724 0.430957 -0.068442
v -0.048728 1.169168 13.564974
v -1.845044 0.430361 -0.068443
v -0.132720 1.196106 13.564970
v 0.087654 1.267717 13.564970
v -1.604724 0.430957 -0.068442
v 0.035443 1.196527 13.564974
v -1.530108 0.532705 -0.068443
v 0.088014 1.355525 13.564974
v -1.529600 0.658192 -0.068442
v 0.036398 1.426467 13.564970
v -1.603359 0.759569 -0.068442
v -0.047507 1.453454 13.564974
v -1.603359 0.759569 -0.068442
v 0.036398 1.426467 13.564970
v -1.723268 0.798141 -0.068443
v -0.131703 1.426169 13.564970
v -1.843590 0.759148 -0.068442
v -0.184013 1.355005 13.564970
v -1.843590 0.759148 -0.068442
v -0.131703 1.426169 13.564970
v -1.918345 0.657424 -0.068443
v -0.184410 1.267097 13.564974
v -1.918912 0.531813 -0.068442
v -0.132720 1.196106 13.564970
v -1.845044 0.430361 -0.068443
v 0.048717 1.169168 13.564970
v 1.604714 0.430981 -0.068442
v -0.035455 1.196527 13.564974
v 1.725005 0.391864 -0.068442
v 0.132709 1.196106 13.564974
v 1.845035 0.430361 -0.068443
v 1.530102 0.532705 -0.068444
v -0.035455 1.196527 13.564974
v 1.604714 0.430981 -0.068442
v -0.087665 1.267717 13.564974
v 1.529590 0.658192 -0.068442
v -0.088022 1.355525 13.564974
v 1.603353 0.759569 -0.068443
v -0.036410 1.426467 13.564970
v 1.723262 0.798140 -0.068444
v -0.036410 1.426467 13.564970
v 1.603353 0.759569 -0.068443
v 0.047499 1.453454 13.564974
v 1.843580 0.759147 -0.068444
v 0.131692 1.426169 13.564970
v 1.918336 0.657423 -0.068442
v 0.131692 1.426169 13.564970
v 1.843580 0.759147 -0.068444
v 0.184002 1.355005 13.564974
v 1.918903 0.531812 -0.068444
v 0.184399 1.267097 13.564974
v 1.845035 0.430361 -0.068443
v 0.132709 1.196106 13.564974
v -0.486438 1.350813 10.891080
v 0.486451 1.350813 11.079057
v 0.486451 1.350813 10.891083
v -0.486438 1.350813 11.079054
v -0.486438 1.890290 12.280999
v -0.386435 2.484288 12.280993
v -0.386438 1.890290 12.281000
v -0.486435 2.525712 12.280993
v -0.279806 2.732335 12.280993
v -0.228534 2.642194 12.280993
v 0.000010 2.803450 12.280993
v 0.000010 2.700262 12.280993
v 0.279825 2.732335 12.280993
v 0.228554 2.642194 12.280993
v 0.486455 2.525712 12.280996
v 0.386455 2.484288 12.280996
v 0.486455 1.890290 12.281002
v 0.386455 1.890290 12.281001
v -0.486438 1.350813 10.891080
v -0.486438 1.890290 11.079050
v -0.486438 1.350813 11.079054
v -0.486435 2.525712 10.891074
v -0.486438 1.890290 12.280999
v -0.486435 2.525712 12.280993
v 0.486455 1.890290 11.079053
v 0.486451 1.350813 10.891083
v 0.486451 1.350813 11.079057
v 0.486458 2.525712 10.891075
v 0.486455 2.525712 12.280996
v 0.486455 1.890290 12.281002
v -0.279806 2.732335 10.891074
v 0.000010 2.803450 12.280993
v -0.279806 2.732335 12.280993
v 0.000010 2.803450 10.891074
v 0.279825 2.732335 12.280993
v 0.279825 2.732335 10.891075
v -0.486435 2.525712 10.891074
v -0.279806 2.732335 12.280993
v -0.486435 2.525712 12.280993
v -0.279806 2.732335 10.891074
v -0.486438 1.890290 11.079050
v -0.386438 1.890290 12.281000
v -0.386438 1.890290 11.079051
v -0.486438 1.890290 12.280999
v -0.386438 1.890290 11.079051
v -0.386435 2.484288 12.280993
v -0.386435 2.484288 11.079046
v -0.386438 1.890290 12.281000
v -0.386435 2.484288 11.079046
v -0.228534 2.642194 12.280993
v -0.228534 2.642194 11.079045
v -0.386435 2.484288 12.280993
v 0.000010 2.700262 12.280993
v -0.228534 2.642194 11.079045
v -0.228534 2.642194 12.280993
v 0.000010 2.700262 11.079045
v 0.228554 2.642194 12.280993
v 0.228554 2.642194 11.079045
v 0.228554 2.642194 11.079045
v 0.386455 2.484288 12.280996
v 0.386454 2.484288 11.079048
v 0.228554 2.642194 12.280993
v 0.386454 2.484288 11.079048
v 0.386455 1.890290 12.281001
v 0.386454 1.890290 11.079052
v 0.386455 2.484288 12.280996
v 0.386454 1.890290 11.079052
v 0.486455 1.890290 12.281002
v 0.486455 1.890290 11.079053
v 0.386455 1.890290 12.281001
v 0.486458 2.525712 10.891075
v 0.279825 2.732335 12.280993
v 0.279825 2.732335 10.891075
v 0.486455 2.525712 12.280996
vn -0.0000 -0.0000 -1.0000
vn -0.0000 -1.0000 -0.0000
vn -0.0000 -0.0000 1.0000
vn -0.0000 1.0000 -0.0000
vn -0.8192 0.5736 -0.0000
vn 0.8191 -0.5736 -0.0000
vn 0.8192 0.5736 -0.0000
vn -0.8191 -0.5736 -0.0000
vn -0.8192 -0.5736 -0.0000
vn 0.8192 -0.5736 -0.0000
vn 0.5993 -0.7949 -0.0942
vn 0.5876 -0.8035 -0.0954
vn -0.0000 -0.9927 -0.1203
vn -0.5993 -0.7949 -0.0942
vn -0.5876 -0.8035 -0.0953
vn 0.5877 -0.8034 -0.0953
vn 0.5995 -0.7948 -0.0942
vn 0.9510 -0.3078 -0.0301
vn 0.9580 -0.2853 -0.0271
vn 0.9510 0.3049 0.0506
vn 0.9433 0.3275 0.0535
vn 0.5876 0.8008 0.1159
vn 0.5756 0.8093 0.1170
vn 0.5875 0.8009 0.1159
vn 0.5755 0.8094 0.1170
vn -0.0003 0.9900 0.1408
vn -0.0000 0.9900 0.1408
vn -0.5876 0.8008 0.1159
vn -0.5755 0.8094 0.1170
vn -0.5877 0.8007 0.1159
vn -0.5757 0.8093 0.1170
vn -0.9510 0.3051 0.0506
vn -0.9433 0.3275 0.0535
vn -0.9510 -0.3078 -0.0301
vn -0.9580 -0.2853 -0.0271
vn -0.5995 -0.7948 -0.0942
vn -0.5878 -0.8034 -0.0953
vn 0.5878 -0.8090 -0.0000
vn 0.9511 -0.3090 -0.0000
vn 0.9510 0.3090 -0.0000
vn 0.9511 0.3090 -0.0000
vn 0.5879 0.8089 -0.0000
vn 0.5878 0.8090 -0.0000
vn -0.5878 0.8090 -0.0000
vn -0.9511 0.3090 -0.0000
vn -0.9510 0.3090 -0.0000
vn -0.9511 -0.3090 -0.0000
vn -0.5878 -0.8090 -0.0000
vn 0.5878 -0.8090 -0.0001
vn 0.5651 -0.8247 -0.0217
vn 0.6059 -0.7951 -0.0282
vn -0.0216 -0.9980 0.0596
vn 0.0262 -0.9982 0.0537
vn -0.5921 -0.7970 0.1191
vn -0.5705 -0.8129 0.1173
vn 0.6060 -0.7949 -0.0283
vn 0.9504 -0.2957 -0.0968
vn 0.9399 -0.3284 -0.0938
vn 0.9431 0.3071 -0.1276
vn 0.9446 0.3026 -0.1275
vn 0.5933 0.7974 -0.1104
vn 0.5717 0.8133 -0.1085
vn 0.5931 0.7975 -0.1104
vn 0.5715 0.8134 -0.1085
vn 0.0224 0.9985 -0.0508
vn -0.0253 0.9987 -0.0449
vn -0.5640 0.8252 0.0304
vn -0.6049 0.7954 0.0371
vn -0.5642 0.8251 0.0305
vn -0.6051 0.7953 0.0371
vn -0.9388 0.3289 0.1026
vn -0.9493 0.2961 0.1056
vn -0.9435 -0.3021 0.1363
vn -0.9420 -0.3067 0.1364
vn -0.5922 -0.7969 0.1191
vn -0.6059 -0.7951 -0.0282
vn -0.5651 -0.8248 -0.0217
vn -0.0262 -0.9982 0.0537
vn 0.0215 -0.9980 0.0595
vn 0.5705 -0.8129 0.1173
vn 0.5921 -0.7970 0.1191
vn -0.5652 -0.8247 -0.0217
vn -0.6060 -0.7950 -0.0283
vn -0.9398 -0.3285 -0.0938
vn -0.9504 -0.2957 -0.0968
vn -0.9446 0.3025 -0.1275
vn -0.9431 0.3070 -0.1276
vn -0.5716 0.8133 -0.1085
vn -0.5933 0.7974 -0.1103
vn -0.5715 0.8134 -0.1085
vn -0.5931 0.7976 -0.1103
vn 0.0253 0.9987 -0.0449
vn -0.0224 0.9985 -0.0507
vn 0.6050 0.7954 0.0370
vn 0.5640 0.8252 0.0304
vn 0.6051 0.7953 0.0370
vn 0.5642 0.8251 0.0305
vn 0.9493 0.2961 0.1056
vn 0.9388 0.3289 0.1026
vn 0.9420 -0.3067 0.1364
vn 0.9435 -0.3021 0.1363
vn 0.5922 -0.7969 0.1192
vn -1.0000 -0.0000 -0.0000
vn 1.0000 -0.0000 -0.0000
vn -0.4943 0.8693 -0.0000
vn 0.4943 0.8693 -0.0000
vn -0.7071 0.7071 -0.0000
vn -0.4945 0.8692 -0.0000
vn 0.4944 -0.8692 -0.0000
vn 0.7071 -0.7071 -0.0000
vn 0.4943 -0.8693 -0.0000
vn -0.4943 -0.8693 -0.0000
vn -0.7071 -0.7071 -0.0000
vn -0.4944 -0.8692 -0.0000
vn 0.4945 0.8692 -0.0000
vn 0.7071 0.7071 -0.0000
vt 0.512311 2.148726
vt 0.487677 2.148726
vt 0.512311 2.146461
vt 0.487677 2.146461
vt 0.512311 0.417914
vt 0.487677 0.417914
vt 0.512311 0.415637
vt 0.487677 0.415637
vt 0.487689 2.146461
vt 0.512323 2.146461
vt 0.487689 2.148726
vt 0.512323 2.148726
vt 0.487689 0.415637
vt 0.512323 0.415637
vt 0.487689 0.417914
vt 0.512323 0.417914
vt 2.146293 0.415637
vt 2.146293 0.417914
vt 2.129195 0.415637
vt 2.129195 0.417914
vt 0.488225 2.147592
vt 0.486363 2.146293
vt 0.500238 2.130495
vt 0.498377 2.129195
vt -1.147592 0.417914
vt -1.147592 0.415637
vt -1.130495 0.417914
vt -1.130495 0.415637
vt 0.513637 2.146293
vt 0.511775 2.147592
vt 0.501623 2.129195
vt 0.499762 2.130495
vt -1.129195 0.417914
vt -1.146293 0.417914
vt -1.129195 0.415637
vt -1.146293 0.415637
vt 0.500250 2.130495
vt 0.488237 2.147592
vt 0.498389 2.129195
vt 0.486375 2.146293
vt 2.130495 0.415637
vt 2.147592 0.415637
vt 2.130495 0.417914
vt 2.147592 0.417914
vt 0.501611 2.129195
vt 0.513625 2.146293
vt 0.499750 2.130495
vt 0.511763 2.147592
vt 0.506346 2.146326
vt 0.493642 2.146326
vt 0.506346 2.144062
vt 0.493642 2.144062
vt 0.506346 0.459435
vt 0.493642 0.459435
vt 0.506346 0.457159
vt 0.493642 0.457159
vt 0.493654 2.144062
vt 0.506358 2.144062
vt 0.493654 2.146326
vt 0.506358 2.146326
vt 0.493654 0.457159
vt 0.506358 0.457159
vt 0.493654 0.459435
vt 0.506358 0.459435
vt 0.498377 2.134706
vt 0.500238 2.136006
vt 0.491524 2.144459
vt 0.493386 2.145759
vt -1.136006 0.457159
vt -1.136006 0.459435
vt -1.145759 0.457159
vt -1.145759 0.459435
vt 0.499762 2.136006
vt 0.501623 2.134706
vt 0.506614 2.145759
vt 0.508476 2.144459
vt 2.134706 0.459435
vt 2.134706 0.457159
vt 2.144459 0.459435
vt 2.144459 0.457159
vt 0.506602 2.145759
vt 0.499750 2.136006
vt 0.508464 2.144459
vt 0.501611 2.134706
vt 2.145759 0.459435
vt 2.136006 0.459435
vt 2.145759 0.457159
vt 2.136006 0.457159
vt 0.491536 2.144459
vt 0.498389 2.134706
vt 0.493398 2.145759
vt 0.500250 2.136006
vt -1.144459 0.457159
vt -1.134706 0.457159
vt -1.144459 0.459435
vt -1.134706 0.459435
vt 0.502254 0.364240
vt 0.500566 0.640001
vt 0.499994 0.364235
vt 0.499994 0.639977
vt 0.497735 0.364240
vt 0.499423 0.640001
vt -1.161133 0.640001
vt -1.127344 0.364240
vt -1.160653 0.640064
vt -1.125414 0.364253
vt -1.160059 0.640143
vt -1.123027 0.364270
vt -1.159578 0.640206
vt -1.121094 0.364283
vt 0.499434 0.640206
vt 0.497743 0.364283
vt 0.500006 0.640231
vt 0.500006 0.364288
vt 0.500577 0.640206
vt 0.502268 0.364283
vt 2.159579 0.640206
vt 2.121094 0.364283
vt 2.160059 0.640143
vt 2.123027 0.364270
vt 2.160653 0.640064
vt 2.125414 0.364253
vt 2.127344 0.364240
vt 2.161133 0.640001
vt 0.495959 2.141564
vt 0.497504 2.139444
vt 0.495959 2.144186
vt 0.500006 2.147116
vt 0.497504 2.146306
vt 0.500006 2.138634
vt 0.502507 2.146306
vt 0.504053 2.141564
vt 0.502507 2.139444
vt 0.504053 2.144186
vt -1.146306 0.511307
vt -1.146306 0.502246
vt -1.144186 0.511307
vt -1.144186 0.502245
vt -1.141564 0.511307
vt -1.141564 0.502245
vt -1.139444 0.511307
vt -1.139444 0.502245
vt 0.497504 0.511307
vt 0.497504 0.502245
vt 0.500006 0.511307
vt 0.500006 0.502245
vt 0.502507 0.511307
vt 0.502507 0.502245
vt 2.139444 0.511307
vt 2.139444 0.502245
vt 2.141564 0.511307
vt 2.141564 0.502245
vt 2.144186 0.511307
vt 2.144186 0.502245
vt 2.146306 0.511307
vt 2.146306 0.502245
vt 0.497493 0.511307
vt 0.497493 0.502245
vt 0.499994 0.511307
vt 0.499994 0.502246
vt 0.502496 0.511307
vt 0.502496 0.502246
vt 0.504041 2.141564
vt 0.504041 2.144186
vt 0.502496 2.139444
vt 0.499994 2.138634
vt 0.499994 2.147116
vt 0.502496 2.146306
vt 0.497493 2.139444
vt 0.495947 2.144186
vt 0.497493 2.146306
vt 0.495947 2.141564
vt 0.475680 0.303626
vt 0.500531 0.510515
vt 0.473857 0.303626
vt 0.499256 0.510515
vt 0.472038 0.303626
vt 0.497983 0.510515
vt -1.144412 0.510515
vt -1.155972 0.303626
vt -1.143337 0.510515
vt -1.154435 0.303626
vt -1.142011 0.510515
vt -1.152540 0.303626
vt -1.140940 0.510515
vt -1.151010 0.303626
vt 0.499454 0.510515
vt 0.524300 0.303626
vt 0.500726 0.510515
vt 0.526117 0.303626
vt 0.502002 0.510515
vt 0.527940 0.303626
vt 2.140944 0.510515
vt 2.151016 0.303626
vt 2.142019 0.510515
vt 2.152552 0.303626
vt 2.143346 0.510515
vt 2.154449 0.303626
vt 2.144418 0.510515
vt 2.155981 0.303626
vt 0.499457 0.510515
vt 0.524308 0.303626
vt 0.500732 0.510515
vt 0.526131 0.303626
vt 0.502005 0.510515
vt 0.527950 0.303626
vt 2.155972 0.303626
vt 2.144412 0.510515
vt 2.154435 0.303626
vt 2.143337 0.510515
vt 2.152540 0.303626
vt 2.142011 0.510515
vt 2.151010 0.303626
vt 2.140940 0.510515
vt 0.475712 0.303626
vt 0.500558 0.510515
vt 0.473896 0.303626
vt 0.499286 0.510515
vt 0.472072 0.303626
vt 0.498011 0.510515
vt -1.151016 0.303626
vt -1.140944 0.510515
vt -1.152552 0.303626
vt -1.142019 0.510515
vt -1.154449 0.303626
vt -1.143346 0.510515
vt -1.155981 0.303626
vt -1.144418 0.510515
vt 0.507365 0.469938
vt 0.507365 0.472791
vt 0.492624 0.469938
vt 0.492624 0.472791
vt 0.505861 2.133936
vt 0.505861 2.124967
vt 0.507376 2.133936
vt 0.507376 2.124341
vt 0.504245 2.121221
vt 0.503469 2.122582
vt 0.500006 2.120147
vt 0.500006 2.121705
vt 0.495766 2.121221
vt 0.496543 2.122582
vt 0.492635 2.124341
vt 0.494150 2.124967
vt 0.492635 2.133936
vt 0.494150 2.133936
vt 2.142082 0.472791
vt 2.133936 0.472791
vt 2.142082 0.469938
vt 2.124341 0.469938
vt 2.133936 0.491031
vt 2.124341 0.491030
vt -1.142082 0.472791
vt -1.142082 0.469938
vt -1.133936 0.472791
vt -1.124341 0.469938
vt -1.124341 0.491031
vt -1.133936 0.491031
vt 0.504245 0.491030
vt 0.500006 0.491030
vt 0.504245 0.469938
vt 0.500006 0.469938
vt 0.495766 0.491030
vt 0.495766 0.469938
vt 2.121221 0.491030
vt 2.121221 0.469938
vt 0.494139 0.472791
vt 0.494139 0.491031
vt 0.492624 0.491031
vt -1.124967 0.472791
vt -1.124967 0.491030
vt -1.122582 0.472791
vt -1.122582 0.491030
vt 0.496531 0.491030
vt 0.496531 0.472791
vt 0.499994 0.491030
vt 0.499994 0.472791
vt 0.503457 0.491030
vt 0.503457 0.472791
vt 2.124967 0.472791
vt 2.124967 0.491031
vt 2.122582 0.472791
vt 2.122582 0.491030
vt 0.507365 0.491031
vt 0.505849 0.472791
vt 0.505849 0.491031
vt -1.121221 0.469938
vt -1.121221 0.491030
s 1
g Dr_Deckhouse_Tribal_A1_001_9_Dr_Deckhouse_Tribal_A1_001_9_steel_5
usemtl steel_5
f 3/1/1 2/2/1 1/3/1
f 4/4/1 1/3/1 2/2/1
f 7/5/2 6/6/2 5/7/2
f 8/8/2 5/7/2 6/6/2
f 11/9/3 10/10/3 9/11/3
f 12/12/3 9/11/3 10/10/3
f 15/13/4 14/14/4 13/15/4
f 16/16/4 13/15/4 14/14/4
f 19/17/5 18/18/5 17/19/5
f 20/20/5 17/19/5 18/18/5
f 23/21/1 22/22/1 21/23/1
f 24/24/1 21/23/1 22/22/1
f 27/25/6 26/26/6 25/27/6
f 28/28/6 25/27/6 26/26/6
f 31/29/3 30/30/3 29/31/3
f 32/32/3 29/31/3 30/30/3
f 35/33/7 34/34/7 33/35/7
f 36/36/7 33/35/7 34/34/7
f 39/37/3 38/38/3 37/39/3
f 40/40/3 37/39/3 38/38/3
f 43/41/8 42/42/9 41/43/8
f 44/44/9 41/43/8 42/42/9
f 47/45/1 46/46/1 45/47/1
f 48/48/1 45/47/1 46/46/1
f 51/49/1 50/50/1 49/51/1
f 52/52/1 49/51/1 50/50/1
f 55/53/2 54/54/2 53/55/2
f 56/56/2 53/55/2 54/54/2
f 59/57/3 58/58/3 57/59/3
f 60/60/3 57/59/3 58/58/3
f 63/61/4 62/62/4 61/63/4
f 64/64/4 61/63/4 62/62/4
f 67/65/1 66/66/1 65/67/1
f 68/68/1 65/67/1 66/66/1
f 71/69/10 70/70/10 69/71/10
f 72/72/10 69/71/10 70/70/10
f 75/73/3 74/74/3 73/75/3
f 76/76/3 73/75/3 74/74/3
f 79/77/5 78/78/5 77/79/5
f 80/80/5 77/79/5 78/78/5
f 83/81/1 82/82/1 81/83/1
f 84/84/1 81/83/1 82/82/1
f 87/85/9 86/86/9 85/87/9
f 88/88/9 85/87/9 86/86/9
f 91/89/3 90/90/3 89/91/3
f 92/92/3 89/91/3 90/90/3
f 95/93/7 94/94/7 93/95/7
f 96/96/7 93/95/7 94/94/7
f 99/97/11 98/98/12 97/99/13
f 100/100/13 97/99/13 98/98/12
f 97/99/13 100/100/13 101/101/14
f 102/102/15 101/101/14 100/100/13
f 105/103/16 104/104/17 103/105/18
f 106/106/19 103/105/18 104/104/17
f 103/105/18 106/106/19 107/107/20
f 108/108/21 107/107/20 106/106/19
f 107/107/20 108/108/21 109/109/22
f 110/110/23 109/109/22 108/108/21
f 113/111/24 112/112/25 111/113/26
f 114/114/27 111/113/26 112/112/25
f 111/113/26 114/114/27 115/115/28
f 116/116/29 115/115/28 114/114/27
f 119/117/30 118/118/31 117/119/32
f 120/120/33 117/119/32 118/118/31
f 117/119/32 120/120/33 121/121/34
f 122/122/35 121/121/34 120/120/33
f 122/122/35 123/123/36 121/121/34
f 124/124/37 121/121/34 123/123/36
f 127/125/3 126/126/3 125/127/3
f 126/126/3 128/128/3 125/127/3
f 125/127/3 128/128/3 129/129/3
f 130/130/3 128/128/3 126/126/3
f 130/130/3 131/131/3 128/128/3
f 132/132/3 131/131/3 130/130/3
f 133/133/3 132/132/3 130/130/3
f 134/134/3 131/131/3 132/132/3
f 137/135/38 136/136/38 135/137/39
f 138/138/39 135/137/39 136/136/38
f 135/137/39 138/138/39 139/139/40
f 140/140/41 139/139/40 138/138/39
f 139/139/40 140/140/41 141/141/42
f 142/142/42 141/141/42 140/140/41
f 145/143/43 144/144/43 143/145/4
f 146/146/4 143/145/4 144/144/43
f 143/145/4 146/146/4 147/147/44
f 148/148/44 147/147/44 146/146/4
f 151/149/44 150/150/44 149/151/45
f 152/152/46 149/151/45 150/150/44
f 149/151/45 152/152/46 153/153/47
f 154/154/47 153/153/47 152/152/46
f 153/153/47 154/154/47 155/155/48
f 156/156/48 155/155/48 154/154/47
f 159/157/48 158/158/48 157/159/2
f 160/160/2 157/159/2 158/158/48
f 157/159/2 160/160/2 161/161/49
f 162/162/38 161/161/49 160/160/2
f 165/163/1 164/164/1 163/165/1
f 163/165/1 164/164/1 166/166/1
f 166/166/1 164/164/1 167/167/1
f 167/167/1 164/164/1 168/168/1
f 167/167/1 169/169/1 166/166/1
f 170/170/1 169/169/1 167/167/1
f 171/171/1 170/170/1 167/167/1
f 172/172/1 169/169/1 170/170/1
f 175/173/50 174/174/51 173/175/52
f 176/176/53 173/175/52 174/174/51
f 173/175/52 176/176/53 177/177/54
f 178/178/55 177/177/54 176/176/53
f 181/179/56 180/180/50 179/181/57
f 182/182/58 179/181/57 180/180/50
f 179/181/57 182/182/58 183/183/59
f 184/184/60 183/183/59 182/182/58
f 183/183/59 184/184/60 185/185/61
f 186/186/62 185/185/61 184/184/60
f 189/187/63 188/188/64 187/189/65
f 190/190/66 187/189/65 188/188/64
f 187/189/65 190/190/66 191/191/67
f 192/192/68 191/191/67 190/190/66
f 195/193/69 194/194/70 193/195/71
f 196/196/72 193/195/71 194/194/70
f 193/195/71 196/196/72 197/197/73
f 198/198/74 197/197/73 196/196/72
f 197/197/73 198/198/74 199/199/55
f 200/200/75 199/199/55 198/198/74
f 203/201/76 202/202/77 201/203/78
f 204/204/79 201/203/78 202/202/77
f 201/203/78 204/204/79 205/205/80
f 206/206/81 205/205/80 204/204/79
f 209/207/82 208/208/83 207/209/84
f 210/210/85 207/209/84 208/208/83
f 207/209/84 210/210/85 211/211/86
f 212/212/87 211/211/86 210/210/85
f 211/211/86 212/212/87 213/213/88
f 214/214/89 213/213/88 212/212/87
f 217/215/90 216/216/91 215/217/92
f 218/218/93 215/217/92 216/216/91
f 215/217/92 218/218/93 219/219/94
f 220/220/95 219/219/94 218/218/93
f 223/221/96 222/222/97 221/223/98
f 224/224/99 221/223/98 222/222/97
f 221/223/98 224/224/99 225/225/100
f 226/226/101 225/225/100 224/224/99
f 225/225/100 226/226/101 227/227/102
f 228/228/80 227/227/102 226/226/101
f 231/229/2 230/230/2 229/231/2
f 232/232/2 229/231/2 230/230/2
f 235/233/3 234/234/3 233/235/3
f 236/236/3 233/235/3 234/234/3
f 236/236/3 234/234/3 237/237/3
f 238/238/3 237/237/3 234/234/3
f 237/237/3 238/238/3 239/239/3
f 240/240/3 239/239/3 238/238/3
f 239/239/3 240/240/3 241/241/3
f 242/242/3 241/241/3 240/240/3
f 241/241/3 242/242/3 243/243/3
f 244/244/3 243/243/3 242/242/3
f 243/243/3 244/244/3 245/245/3
f 246/246/3 245/245/3 244/244/3
f 249/247/103 248/248/103 247/249/103
f 247/249/103 248/248/103 250/250/103
f 248/248/103 251/251/103 250/250/103
f 252/252/103 250/250/103 251/251/103
f 255/253/104 254/254/104 253/255/104
f 253/255/104 254/254/104 256/256/104
f 256/256/104 257/257/104 253/255/104
f 258/258/104 253/255/104 257/257/104
f 261/259/105 260/260/4 259/261/105
f 262/262/4 259/261/105 260/260/4
f 260/260/4 263/263/106 262/262/4
f 264/264/106 262/262/4 263/263/106
f 267/252/107 266/265/108 265/250/107
f 268/266/108 265/250/107 266/265/108
f 271/267/2 270/268/2 269/232/2
f 272/269/2 269/232/2 270/268/2
f 275/270/104 274/271/104 273/255/104
f 276/258/104 273/255/104 274/271/104
f 279/272/109 278/273/109 277/270/110
f 280/271/110 277/270/110 278/273/109
f 283/274/111 282/275/111 281/276/2
f 284/277/2 281/276/2 282/275/111
f 281/276/2 284/277/2 285/278/112
f 286/279/112 285/278/112 284/277/2
f 289/280/113 288/281/113 287/282/114
f 290/283/114 287/282/114 288/281/113
f 293/248/103 292/251/103 291/280/103
f 294/281/103 291/280/103 292/251/103
f 297/230/2 296/284/2 295/285/2
f 298/286/2 295/285/2 296/284/2
f 301/287/115 300/288/115 299/256/116
f 302/257/116 299/256/116 300/288/115
