# Blender 5.1.0
# www.blender.org
mtllib Dr_Torpedo_2Tube_AA_004_4_Dr_Torpedo_2Tube_AA_004_4.mtl
o Dr_Torpedo_2Tube_AA_004_4_Dr_Torpedo_2Tube_AA_004_4
v 1.158068 -0.000001 -0.479642
v 0.886351 0.095725 -0.886295
v 0.886351 -0.000001 -0.886295
v 1.158068 0.095725 -0.479642
v 1.253485 -0.000002 0.000050
v 1.253485 0.095725 0.000050
v 1.158068 -0.000002 0.479741
v 1.158068 0.095725 0.479741
v 0.886348 -0.000002 0.886398
v 0.886348 0.095725 0.886398
v 0.479688 0.095725 -1.158019
v 0.886351 -0.000001 -0.886295
v 0.886351 0.095725 -0.886295
v 0.479688 -0.000001 -1.158019
v 0.000000 0.095725 -1.253435
v 0.000000 -0.000001 -1.253435
v -0.479692 0.095725 -1.158018
v -0.479692 -0.000001 -1.158018
v -0.886348 0.095725 -0.886298
v -0.886348 -0.000001 -0.886298
v -1.158068 0.095725 -0.479642
v -0.886348 -0.000001 -0.886298
v -0.886348 0.095725 -0.886298
v -1.158068 -0.000001 -0.479642
v -1.253485 0.095725 0.000054
v -1.253485 -0.000002 0.000054
v -1.158069 0.095725 0.479738
v -1.158069 -0.000002 0.479738
v -0.886348 0.095725 0.886398
v -0.886348 -0.000002 0.886398
v -0.479688 0.095725 1.158119
v -0.886348 -0.000002 0.886398
v -0.886348 0.095725 0.886398
v -0.479688 -0.000002 1.158120
v -0.000004 0.095725 1.253535
v -0.000004 -0.000002 1.253536
v 0.479692 0.095725 1.158118
v 0.479692 -0.000002 1.158118
v 0.886348 0.095725 0.886398
v 0.886348 -0.000002 0.886398
v 0.000000 0.095725 0.000050
v 1.158068 0.095725 -0.479642
v 1.253485 0.095725 0.000050
v 1.158068 0.095725 0.479741
v 0.886351 0.095725 -0.886295
v 0.886348 0.095725 0.886398
v 0.479688 0.095725 -1.158019
v 0.479692 0.095725 1.158118
v 0.000000 0.095725 -1.253435
v -0.000004 0.095725 1.253535
v -0.479692 0.095725 -1.158018
v -0.479688 0.095725 1.158119
v -0.886348 0.095725 -0.886298
v -0.886348 0.095725 0.886398
v -1.158068 0.095725 -0.479642
v -1.158069 0.095725 0.479738
v -1.253485 0.095725 0.000054
vn 0.7071 -0.0000 -0.7071
vn 0.9239 -0.0000 -0.3827
vn 1.0000 -0.0000 -0.0000
vn 0.9239 -0.0000 0.3827
vn 0.7071 -0.0000 0.7071
vn 0.3827 -0.0000 -0.9239
vn -0.0000 -0.0000 -1.0000
vn -0.3827 -0.0000 -0.9239
vn -0.7071 -0.0000 -0.7071
vn -0.9239 -0.0000 -0.3827
vn -1.0000 -0.0000 -0.0000
vn -0.9239 -0.0000 0.3827
vn -0.7071 -0.0000 0.7071
vn -0.3827 -0.0000 0.9239
vn -0.0000 -0.0000 1.0000
vn 0.3827 -0.0000 0.9239
vn -0.0000 1.0000 -0.0000
vt -1.446950 0.315288
vt -1.446950 0.333458
vt -1.488406 0.315288
vt -1.488406 0.333458
vt -1.537309 0.315288
vt -1.537309 0.333458
vt -1.586211 0.315288
vt -1.586211 0.333458
vt -1.627667 0.315288
vt -1.627667 0.333458
vt 0.384332 0.333458
vt 0.384332 0.315288
vt 0.437403 0.333458
vt 0.437403 0.315288
vt 0.500003 0.333458
vt 0.500003 0.315288
vt 0.562605 0.333458
vt 0.562605 0.315288
vt 0.615674 0.333458
vt 0.615674 0.315288
vt 2.446950 0.333458
vt 2.446950 0.315288
vt 2.488406 0.333458
vt 2.488406 0.315288
vt 2.537309 0.333458
vt 2.537309 0.315288
vt 2.586210 0.333458
vt 2.586210 0.315288
vt 2.627667 0.333458
vt 2.627667 0.315288
vt 0.384325 0.333458
vt 0.384325 0.315288
vt 0.437395 0.333457
vt 0.437395 0.315288
vt 0.499996 0.333457
vt 0.499996 0.315288
vt 0.562597 0.333457
vt 0.562597 0.315288
vt 0.615667 0.333458
vt 0.615667 0.315288
vt 0.663580 -1.537309
vt 0.651128 -1.488406
vt 0.499996 -1.537308
vt 0.651127 -1.586211
vt 0.615668 -1.446950
vt 0.615667 -1.627667
vt 0.562597 -1.419249
vt 0.562597 -1.655368
vt 0.499997 -1.409522
vt 0.499996 -1.665095
vt 0.437395 -1.419249
vt 0.437395 -1.655368
vt 0.384326 -1.446950
vt 0.384325 -1.627667
vt 0.348865 -1.488406
vt 0.348865 -1.586210
vt 0.336413 -1.537309
s 1
g Dr_Torpedo_2Tube_AA_004_4_Dr_Torpedo_2Tube_AA_004_4_steel_deck_1
usemtl steel_deck_1
f 3/1/1 2/2/1 1/3/2
f 4/4/2 1/3/2 2/2/1
f 1/3/2 4/4/2 5/5/3
f 6/6/3 5/5/3 4/4/2
f 5/5/3 6/6/3 7/7/4
f 8/8/4 7/7/4 6/6/3
f 7/7/4 8/8/4 9/9/5
f 10/10/5 9/9/5 8/8/4
f 13/11/1 12/12/1 11/13/6
f 14/14/6 11/13/6 12/12/1
f 11/13/6 14/14/6 15/15/7
f 16/16/7 15/15/7 14/14/6
f 15/15/7 16/16/7 17/17/8
f 18/18/8 17/17/8 16/16/7
f 17/17/8 18/18/8 19/19/9
f 20/20/9 19/19/9 18/18/8
f 23/21/9 22/22/9 21/23/10
f 24/24/10 21/23/10 22/22/9
f 21/23/10 24/24/10 25/25/11
f 26/26/11 25/25/11 24/24/10
f 25/25/11 26/26/11 27/27/12
f 28/28/12 27/27/12 26/26/11
f 27/27/12 28/28/12 29/29/13
f 30/30/13 29/29/13 28/28/12
f 33/31/13 32/32/13 31/33/14
f 34/34/14 31/33/14 32/32/13
f 31/33/14 34/34/14 35/35/15
f 36/36/15 35/35/15 34/34/14
f 35/35/15 36/36/15 37/37/16
f 38/38/16 37/37/16 36/36/15
f 37/37/16 38/38/16 39/39/5
f 40/40/5 39/39/5 38/38/16
f 43/41/17 42/42/17 41/43/17
f 44/44/17 43/41/17 41/43/17
f 42/42/17 45/45/17 41/43/17
f 46/46/17 44/44/17 41/43/17
f 45/45/17 47/47/17 41/43/17
f 48/48/17 46/46/17 41/43/17
f 47/47/17 49/49/17 41/43/17
f 50/50/17 48/48/17 41/43/17
f 49/49/17 51/51/17 41/43/17
f 52/52/17 50/50/17 41/43/17
f 51/51/17 53/53/17 41/43/17
f 54/54/17 52/52/17 41/43/17
f 53/53/17 55/55/17 41/43/17
f 56/56/17 54/54/17 41/43/17
f 55/55/17 57/57/17 41/43/17
f 57/57/17 56/56/17 41/43/17
