# Blender 5.1.0
# www.blender.org
mtllib Dr_Torpedo_2Tube_AA_004_3_Dr_Torpedo_2Tube_AA_004_3.mtl
o Dr_Torpedo_2Tube_AA_004_3_Dr_Torpedo_2Tube_AA_004_3
v 0.778339 0.488006 0.565634
v 0.808439 0.556709 0.630721
v 0.759371 0.556710 0.586848
v 0.827407 0.488006 0.609506
v 0.759371 0.419303 0.586848
v 0.808439 0.419303 0.630720
v 0.762646 0.585167 0.681937
v 0.759371 0.556710 0.586848
v 0.808439 0.556709 0.630721
v 0.713578 0.585167 0.638065
v 0.716853 0.556709 0.733154
v 0.667785 0.556710 0.689282
v 0.697885 0.488006 0.754369
v 0.667785 0.556710 0.689282
v 0.716853 0.556709 0.733154
v 0.648817 0.488006 0.710496
v 0.716853 0.419303 0.733154
v 0.667785 0.419303 0.689282
v 0.762646 0.390845 0.681937
v 0.667785 0.419303 0.689282
v 0.716853 0.419303 0.733154
v 0.713578 0.390845 0.638065
v 0.808439 0.419303 0.630720
v 0.759371 0.419303 0.586848
v -0.778342 0.488007 -0.565532
v -0.808442 0.556710 -0.630619
v -0.759374 0.556710 -0.586746
v -0.827410 0.488007 -0.609404
v -0.759374 0.419303 -0.586746
v -0.808442 0.419303 -0.630619
v -0.762649 0.585168 -0.681835
v -0.759374 0.556710 -0.586746
v -0.808442 0.556710 -0.630619
v -0.713581 0.585168 -0.637963
v -0.716856 0.556710 -0.733052
v -0.667788 0.556710 -0.689180
v -0.697888 0.488007 -0.754267
v -0.667788 0.556710 -0.689180
v -0.716856 0.556710 -0.733052
v -0.648820 0.488007 -0.710395
v -0.716856 0.419303 -0.733052
v -0.667788 0.419303 -0.689180
v -0.762649 0.390846 -0.681835
v -0.667788 0.419303 -0.689180
v -0.716856 0.419303 -0.733052
v -0.713581 0.390845 -0.637963
v -0.808442 0.419303 -0.630619
v -0.759374 0.419303 -0.586746
v -0.808438 0.556709 0.630722
v -0.778338 0.488006 0.565635
v -0.759369 0.556710 0.586849
v -0.827406 0.488006 0.609507
v -0.759369 0.419303 0.586849
v -0.808438 0.419303 0.630721
v -0.759369 0.556710 0.586849
v -0.762645 0.585167 0.681938
v -0.808438 0.556709 0.630722
v -0.713576 0.585167 0.638066
v -0.716852 0.556709 0.733155
v -0.667784 0.556710 0.689283
v -0.667784 0.556710 0.689283
v -0.697884 0.488006 0.754370
v -0.716852 0.556709 0.733155
v -0.648815 0.488006 0.710497
v -0.716852 0.419303 0.733155
v -0.667783 0.419303 0.689283
v -0.667783 0.419303 0.689283
v -0.762645 0.390845 0.681938
v -0.716852 0.419303 0.733155
v -0.713576 0.390845 0.638066
v -0.808438 0.419303 0.630721
v -0.759369 0.419303 0.586849
v 0.808443 0.556710 -0.630618
v 0.778343 0.488007 -0.565531
v 0.759375 0.556710 -0.586746
v 0.827411 0.488007 -0.609403
v 0.759375 0.419303 -0.586746
v 0.808444 0.419303 -0.630618
v 0.759375 0.556710 -0.586746
v 0.762650 0.585168 -0.681834
v 0.808443 0.556710 -0.630618
v 0.713582 0.585168 -0.637962
v 0.716857 0.556710 -0.733051
v 0.667789 0.556710 -0.689179
v 0.667789 0.556710 -0.689179
v 0.697890 0.488007 -0.754266
v 0.716857 0.556710 -0.733051
v 0.648821 0.488007 -0.710394
v 0.716858 0.419303 -0.733051
v 0.667789 0.419303 -0.689179
v 0.667789 0.419303 -0.689179
v 0.762651 0.390846 -0.681835
v 0.716858 0.419303 -0.733051
v 0.713582 0.390845 -0.637963
v 0.808444 0.419303 -0.630618
v 0.759375 0.419303 -0.586746
v 0.926420 0.401035 -0.184226
v 1.051362 0.401035 0.000050
v 0.944748 0.401035 0.000050
v 0.926421 0.401035 0.184327
v 1.030966 0.401035 -0.205022
v 1.030966 0.401035 0.205122
v 0.971332 0.401035 -0.402288
v 0.872833 0.401035 -0.361489
v 0.971332 0.401035 0.402389
v 0.872833 0.401035 0.361589
v 0.785381 0.401035 -0.524725
v 0.874011 0.401035 -0.583945
v 0.785382 0.401035 0.524825
v 0.874011 0.401035 0.584045
v 0.743425 0.401035 -0.743375
v 0.668038 0.401035 -0.667987
v 0.743425 0.401035 0.743475
v 0.668038 0.401035 0.668088
v 0.524775 0.401035 -0.785331
v 0.583995 0.401035 -0.873961
v 0.524775 0.401035 0.785431
v 0.583996 0.401035 0.874061
v 0.402339 0.401035 -0.971281
v 0.361539 0.401035 -0.872783
v 0.402339 0.401035 0.971382
v 0.361540 0.401035 0.872884
v 0.184276 0.401035 -0.926370
v 0.205072 0.401035 -1.030916
v 0.184277 0.401035 0.926471
v 0.205072 0.401035 1.031016
v 0.000000 0.401035 -1.051311
v 0.000000 0.401035 -0.944697
v 0.000000 0.401035 1.051412
v 0.000000 0.401035 0.944798
v -0.184277 0.401035 -0.926370
v -0.205072 0.401035 -1.030916
v -0.184277 0.401035 0.926471
v -0.205072 0.401035 1.031016
v -0.402339 0.401035 -0.971281
v -0.361539 0.401035 -0.872783
v -0.402339 0.401035 0.971382
v -0.361539 0.401035 0.872884
v -0.524775 0.401035 -0.785331
v -0.583996 0.401035 -0.873961
v -0.524775 0.401035 0.785431
v -0.583996 0.401035 0.874061
v -0.743425 0.401035 -0.743375
v -0.668038 0.401035 -0.667987
v -0.743425 0.401035 0.743475
v -0.668038 0.401035 0.668088
v -0.785381 0.401035 -0.524725
v -0.874011 0.401035 -0.583945
v -0.785381 0.401035 0.524825
v -0.874011 0.401035 0.584045
v -0.971332 0.401035 -0.402289
v -0.872833 0.401035 -0.361489
v -0.971332 0.401035 0.402389
v -0.872833 0.401035 0.361589
v -0.926420 0.401035 -0.184226
v -1.030966 0.401035 -0.205022
v -0.926420 0.401035 0.184327
v -1.030966 0.401035 0.205122
v -1.051362 0.401035 0.000050
v -0.944748 0.401035 0.000050
vn 0.4713 0.7071 -0.5271
vn 0.4713 0.7070 -0.5272
vn 0.6665 -0.0000 -0.7455
vn 0.4713 -0.7071 -0.5271
vn 0.4713 -0.7070 -0.5272
vn -0.0000 1.0000 -0.0000
vn -0.4713 0.7071 0.5271
vn -0.4713 0.7070 0.5272
vn -0.6665 -0.0000 0.7455
vn -0.4714 -0.7070 0.5272
vn -0.4713 -0.7070 0.5272
vn -0.4713 -0.7071 0.5271
vn -0.0000 -1.0000 -0.0000
vn 0.4714 -0.7071 -0.5270
vn 0.4713 0.7071 -0.5272
vn -0.4713 0.7071 -0.5271
vn -0.6665 -0.0000 -0.7455
vn -0.4713 0.7070 -0.5272
vn -0.4713 -0.7071 -0.5271
vn -0.4713 -0.7070 -0.5272
vn 0.4713 0.7071 0.5271
vn 0.6665 -0.0000 0.7455
vn 0.4713 0.7070 0.5272
vn 0.4713 -0.7071 0.5271
vn 0.4714 -0.7071 0.5271
vn 0.4714 -0.7071 0.5270
vn 0.4713 0.7071 0.5272
vn 0.4713 -0.7070 0.5272
vn -0.4712 -0.7070 -0.5273
vn -0.4711 -0.7071 -0.5272
vt -1.597130 0.420956
vt -1.601602 0.420956
vt -1.594967 0.407915
vt -1.599440 0.407915
vt -1.597130 0.394875
vt -1.601602 0.394875
vt 0.605500 -1.601602
vt 0.599096 -1.597130
vt 0.599524 -1.606823
vt 0.593120 -1.602351
vt 0.593548 -1.612045
vt 0.587144 -1.607572
vt 2.612045 0.420956
vt 2.607572 0.420956
vt 2.614208 0.407915
vt 2.609735 0.407915
vt 2.612045 0.394875
vt 2.607572 0.394875
vt 0.406452 -1.612045
vt 0.412856 -1.607572
vt 0.400476 -1.606823
vt 0.406880 -1.602351
vt 0.394500 -1.601602
vt 0.400904 -1.597130
vt 2.477488 0.420956
vt 2.473015 0.420956
vt 2.479650 0.407915
vt 2.475178 0.407915
vt 2.477488 0.394875
vt 2.473015 0.394875
vt 0.394492 -1.473015
vt 0.400896 -1.477488
vt 0.400469 -1.467794
vt 0.406872 -1.472266
vt 0.406445 -1.462573
vt 0.412848 -1.467045
vt -1.462573 0.420956
vt -1.467045 0.420956
vt -1.460410 0.407915
vt -1.464882 0.407915
vt -1.462572 0.394875
vt -1.467045 0.394875
vt 0.593555 -1.462572
vt 0.587152 -1.467045
vt 0.599531 -1.467794
vt 0.593128 -1.472266
vt 0.605508 -1.473015
vt 0.599104 -1.477488
vt 2.597130 0.420956
vt 2.594967 0.407915
vt 2.601602 0.420956
vt 2.599440 0.407915
vt 2.597130 0.394875
vt 2.601602 0.394875
vt 0.394493 -1.601602
vt 0.400469 -1.606824
vt 0.400896 -1.597130
vt 0.406872 -1.602351
vt 0.406445 -1.612045
vt 0.412849 -1.607572
vt -1.612045 0.420956
vt -1.614208 0.407915
vt -1.607572 0.420956
vt -1.609735 0.407915
vt -1.612045 0.394875
vt -1.607572 0.394875
vt 0.593555 -1.612045
vt 0.599531 -1.606824
vt 0.587151 -1.607572
vt 0.593128 -1.602351
vt 0.605507 -1.601602
vt 0.599104 -1.597130
vt -1.477488 0.420956
vt -1.479650 0.407915
vt -1.473015 0.420956
vt -1.475178 0.407915
vt -1.477488 0.394875
vt -1.473015 0.394875
vt 0.605501 -1.473015
vt 0.599525 -1.467794
vt 0.599097 -1.477488
vt 0.593121 -1.472266
vt 0.593549 -1.462573
vt 0.587145 -1.467045
vt 2.462573 0.420956
vt 2.460410 0.407915
vt 2.467045 0.420956
vt 2.464882 0.407915
vt 2.462573 0.394875
vt 2.467045 0.394875
vt 0.406451 -1.462573
vt 0.400475 -1.467794
vt 0.412855 -1.467045
vt 0.406879 -1.472266
vt 0.394499 -1.473015
vt 0.400903 -1.477488
vt 0.623289 -1.537309
vt 0.637202 -1.537309
vt 0.620897 -1.518523
vt 0.620897 -1.556095
vt 0.634540 -1.516402
vt 0.634540 -1.558215
vt 0.626758 -1.496292
vt 0.613904 -1.500452
vt 0.626758 -1.578325
vt 0.613904 -1.574166
vt 0.602491 -1.483810
vt 0.614057 -1.477773
vt 0.602491 -1.590807
vt 0.614057 -1.596844
vt 0.597016 -1.461520
vt 0.587177 -1.469205
vt 0.597015 -1.613097
vt 0.587177 -1.605412
vt 0.568481 -1.457243
vt 0.576210 -1.448208
vt 0.568481 -1.617374
vt 0.576209 -1.626410
vt 0.552503 -1.438286
vt 0.547179 -1.448328
vt 0.552503 -1.636331
vt 0.547178 -1.626290
vt 0.524045 -1.442865
vt 0.526759 -1.432207
vt 0.524045 -1.631752
vt 0.526759 -1.642410
vt 0.499997 -1.430128
vt 0.499997 -1.440996
vt 0.499996 -1.644490
vt 0.499996 -1.633621
vt 0.475948 -1.442865
vt 0.473234 -1.432207
vt 0.475948 -1.631752
vt 0.473234 -1.642410
vt 0.447490 -1.438286
vt 0.452815 -1.448328
vt 0.447490 -1.636331
vt 0.452814 -1.626290
vt 0.431512 -1.457243
vt 0.423783 -1.448208
vt 0.431511 -1.617374
vt 0.423783 -1.626410
vt 0.402977 -1.461520
vt 0.412816 -1.469205
vt 0.402977 -1.613097
vt 0.412815 -1.605412
vt 0.397502 -1.483810
vt 0.385936 -1.477773
vt 0.397502 -1.590807
vt 0.385935 -1.596844
vt 0.373235 -1.496292
vt 0.386089 -1.500452
vt 0.373235 -1.578325
vt 0.386089 -1.574166
vt 0.379096 -1.518523
vt 0.365452 -1.516402
vt 0.379096 -1.556095
vt 0.365452 -1.558215
vt 0.362791 -1.537308
vt 0.376704 -1.537308
s 1
g Dr_Torpedo_2Tube_AA_004_3_Dr_Torpedo_2Tube_AA_004_3_details_3
usemtl details_3
f 3/1/1 2/2/2 1/3/3
f 4/4/3 1/3/3 2/2/2
f 1/3/3 4/4/3 5/5/4
f 6/6/5 5/5/4 4/4/3
f 9/7/1 8/8/1 7/9/6
f 10/10/6 7/9/6 8/8/1
f 7/9/6 10/10/6 11/11/7
f 12/12/7 11/11/7 10/10/6
f 15/13/7 14/14/8 13/15/9
f 16/16/9 13/15/9 14/14/8
f 13/15/9 16/16/9 17/17/10
f 18/18/11 17/17/10 16/16/9
f 21/19/12 20/20/12 19/21/13
f 22/22/13 19/21/13 20/20/12
f 19/21/13 22/22/13 23/23/14
f 24/24/4 23/23/14 22/22/13
f 27/25/7 26/26/8 25/27/9
f 28/28/9 25/27/9 26/26/8
f 25/27/9 28/28/9 29/29/12
f 30/30/11 29/29/12 28/28/9
f 33/31/7 32/32/7 31/33/6
f 34/34/6 31/33/6 32/32/7
f 31/33/6 34/34/6 35/35/1
f 36/36/1 35/35/1 34/34/6
f 39/37/1 38/38/15 37/39/3
f 40/40/3 37/39/3 38/38/15
f 37/39/3 40/40/3 41/41/4
f 42/42/5 41/41/4 40/40/3
f 45/43/4 44/44/4 43/45/13
f 46/46/13 43/45/13 44/44/4
f 43/45/13 46/46/13 47/47/12
f 48/48/12 47/47/12 46/46/13
f 51/49/16 50/50/17 49/51/18
f 52/52/17 49/51/18 50/50/17
f 50/50/17 53/53/19 52/52/17
f 54/54/20 52/52/17 53/53/19
f 57/55/16 56/56/6 55/57/16
f 58/58/6 55/57/16 56/56/6
f 56/56/6 59/59/21 58/58/6
f 60/60/21 58/58/6 59/59/21
f 63/61/21 62/62/22 61/63/23
f 64/64/22 61/63/23 62/62/22
f 62/62/22 65/65/24 64/64/22
f 66/66/25 64/64/22 65/65/24
f 69/67/26 68/68/13 67/69/24
f 70/70/13 67/69/24 68/68/13
f 68/68/13 71/71/19 70/70/13
f 72/72/19 70/70/13 71/71/19
f 75/73/21 74/74/22 73/75/27
f 76/76/22 73/75/27 74/74/22
f 74/74/22 77/77/24 76/76/22
f 78/78/28 76/76/22 77/77/24
f 81/79/21 80/80/6 79/81/21
f 82/82/6 79/81/21 80/80/6
f 80/80/6 83/83/16 82/82/6
f 84/84/16 82/82/6 83/83/16
f 87/85/16 86/86/17 85/87/18
f 88/88/17 85/87/18 86/86/17
f 86/86/17 89/89/19 88/88/17
f 90/90/29 88/88/17 89/89/19
f 93/91/30 92/92/13 91/93/19
f 94/94/13 91/93/19 92/92/13
f 92/92/13 95/95/24 94/94/13
f 96/96/26 94/94/13 95/95/24
f 99/97/6 98/98/6 97/99/6
f 99/97/6 100/100/6 98/98/6
f 101/101/6 97/99/6 98/98/6
f 102/102/6 98/98/6 100/100/6
f 101/101/6 103/103/6 97/99/6
f 104/104/6 97/99/6 103/103/6
f 102/102/6 100/100/6 105/105/6
f 106/106/6 105/105/6 100/100/6
f 104/104/6 103/103/6 107/107/6
f 108/108/6 107/107/6 103/103/6
f 106/106/6 109/109/6 105/105/6
f 110/110/6 105/105/6 109/109/6
f 108/108/6 111/111/6 107/107/6
f 112/112/6 107/107/6 111/111/6
f 110/110/6 109/109/6 113/113/6
f 114/114/6 113/113/6 109/109/6
f 112/112/6 111/111/6 115/115/6
f 116/116/6 115/115/6 111/111/6
f 114/114/6 117/117/6 113/113/6
f 118/118/6 113/113/6 117/117/6
f 116/116/6 119/119/6 115/115/6
f 120/120/6 115/115/6 119/119/6
f 118/118/6 117/117/6 121/121/6
f 122/122/6 121/121/6 117/117/6
f 120/120/6 119/119/6 123/123/6
f 124/124/6 123/123/6 119/119/6
f 122/122/6 125/125/6 121/121/6
f 126/126/6 121/121/6 125/125/6
f 124/124/6 127/127/6 123/123/6
f 128/128/6 123/123/6 127/127/6
f 126/126/6 125/125/6 129/129/6
f 130/130/6 129/129/6 125/125/6
f 128/128/6 127/127/6 131/131/6
f 132/132/6 131/131/6 127/127/6
f 130/130/6 133/133/6 129/129/6
f 134/134/6 129/129/6 133/133/6
f 132/132/6 135/135/6 131/131/6
f 136/136/6 131/131/6 135/135/6
f 134/134/6 133/133/6 137/137/6
f 138/138/6 137/137/6 133/133/6
f 136/136/6 135/135/6 139/139/6
f 140/140/6 139/139/6 135/135/6
f 138/138/6 141/141/6 137/137/6
f 142/142/6 137/137/6 141/141/6
f 140/140/6 143/143/6 139/139/6
f 144/144/6 139/139/6 143/143/6
f 142/142/6 141/141/6 145/145/6
f 146/146/6 145/145/6 141/141/6
f 144/144/6 143/143/6 147/147/6
f 148/148/6 147/147/6 143/143/6
f 146/146/6 149/149/6 145/145/6
f 150/150/6 145/145/6 149/149/6
f 148/148/6 151/151/6 147/147/6
f 152/152/6 147/147/6 151/151/6
f 150/150/6 149/149/6 153/153/6
f 154/154/6 153/153/6 149/149/6
f 152/152/6 151/151/6 155/155/6
f 156/156/6 155/155/6 151/151/6
f 154/154/6 157/157/6 153/153/6
f 158/158/6 153/153/6 157/157/6
f 156/156/6 159/159/6 155/155/6
f 158/158/6 157/157/6 159/159/6
f 160/160/6 155/155/6 159/159/6
f 160/160/6 159/159/6 157/157/6
