# Blender 5.1.0
# www.blender.org
mtllib KiGe_Deckhouse_С1_001_7_KiGe_Deckhouse_С1_001_7.mtl
o KiGe_Deckhouse_С1_001_7_KiGe_Deckhouse_С1_001_7
v 0.075729 49.677448 20.948036
v -0.075729 49.677448 20.948036
v 0.075729 49.503483 20.948036
v -0.075729 49.503483 20.948036
v 3.704773 38.879536 19.871878
v 3.617775 38.728840 19.871878
v 3.617775 39.030231 19.871878
v 3.443806 38.728840 19.871878
v 3.443806 39.030231 19.871878
v 3.530785 38.879536 19.941086
v 3.356804 38.879536 19.871878
v 3.704773 41.294910 19.871878
v 3.617775 41.144215 19.871878
v 3.617775 41.445606 19.871878
v 3.443806 41.144215 19.871878
v 3.443806 41.445606 19.871878
v 3.530785 41.294910 19.941086
v 3.356804 41.294910 19.871878
v 0.734093 43.799641 21.288635
v 0.734093 43.799641 21.483418
v 0.362888 44.047657 21.288635
v -3.704773 38.879536 19.871878
v -3.617775 38.728840 19.871878
v -3.617775 39.030231 19.871878
v -3.443806 38.728840 19.871878
v -3.443806 39.030231 19.871878
v -3.530785 38.879536 19.941086
v -3.356804 38.879536 19.871878
v -3.704773 41.294910 19.871878
v -3.617775 41.144215 19.871878
v -3.617775 41.445606 19.871878
v -3.443806 41.144215 19.871878
v -3.443806 41.445606 19.871878
v -3.530785 41.294910 19.941086
v -3.356804 41.294910 19.871878
v -0.734093 43.799641 21.288635
v -0.734093 43.799641 21.483418
v -0.362888 44.047657 21.288635
v -0.362888 44.047657 21.483418
v 0.362888 44.047657 21.483418
v 0.362888 41.933460 21.288635
v 0.734093 42.181477 21.483419
v 0.734093 42.181477 21.288635
v 0.362888 41.933460 21.483419
v 0.734093 42.181477 21.288635
v 0.734093 42.181477 21.483419
v 0.982124 42.552692 21.288635
v 0.982124 42.552692 21.483419
v 1.069221 42.990559 21.288635
v 1.069221 42.990559 21.483419
v 0.982124 43.428425 21.288635
v 0.734093 43.799641 21.483418
v 0.734093 43.799641 21.288635
v 0.982124 43.428425 21.483418
v 0.279034 49.517933 20.598454
v 0.376011 49.349964 20.598450
v 0.376011 49.461948 20.598454
v 0.182056 49.349964 20.598450
v 0.182056 49.461948 20.598450
v 0.279034 49.293980 20.598450
v 3.458267 38.525532 19.522293
v -0.362888 41.933460 21.288635
v -0.734093 42.181477 21.483419
v -0.734093 42.181477 21.288635
v -0.362888 41.933460 21.483419
v -0.734093 42.181477 21.288635
v -0.734093 42.181477 21.483419
v -0.982124 42.552692 21.288635
v -0.982124 42.552692 21.483419
v -1.069221 42.990559 21.288635
v -1.069221 42.990559 21.483419
v -0.982124 43.428425 21.288635
v -0.734093 43.799641 21.483418
v -0.734093 43.799641 21.288635
v -0.982124 43.428425 21.483418
v -0.279034 49.517933 20.598454
v -0.376011 49.349964 20.598450
v -0.376011 49.461948 20.598454
v -0.182056 49.349964 20.598450
v -0.182056 49.461948 20.598450
v -0.279034 49.293980 20.598450
v 3.290291 38.428562 19.522287
v 3.402267 38.428562 19.522293
v 3.290291 38.622517 19.522291
v 3.402267 38.622517 19.522291
v 3.234306 38.525532 19.522291
v 3.458267 39.233540 19.522293
v 3.290291 39.136555 19.522291
v 3.402267 39.136555 19.522291
v 3.290291 39.330509 19.522287
v 3.402267 39.330509 19.522293
v 3.234306 39.233540 19.522291
v 3.458267 40.940922 19.522293
v 3.290291 40.843937 19.522287
v 3.402267 40.843937 19.522293
v 3.290291 41.037891 19.522291
v 3.402267 41.037891 19.522291
v 3.234306 40.940922 19.522291
v 3.458267 41.648914 19.522293
v 3.290291 41.551945 19.522291
v 3.402267 41.551945 19.522291
v 3.290291 41.745899 19.522287
v 3.402267 41.745899 19.522293
v 3.234306 41.648914 19.522291
v -3.458267 38.525532 19.522293
v -3.290291 38.428562 19.522287
v -3.402267 38.428562 19.522293
v -3.290291 38.622517 19.522291
v -3.402267 38.622517 19.522291
v -3.234306 38.525532 19.522291
v -3.458267 39.233540 19.522293
v -3.290291 39.136555 19.522291
v -3.402267 39.136555 19.522291
v -3.290291 39.330509 19.522287
v -3.402267 39.330509 19.522293
v -3.234306 39.233540 19.522291
v -3.458267 40.940922 19.522293
v -3.290291 40.843937 19.522287
v -3.402267 40.843937 19.522293
v -3.290291 41.037891 19.522291
v -3.402267 41.037891 19.522291
v -3.234306 40.940922 19.522291
v -3.458267 41.648914 19.522293
v -3.290291 41.551945 19.522291
v -3.402267 41.551945 19.522291
v -3.290291 41.745899 19.522287
v -3.402267 41.745899 19.522293
v -3.234306 41.648914 19.522291
v 0.000000 49.721172 20.948036
v 0.000000 49.633732 20.982819
v 0.000000 49.459759 20.948036
v 0.000000 49.547192 20.982819
v 0.000000 44.119854 21.483418
v 0.000000 44.119854 21.288635
v 0.000000 41.861279 21.288635
v 0.000000 41.861279 21.483419
vn -0.0000 -0.0000 1.0000
vn -0.3696 -0.0000 0.9292
vn -0.1848 -0.3201 0.9292
vn 0.1848 -0.3201 0.9292
vn 0.3696 -0.0000 0.9292
vn -0.1848 0.3201 0.9292
vn 0.1848 0.3201 0.9292
vn -0.0000 0.1263 0.9920
vn 0.3201 -0.1848 0.9292
vn 0.3201 0.1848 0.9292
vn -0.3827 0.9239 -0.0000
vn -0.7069 0.7073 -0.0000
vn -0.7072 0.7070 -0.0000
vn -0.9239 0.3827 -0.0000
vn -0.0000 0.3696 0.9292
vn -0.3201 0.1848 0.9292
vn -0.3827 -0.9239 -0.0000
vn -0.7069 -0.7073 -0.0000
vn 0.5449 0.8156 0.1949
vn 0.3827 0.9239 -0.0000
vn -1.0000 -0.0000 -0.0000
vn -0.9239 -0.3827 -0.0000
vn -0.0000 1.0000 -0.0000
vn 0.9239 0.3827 -0.0000
vn 0.8155 0.5449 -0.1949
vn 0.8155 0.5449 0.1949
vn -0.7072 -0.7070 -0.0000
vn -0.0000 -1.0000 -0.0000
vn 0.3827 -0.9239 -0.0000
vn 0.9239 -0.3827 -0.0000
vn 0.8155 -0.5449 0.1949
vn 0.8155 -0.5449 -0.1949
vn 0.5449 -0.8156 -0.1949
vn 1.0000 -0.0000 -0.0000
vn -0.3201 -0.1848 0.9292
vn -0.0000 -0.1263 0.9920
vn -0.0000 -0.3696 0.9292
vn -0.0001 -0.0000 1.0000
vn 0.0001 -0.0000 1.0000
vn 0.5449 0.8155 -0.1949
vn -0.0001 -0.0001 1.0000
vn 0.5449 -0.8155 0.1949
vn 0.0001 -0.0001 1.0000
vn 0.0001 0.0001 1.0000
vn -0.0001 0.0001 1.0000
vt 0.535136 2.754196
vt 0.537780 2.754196
vt 0.536458 2.756476
vt 0.535136 2.790732
vt 0.536458 2.793011
vt 0.537780 2.790732
vt 0.536458 2.788452
vt 0.533814 2.788452
vt 0.481480 2.628062
vt 0.482631 2.630032
vt 0.482631 2.627400
vt 0.536458 2.751917
vt 0.533814 2.793011
vt 0.532492 2.790732
vt 0.533814 2.756476
vt 0.532492 2.754196
vt 0.533814 2.751917
vt 0.534034 2.785377
vt 0.531481 2.783910
vt 0.531481 2.786844
vt 0.531481 2.761018
vt 0.531481 2.758084
vt 0.534034 2.759551
vt 0.486995 0.583018
vt 0.492636 0.585957
vt 0.486995 0.585957
vt 2.716309 0.583018
vt 2.721924 0.585957
vt 2.716309 0.585957
vt 0.481480 2.626739
vt 0.513005 0.585957
vt 0.507364 0.583018
vt 0.513005 0.583018
vt 2.728548 0.583018
vt 2.735171 0.585957
vt 2.728548 0.585957
vt 0.481480 0.583018
vt 0.485720 2.633201
vt 0.487194 2.630660
vt 0.484247 2.630660
vt 0.530630 2.796087
vt 0.533183 2.797554
vt 0.533183 2.794620
vt 2.740786 0.585957
vt 2.735171 0.583018
vt 2.740786 0.583018
vt 0.518520 0.585957
vt 2.721924 0.583018
vt 0.533183 2.747375
vt 0.533183 2.750309
vt 0.530630 2.748842
vt 0.481480 2.629371
vt 0.481480 2.630693
vt 0.533183 2.786844
vt 0.533183 2.783910
vt 0.530630 2.785377
vt 0.533183 2.761018
vt 0.530630 2.759551
vt 0.533183 2.758084
vt 0.492636 0.583018
vt 0.507364 0.585957
vt 0.481480 0.585957
vt 0.484247 2.632354
vt 0.487194 2.632354
vt 0.485720 2.629813
vt 0.531481 2.794620
vt 0.531481 2.797554
vt 0.534034 2.796087
vt 0.518520 0.583018
vt 0.531481 2.747375
vt 0.534034 2.748842
vt 0.531481 2.750309
s 1
g KiGe_Deckhouse_С1_001_7_KiGe_Deckhouse_С1_001_7_banner
usemtl banner
f 34/1/1 29/2/2 30/3/3
f 10/4/1 6/5/4 5/6/5
f 24/7/6 27/4/1 26/8/7
f 130/9/8 3/10/9 1/11/10
f 29/2/2 34/1/1 31/12/6
f 10/4/1 8/13/3 6/5/4
f 10/4/1 11/14/2 8/13/3
f 9/8/6 11/14/2 10/4/1
f 7/7/7 9/8/6 10/4/1
f 17/1/1 13/3/4 12/2/5
f 12/2/5 14/12/7 17/1/1
f 17/1/1 15/15/3 13/3/4
f 17/1/1 18/16/2 15/15/3
f 16/17/6 18/16/2 17/1/1
f 14/12/7 16/17/6 17/1/1
f 87/18/1 90/19/1 88/20/1
f 34/1/1 30/3/3 32/15/4
f 31/12/6 34/1/1 33/17/7
f 34/1/1 32/15/4 35/16/5
f 33/17/7 34/1/1 35/16/5
f 22/6/2 27/4/1 24/7/6
f 118/21/1 120/22/1 117/23/1
f 38/24/11 37/25/12 39/26/11
f 27/4/1 25/13/4 28/14/5
f 74/27/13 75/28/14 73/29/13
f 130/9/8 129/30/15 2/11/16
f 27/4/1 22/6/2 23/5/3
f 65/31/17 64/32/18 62/33/17
f 20/25/19 21/24/20 40/26/20
f 70/34/21 69/35/22 71/36/21
f 39/26/11 134/37/23 38/24/11
f 26/8/7 27/4/1 28/14/5
f 93/23/1 96/22/1 94/21/1
f 134/37/23 40/26/20 21/24/20
f 54/28/24 53/27/25 52/29/26
f 60/38/1 57/39/1 59/40/1
f 86/41/1 83/42/1 85/43/1
f 67/44/27 68/45/22 66/46/27
f 136/47/28 41/33/29 44/31/29
f 47/45/30 46/44/31 45/46/32
f 43/32/33 44/31/29 41/33/29
f 75/28/14 70/34/21 71/36/21
f 80/40/1 78/39/1 81/38/1
f 109/43/1 107/42/1 110/41/1
f 54/28/24 49/34/34 51/48/24
f 62/33/17 136/47/28 65/31/17
f 127/49/1 125/50/1 128/51/1
f 48/35/30 49/34/34 50/36/34
f 104/51/1 101/50/1 103/49/1
f 112/20/1 114/19/1 111/18/1
f 130/9/8 4/10/35 132/52/36
f 132/52/36 4/10/35 131/53/37
f 27/4/1 23/5/3 25/13/4
f 5/6/5 7/7/7 10/4/1
f 130/9/8 1/11/10 129/30/15
f 132/52/36 131/53/37 3/10/9
f 130/9/8 132/52/36 3/10/9
f 88/20/1 89/54/1 87/18/1
f 87/18/1 91/55/38 90/19/1
f 90/19/1 92/56/1 88/20/1
f 117/23/1 119/57/39 118/21/1
f 118/21/1 122/58/1 120/22/1
f 120/22/1 121/59/1 117/23/1
f 38/24/11 36/60/12 37/25/12
f 74/27/13 72/48/14 75/28/14
f 65/31/17 63/61/18 64/32/18
f 20/25/19 19/60/40 21/24/20
f 70/34/21 68/45/22 69/35/22
f 39/26/11 133/62/23 134/37/23
f 94/21/1 95/57/38 93/23/1
f 93/23/1 97/59/1 96/22/1
f 96/22/1 98/58/1 94/21/1
f 134/37/23 133/62/23 40/26/20
f 54/28/24 51/48/24 53/27/25
f 59/40/1 58/63/1 60/38/1
f 60/38/1 56/64/1 57/39/1
f 57/39/1 55/65/1 59/40/1
f 85/43/1 84/66/1 86/41/1
f 86/41/1 82/67/41 83/42/1
f 83/42/1 61/68/1 85/43/1
f 67/44/27 69/35/22 68/45/22
f 136/47/28 135/69/28 41/33/29
f 47/45/30 48/35/30 46/44/31
f 43/32/33 42/61/42 44/31/29
f 75/28/14 72/48/14 70/34/21
f 81/38/1 79/63/1 80/40/1
f 80/40/1 76/65/1 78/39/1
f 78/39/1 77/64/1 81/38/1
f 110/41/1 108/66/1 109/43/1
f 109/43/1 105/68/1 107/42/1
f 107/42/1 106/67/43 110/41/1
f 54/28/24 50/36/34 49/34/34
f 62/33/17 135/69/28 136/47/28
f 128/51/1 126/70/44 127/49/1
f 127/49/1 123/71/1 125/50/1
f 125/50/1 124/72/1 128/51/1
f 48/35/30 47/45/30 49/34/34
f 103/49/1 102/70/45 104/51/1
f 104/51/1 100/72/1 101/50/1
f 101/50/1 99/71/1 103/49/1
f 111/18/1 113/54/1 112/20/1
f 112/20/1 116/56/1 114/19/1
f 114/19/1 115/55/39 111/18/1
f 130/9/8 2/11/16 4/10/35
