# Blender 5.1.0
# www.blender.org
mtllib KiGe_Deckhouse_С1_001_1_KiGe_Deckhouse_С1_001_1.mtl
o KiGe_Deckhouse_С1_001_1_KiGe_Deckhouse_С1_001_1
v -12.097744 8.935799 5.847540
v -11.196884 6.588654 5.847540
v -12.097744 7.060623 5.847540
v -10.198273 6.746819 5.847540
v -9.450962 12.123894 5.847540
v -9.199661 6.588638 5.847540
v -6.689873 12.123894 5.847540
v -8.298801 6.129646 5.847540
v -7.583870 5.414719 5.847540
v -7.124863 4.513855 5.847540
v -6.966702 3.515251 5.847540
v -6.689873 2.516678 5.847540
v -7.124863 2.516640 5.847540
v 12.097744 8.935799 5.847540
v 11.196884 6.588654 5.847540
v 12.097744 7.060623 5.847540
v 10.198273 6.746819 5.847540
v 9.450962 12.123894 5.847540
v 9.199661 6.588638 5.847540
v 6.689873 12.123894 5.847540
v 8.298801 6.129646 5.847540
v 7.583870 5.414719 5.847540
v 7.124863 4.513855 5.847540
v 6.966702 3.515251 5.847540
v 6.689873 2.516678 5.847540
v 7.124863 2.516640 5.847540
vn -0.0000 -0.0000 1.0000
vt 0.607353 2.897746
vt 0.631803 2.988416
vt 0.620939 2.999230
vt 0.645493 2.981473
vt 0.649312 2.897746
vt 0.689534 2.945970
vt 0.689534 2.974334
vt 0.675844 2.981473
vt 0.660668 2.979081
vt 0.611560 3.027962
vt 0.613963 3.043067
vt 0.607353 3.043067
vt 0.613963 3.012857
s 1
g KiGe_Deckhouse_С1_001_1_KiGe_Deckhouse_С1_001_1_wood_deck_1
usemtl wood_deck_1
f 7/1/1 8/2/1 9/3/1
f 20/1/1 21/2/1 19/4/1
f 7/1/1 5/5/1 1/6/1
f 1/6/1 3/7/1 2/8/1
f 1/6/1 2/8/1 4/9/1
f 11/10/1 13/11/1 12/12/1
f 10/13/1 11/10/1 12/12/1
f 7/1/1 1/6/1 4/9/1
f 7/1/1 4/9/1 6/4/1
f 10/13/1 12/12/1 7/1/1
f 9/3/1 10/13/1 7/1/1
f 7/1/1 6/4/1 8/2/1
f 25/12/1 26/11/1 24/10/1
f 25/12/1 24/10/1 23/13/1
f 14/6/1 18/5/1 20/1/1
f 15/8/1 16/7/1 14/6/1
f 17/9/1 15/8/1 14/6/1
f 20/1/1 25/12/1 23/13/1
f 20/1/1 23/13/1 22/3/1
f 17/9/1 14/6/1 20/1/1
f 19/4/1 17/9/1 20/1/1
f 20/1/1 22/3/1 21/2/1
