# Blender 5.1.0
# www.blender.org
mtllib QE_pancake_133_x2_barrel_002_QE_pancake_133_x2_001.mtl
o QE_pancake_133_x2_barrel_002_QE_pancake_133_x2_001.001
v -1.000000 0.659910 1.005785
v 1.000000 0.659910 1.005785
v -1.000000 0.855000 1.025000
v 1.000000 0.855000 1.025000
v -1.000000 1.050090 1.005785
v 1.000000 1.050090 1.005785
v -1.000000 1.237684 0.948879
v 1.000000 1.237684 0.948879
v -1.000000 1.410570 0.856470
v 1.000000 1.410570 0.856470
v -1.000000 1.562107 0.732107
v 1.000000 1.562107 0.732107
v -1.000000 1.686470 0.580570
v 1.000000 1.686470 0.580570
v -1.000000 1.778880 0.407683
v 1.000000 1.778880 0.407683
v -1.000000 1.835785 0.220090
v 1.000000 1.835785 0.220090
v -1.000000 1.855000 0.025000
v 1.000000 1.855000 0.025000
v -1.000000 1.835785 -0.170090
v 1.000000 1.835785 -0.170090
v -0.476794 1.209741 6.547960
v -0.475950 1.100024 5.556410
v -0.541971 1.188560 6.547960
v -0.411615 1.188560 6.547960
v -0.541971 1.188560 6.547960
v -0.475950 1.100024 5.556410
v -0.582254 1.133116 6.547965
v -0.582254 1.064586 6.547964
v -0.541971 1.009143 6.547964
v -0.541971 1.009143 6.547964
v -0.475950 1.100024 5.556410
v -0.476794 0.987964 6.547962
v -0.411616 1.009143 6.547962
v -0.411616 1.009143 6.547962
v -0.475950 1.100024 5.556410
v -0.371334 1.064586 6.547960
v -0.371334 1.133118 6.547960
v -0.411615 1.188560 6.547960
v 0.476794 1.209741 6.547960
v 0.475950 1.100024 5.556410
v 0.541971 1.188560 6.547960
v 0.411615 1.188560 6.547960
v 0.541971 1.188560 6.547960
v 0.475950 1.100024 5.556410
v 0.582254 1.133116 6.547965
v 0.582254 1.064586 6.547964
v 0.541971 1.009143 6.547964
v 0.541971 1.009143 6.547964
v 0.475950 1.100024 5.556410
v 0.476794 0.987964 6.547962
v 0.411616 1.009143 6.547962
v 0.411616 1.009143 6.547962
v 0.475950 1.100024 5.556410
v 0.371334 1.064586 6.547960
v 0.371334 1.133118 6.547960
v 0.411615 1.188560 6.547960
v 0.000000 0.659910 1.005785
v 0.000000 0.855000 1.025000
v 0.000000 1.050090 1.005785
v 0.000000 1.237684 0.948879
v 0.000000 1.410570 0.856470
v 0.000000 1.562107 0.732107
v 0.000000 1.686470 0.580570
v 0.000000 1.778880 0.407683
v 0.000000 1.835785 0.220090
v 0.000000 1.855000 0.025000
v 0.000000 1.835785 -0.170090
vn -0.0772 -0.9948 -0.0662
vn -0.0004 -0.9384 0.3457
vn 0.0005 -0.4691 0.8831
vn 0.0773 -0.9948 -0.0666
vn -0.8921 -0.2891 0.3472
vn -0.9223 -0.3808 -0.0652
vn -0.4488 -0.0008 0.8936
vn -0.8915 0.2902 0.3478
vn -0.9224 0.3809 -0.0639
vn -0.0005 0.9375 0.3479
vn -0.0771 0.9950 -0.0638
vn 0.0004 0.4664 0.8846
vn 0.0772 0.9949 -0.0643
vn 0.8919 0.2907 0.3463
vn 0.9223 0.3808 -0.0654
vn 0.4507 -0.0005 0.8927
vn 0.8926 -0.2895 0.3457
vn 0.9222 -0.3809 -0.0667
vn 0.4380 -0.8326 0.3390
vn -0.0009 -0.4691 0.8831
vn -0.0001 -0.9384 0.3457
vn -0.4383 -0.8328 0.3382
vn 0.8918 -0.2900 0.3472
vn 0.4488 -0.0012 0.8936
vn 0.6562 -0.6740 0.3394
vn 0.8917 0.2896 0.3478
vn 0.6560 0.6734 0.3410
vn -0.0002 0.9375 0.3479
vn -0.0010 0.4664 0.8846
vn 0.4377 0.8319 0.3411
vn -0.4380 0.8321 0.3402
vn -0.8923 0.2896 0.3463
vn -0.4507 -0.0015 0.8927
vn -0.6563 0.6736 0.3399
vn -0.8924 -0.2901 0.3457
vn -0.6566 -0.6742 0.3382
vn -0.0000 0.9952 -0.0980
vn -0.0000 1.0000 -0.0000
vn -0.0000 0.9808 0.1951
vn -0.0000 0.9239 0.3827
vn -0.0000 0.8315 0.5556
vn -0.0000 0.7071 0.7071
vn -0.0000 0.5556 0.8315
vn -0.0000 0.3827 0.9239
vn -0.0000 0.1951 0.9808
vn -0.0000 -0.0000 1.0000
vn -0.0000 -0.0980 0.9952
vt 0.501205 5.028521
vt 0.500010 5.028521
vt 0.499994 5.043593
vt 0.498814 5.028521
vt 5.028521 0.529593
vt 5.028521 0.530611
vt 5.043593 0.528986
vt 5.028521 0.528335
vt 5.028521 0.527317
vt 0.499990 5.028521
vt 0.498795 5.028521
vt 0.500006 5.043593
vt 0.501186 5.028521
vt -4.028521 0.528335
vt -4.028521 0.527317
vt -4.043593 0.528986
vt -4.028521 0.529593
vt -4.028521 0.530611
vt 0.218750 0.500000
vt 0.250000 0.750000
vt 0.250000 0.500000
vt 0.281250 0.750000
vt 0.281250 0.500000
vt 0.312500 0.750000
vt 0.312500 0.500000
vt 0.343750 0.500000
vt 0.343750 0.750000
vt 0.375000 0.750000
vt 0.375000 0.500000
vt 0.406250 0.750000
vt 0.406250 0.500000
vt 0.437500 0.750000
vt 0.437500 0.500000
vt 0.468750 0.750000
vt 0.468750 0.500000
vt 0.500000 0.750000
vt 0.500000 0.500000
vt 0.531250 0.750000
vt 0.531250 0.500000
vt 0.218750 0.750000
s 1
g QE_pancake_133_x2_barrel_002_QE_pancake_133_x2_001.001_details_2
usemtl details_2
f 43/1/1 41/2/2 42/3/3
f 44/4/4 42/3/3 41/2/2
f 47/5/5 45/6/6 46/7/7
f 48/8/8 47/5/5 46/7/7
f 49/9/9 48/8/8 46/7/7
f 52/10/10 50/11/11 51/12/12
f 53/13/13 52/10/10 51/12/12
f 56/14/14 54/15/15 55/16/16
f 57/17/17 56/14/14 55/16/16
f 58/18/18 57/17/17 55/16/16
f 25/1/19 24/3/20 23/2/21
f 26/4/22 23/2/21 24/3/20
f 29/5/23 28/7/24 27/6/25
f 30/8/26 28/7/24 29/5/23
f 31/9/27 28/7/24 30/8/26
f 34/10/28 33/12/29 32/11/30
f 35/13/31 33/12/29 34/10/28
f 38/14/32 37/16/33 36/15/34
f 39/17/35 37/16/33 38/14/32
f 40/18/36 37/16/33 39/17/35
f 22/19/37 68/20/38 20/21/38
f 20/21/38 67/22/39 18/23/39
f 18/23/39 66/24/40 16/25/40
f 14/26/41 66/24/40 65/27/41
f 14/26/41 64/28/42 12/29/42
f 12/29/42 63/30/43 10/31/43
f 10/31/43 62/32/44 8/33/44
f 8/33/44 61/34/45 6/35/45
f 6/35/45 60/36/46 4/37/46
f 4/37/46 59/38/47 2/39/47
f 68/20/38 21/19/37 19/21/38
f 67/22/39 19/21/38 17/23/39
f 66/24/40 17/23/39 15/25/40
f 13/26/41 66/24/40 15/25/40
f 64/28/42 13/26/41 11/29/42
f 63/30/43 11/29/42 9/31/43
f 62/32/44 9/31/43 7/33/44
f 61/34/45 7/33/44 5/35/45
f 60/36/46 5/35/45 3/37/46
f 59/38/47 3/37/46 1/39/47
f 22/19/37 69/40/37 68/20/38
f 20/21/38 68/20/38 67/22/39
f 18/23/39 67/22/39 66/24/40
f 14/26/41 16/25/40 66/24/40
f 14/26/41 65/27/41 64/28/42
f 12/29/42 64/28/42 63/30/43
f 10/31/43 63/30/43 62/32/44
f 8/33/44 62/32/44 61/34/45
f 6/35/45 61/34/45 60/36/46
f 4/37/46 60/36/46 59/38/47
f 68/20/38 69/40/37 21/19/37
f 67/22/39 68/20/38 19/21/38
f 66/24/40 67/22/39 17/23/39
f 13/26/41 65/27/41 66/24/40
f 64/28/42 65/27/41 13/26/41
f 63/30/43 64/28/42 11/29/42
f 62/32/44 63/30/43 9/31/43
f 61/34/45 62/32/44 7/33/44
f 60/36/46 61/34/45 5/35/45
f 59/38/47 60/36/46 3/37/46
