# Blender 5.1.0
# www.blender.org
mtllib agm_gun_305_x2_2_agm_gun_305_x2_2.mtl
o agm_gun_305_x2_2_agm_gun_305_x2_2
v -3.413224 -0.030599 2.479869
v -4.012485 0.632058 1.303753
v -3.413219 0.632054 2.479869
v -4.012489 -0.030594 1.303753
v -4.218981 0.632057 0.000014
v -4.218986 -0.030595 0.000014
v -4.012496 0.632057 -1.303720
v -4.012500 -0.030597 -1.303719
v -3.413237 0.632050 -2.479842
v -3.413242 -0.030603 -2.479842
v -3.413219 0.632054 2.479869
v -2.479844 -0.030600 3.413239
v -3.413224 -0.030599 2.479869
v -2.479844 0.632054 3.413240
v -1.303723 -0.030600 4.012497
v -1.303723 0.632052 4.012497
v 0.000016 -0.030601 4.218984
v 0.000017 0.632052 4.218985
v 1.303753 -0.030602 4.012488
v 1.303753 0.632051 4.012489
v 2.479869 -0.030603 3.413221
v 2.479871 0.632049 3.413221
v 3.413238 -0.030604 2.479843
v 3.413243 0.632049 2.479843
v 3.413243 0.632049 2.479843
v 4.012496 -0.030611 1.303722
v 3.413238 -0.030604 2.479843
v 4.012501 0.632042 1.303721
v 4.218984 -0.030612 -0.000016
v 4.218987 0.632041 -0.000016
v 4.012487 -0.030613 -1.303753
v 4.012491 0.632040 -1.303753
v 3.413220 -0.030608 -2.479870
v 3.413225 0.632044 -2.479871
v 3.413225 0.632044 -2.479871
v 2.479843 -0.030608 -3.413240
v 3.413220 -0.030608 -2.479870
v 2.479843 0.632046 -3.413240
v 1.303721 -0.030607 -4.012498
v 1.303722 0.632046 -4.012497
v -0.000018 -0.030606 -4.218985
v -0.000017 0.632046 -4.218984
v -1.303755 -0.030606 -4.012487
v -1.303755 0.632047 -4.012487
v -2.479872 -0.030604 -3.413220
v -2.479872 0.632049 -3.413220
v -3.413242 -0.030603 -2.479842
v -3.413237 0.632050 -2.479842
v -2.479872 0.632049 -3.413220
v 1.303722 0.632046 -4.012497
v 2.479843 0.632046 -3.413240
v -1.303755 0.632047 -4.012487
v -0.000017 0.632046 -4.218984
v 0.000017 0.632052 4.218985
v -1.303723 0.632052 4.012497
v 1.303753 0.632051 4.012489
v 2.479871 0.632049 3.413221
v -2.479844 0.632054 3.413240
v 3.413243 0.632049 2.479843
v -3.413219 0.632054 2.479869
v 4.012501 0.632042 1.303721
v -4.012485 0.632058 1.303753
v 4.218987 0.632041 -0.000016
v -4.218981 0.632057 0.000014
v 4.012491 0.632040 -1.303753
v -4.012496 0.632057 -1.303720
v 3.413225 0.632044 -2.479871
v -3.413237 0.632050 -2.479842
v -4.218986 -0.030595 0.000014
v -0.000001 -0.030604 0.000000
v -4.012500 -0.030597 -1.303719
v -4.012489 -0.030594 1.303753
v -3.413242 -0.030603 -2.479842
v -3.413224 -0.030599 2.479869
v -2.479872 -0.030604 -3.413220
v -2.479844 -0.030600 3.413239
v -1.303755 -0.030606 -4.012487
v -1.303723 -0.030600 4.012497
v -0.000018 -0.030606 -4.218985
v 0.000016 -0.030601 4.218984
v 1.303721 -0.030607 -4.012498
v 1.303753 -0.030602 4.012488
v 2.479843 -0.030608 -3.413240
v 2.479869 -0.030603 3.413221
v 3.413220 -0.030608 -2.479870
v 3.413238 -0.030604 2.479843
v 4.012487 -0.030613 -1.303753
v 4.012496 -0.030611 1.303722
v 4.218984 -0.030612 -0.000016
vn -0.8090 -0.0000 0.5878
vn -0.9511 -0.0000 0.3090
vn -1.0000 -0.0000 -0.0000
vn -0.9511 -0.0000 -0.3090
vn -0.8090 -0.0000 -0.5878
vn -0.5878 -0.0000 0.8090
vn -0.3090 -0.0000 0.9511
vn -0.0000 -0.0000 1.0000
vn 0.3090 -0.0000 0.9511
vn 0.5878 -0.0000 0.8090
vn 0.8090 -0.0000 0.5878
vn 0.9511 -0.0000 0.3090
vn 1.0000 -0.0000 -0.0000
vn 0.9511 -0.0000 -0.3090
vn 0.8090 -0.0000 -0.5878
vn 0.8090 0.0001 -0.5878
vn 0.5878 -0.0000 -0.8090
vn 0.3090 -0.0000 -0.9511
vn -0.0000 -0.0000 -1.0000
vn -0.3090 -0.0000 -0.9511
vn -0.5878 -0.0000 -0.8090
vn -0.8090 -0.0001 -0.5878
vn -0.0000 1.0000 -0.0000
vn -0.0000 -1.0000 -0.0000
vt 0.253224 0.499311
vt 0.237307 0.499311
vt 0.253224 0.478364
vt 0.237307 0.478364
vt 0.219663 0.499311
vt 0.219663 0.478364
vt 0.202018 0.499311
vt 0.202018 0.478364
vt 0.186101 0.499311
vt 0.186101 0.478364
vt 0.460983 0.478364
vt 0.471653 0.478364
vt 0.460983 0.499311
vt 0.471653 0.499311
vt 0.485097 0.478364
vt 0.485097 0.499311
vt 0.500000 0.478364
vt 0.500000 0.499311
vt 0.514903 0.478364
vt 0.514903 0.499311
vt 0.528348 0.478364
vt 0.528348 0.499311
vt 0.539017 0.478364
vt 0.539017 0.499311
vt 0.746776 0.478364
vt 0.762693 0.478364
vt 0.746776 0.499311
vt 0.762693 0.499310
vt 0.780338 0.478364
vt 0.780338 0.499310
vt 0.797982 0.478364
vt 0.797982 0.499310
vt 0.813900 0.478364
vt 0.813900 0.499310
vt 0.460983 0.499310
vt 0.528347 0.478364
vt 0.528347 0.499311
vt 0.528347 0.826532
vt 0.514903 0.834642
vt 0.471653 0.826531
vt 0.485097 0.834642
vt 0.500000 0.837436
vt 0.514903 0.726033
vt 0.485097 0.726033
vt 0.500000 0.723239
vt 0.528348 0.734144
vt 0.471653 0.734143
vt 0.539017 0.746776
vt 0.460983 0.746776
vt 0.545867 0.762693
vt 0.454133 0.762693
vt 0.548228 0.780338
vt 0.451773 0.780337
vt 0.545867 0.797982
vt 0.454133 0.797982
vt 0.539017 0.813900
vt 0.460983 0.813899
vt 0.024946 0.654352
vt 0.500000 0.500000
vt 0.000500 0.499998
vt 0.024947 0.345644
vt 0.095894 0.793597
vt 0.095896 0.206400
vt 0.206399 0.904103
vt 0.206403 0.095895
vt 0.345644 0.975053
vt 0.345648 0.024946
vt 0.499998 0.999501
vt 0.500002 0.000500
vt 0.654352 0.975054
vt 0.654356 0.024947
vt 0.793598 0.904105
vt 0.793600 0.095897
vt 0.904103 0.793600
vt 0.904105 0.206402
vt 0.975053 0.654356
vt 0.975054 0.345648
vt 0.999501 0.500002
s 1
g agm_gun_305_x2_2_agm_gun_305_x2_2_steel_deck_1
usemtl steel_deck_1
f 51/38/23 50/39/23 49/40/23
f 52/41/23 49/40/23 50/39/23
f 53/42/23 52/41/23 50/39/23
f 56/43/23 55/44/23 54/45/23
f 56/43/23 57/46/23 55/44/23
f 58/47/23 55/44/23 57/46/23
f 57/46/23 59/48/23 58/47/23
f 60/49/23 58/47/23 59/48/23
f 59/48/23 61/50/23 60/49/23
f 62/51/23 60/49/23 61/50/23
f 61/50/23 63/52/23 62/51/23
f 64/53/23 62/51/23 63/52/23
f 63/52/23 65/54/23 64/53/23
f 66/55/23 64/53/23 65/54/23
f 65/54/23 67/56/23 66/55/23
f 68/57/23 66/55/23 67/56/23
f 68/57/23 67/56/23 49/40/23
f 51/38/23 49/40/23 67/56/23
f 71/58/24 70/59/24 69/60/24
f 69/60/24 70/59/24 72/61/24
f 73/62/24 70/59/24 71/58/24
f 72/61/24 70/59/24 74/63/24
f 75/64/24 70/59/24 73/62/24
f 74/63/24 70/59/24 76/65/24
f 77/66/24 70/59/24 75/64/24
f 76/65/24 70/59/24 78/67/24
f 79/68/24 70/59/24 77/66/24
f 78/67/24 70/59/24 80/69/24
f 81/70/24 70/59/24 79/68/24
f 80/69/24 70/59/24 82/71/24
f 83/72/24 70/59/24 81/70/24
f 82/71/24 70/59/24 84/73/24
f 85/74/24 70/59/24 83/72/24
f 84/73/24 70/59/24 86/75/24
f 87/76/24 70/59/24 85/74/24
f 86/75/24 70/59/24 88/77/24
f 89/78/24 70/59/24 87/76/24
f 88/77/24 70/59/24 89/78/24
g agm_gun_305_x2_2_agm_gun_305_x2_2_steel_4
usemtl steel_4
f 3/1/1 2/2/2 1/3/1
f 4/4/2 1/3/1 2/2/2
f 2/2/2 5/5/3 4/4/2
f 6/6/3 4/4/2 5/5/3
f 5/5/3 7/7/4 6/6/3
f 8/8/4 6/6/3 7/7/4
f 7/7/4 9/9/5 8/8/4
f 10/10/5 8/8/4 9/9/5
f 13/11/1 12/12/6 11/13/1
f 14/14/6 11/13/1 12/12/6
f 12/12/6 15/15/7 14/14/6
f 16/16/7 14/14/6 15/15/7
f 15/15/7 17/17/8 16/16/7
f 18/18/8 16/16/7 17/17/8
f 17/17/8 19/19/9 18/18/8
f 20/20/9 18/18/8 19/19/9
f 19/19/9 21/21/10 20/20/9
f 22/22/10 20/20/9 21/21/10
f 21/21/10 23/23/11 22/22/10
f 24/24/11 22/22/10 23/23/11
f 27/25/11 26/26/12 25/27/11
f 28/28/12 25/27/11 26/26/12
f 26/26/12 29/29/13 28/28/12
f 30/30/13 28/28/12 29/29/13
f 29/29/13 31/31/14 30/30/13
f 32/32/14 30/30/13 31/31/14
f 31/31/14 33/33/15 32/32/14
f 34/34/16 32/32/14 33/33/15
f 37/11/15 36/12/17 35/35/15
f 38/14/17 35/35/15 36/12/17
f 36/12/17 39/15/18 38/14/17
f 40/16/18 38/14/17 39/15/18
f 39/15/18 41/17/19 40/16/18
f 42/18/19 40/16/18 41/17/19
f 41/17/19 43/19/20 42/18/19
f 44/20/20 42/18/19 43/19/20
f 43/19/20 45/36/21 44/20/20
f 46/37/21 44/20/20 45/36/21
f 45/36/21 47/23/5 46/37/21
f 48/24/22 46/37/21 47/23/5
