# Blender 5.1.0
# www.blender.org
mtllib Dr_Deckhouse_Tribal_B1_001_8_Dr_Deckhouse_Tribal_B1_001_8.mtl
o Dr_Deckhouse_Tribal_B1_001_8_Dr_Deckhouse_Tribal_B1_001_8.001_Dr_Deckhouse_Tribal_B1_001_8_Dr_Deckhouse_Tribal_B1_001_8.007
v 1.080598 11.746968 4.871156
v -1.080650 11.822686 4.827425
v 1.080598 11.822686 4.827425
v -1.080650 11.746968 4.871156
v 1.080598 11.671241 4.827425
v -1.080650 11.671241 4.827425
v 1.080598 11.822686 4.827425
v -1.080650 11.822686 4.739989
v 1.080598 11.822686 4.740014
v -1.080650 11.822686 4.827425
v -1.080650 11.746965 4.696283
v 1.080598 11.822686 4.740014
v -1.080650 11.822686 4.739989
v 1.080598 11.746965 4.696283
v -1.080650 11.671241 4.739989
v 1.080598 11.671241 4.740014
v 1.080598 11.671241 4.740014
v -1.080650 11.671241 4.827425
v 1.080598 11.671241 4.827425
v -1.080650 11.671241 4.739989
v -0.056892 10.500792 5.133590
v 0.056815 10.500792 5.133590
v -0.113742 10.500792 5.035115
v -0.056892 10.500792 5.133590
v -0.056889 10.500792 4.936640
v 0.056815 10.500792 4.936640
v -0.056889 10.500792 4.936640
v 0.113665 10.500792 5.035115
v 0.056815 10.500792 4.936640
v 0.056815 10.500792 5.133590
v -0.074985 -0.000015 5.164918
v 0.074898 -0.000015 5.164918
v -0.149926 -0.000015 5.035115
v -0.074985 -0.000015 5.164918
v -0.074985 -0.000015 4.905312
v 0.074898 -0.000015 4.905312
v -0.074985 -0.000015 4.905312
v 0.149839 -0.000015 5.035090
v 0.074898 -0.000015 4.905312
v 0.074898 -0.000015 5.164918
v 1.876549 11.800547 4.752788
v 1.876549 11.746957 4.845607
v 1.876549 11.800547 4.814676
v 1.876549 11.746957 4.721857
v 1.876549 11.693372 4.814676
v 1.876549 11.693372 4.752788
v 1.876549 11.746957 4.845607
v 1.876549 11.800547 4.814676
v 1.876549 11.693372 4.814676
v 1.876549 11.800547 4.814676
v 1.876549 11.800547 4.752788
v 1.876549 11.800547 4.752788
v 1.876549 11.746957 4.721857
v 1.876549 11.693372 4.752788
v 1.876549 11.693372 4.752788
v 1.876549 11.693372 4.814676
v -1.876567 11.746957 4.845607
v -1.876567 11.800547 4.752788
v -1.876567 11.800547 4.814676
v -1.876567 11.746957 4.721857
v -1.876567 11.693372 4.814676
v -1.876567 11.693372 4.752788
v -1.876567 11.746957 4.845607
v -1.876567 11.800547 4.814676
v -1.876567 11.693372 4.814676
v -1.876567 11.800547 4.814676
v -1.876567 11.800547 4.752788
v -1.876567 11.800547 4.752788
v -1.876567 11.746957 4.721857
v -1.876567 11.693372 4.752788
v -1.876567 11.693372 4.752788
v -1.876567 11.693372 4.814676
vn -0.5000 0.0036 0.8660
vn -0.5000 0.0035 0.8660
vn 0.5000 0.0036 0.8660
vn 0.5000 0.0035 0.8660
vn -1.0000 0.0034 -0.0000
vn -0.5000 0.0034 -0.8660
vn -0.5000 0.0036 -0.8660
vn 0.5000 0.0036 -0.8660
vn 0.4999 0.0035 -0.8661
vn -0.5000 0.0035 -0.8660
vn 0.5000 0.0035 -0.8660
vn 1.0000 0.0034 -0.0001
vn 1.0000 0.0034 -0.0000
vn 0.5000 0.0034 0.8660
vn 1.0000 -0.0000 -0.0000
vn 0.0321 0.8655 0.4998
vn 0.0160 0.8659 0.4999
vn 0.0321 -0.0000 0.9995
vn 0.0159 -0.0000 0.9999
vn 0.0321 -0.8656 0.4998
vn 0.0159 -0.8660 0.4999
vn 0.0321 0.8655 -0.4998
vn 0.0160 0.8659 -0.4999
vn 0.0321 0.8656 -0.4998
vn 0.0160 -0.0000 -0.9999
vn 0.0321 -0.0000 -0.9995
vn 0.0160 -0.8660 -0.4999
vn 0.0321 -0.8656 -0.4998
vn 0.0321 -0.8655 0.4998
vn 0.0159 -0.8659 0.4999
vn 0.0321 -0.8655 -0.4998
vn 0.0160 -0.8659 -0.4999
vn -1.0000 -0.0000 -0.0000
vn -0.0321 0.8655 0.4998
vn -0.0321 -0.0000 0.9995
vn -0.0160 0.8659 0.4999
vn -0.0159 -0.0000 0.9999
vn -0.0321 -0.8656 0.4998
vn -0.0159 -0.8659 0.4999
vn -0.0159 0.8659 0.4999
vn -0.0160 0.8659 -0.5000
vn -0.0321 0.8655 -0.4998
vn -0.0160 -0.0000 -0.9999
vn -0.0321 0.8656 -0.4998
vn -0.0321 -0.0000 -0.9995
vn -0.0160 -0.8659 -0.5000
vn -0.0321 -0.8655 -0.4998
vn -0.0321 -0.8655 0.4998
vt 0.499130 0.419647
vt 0.498856 0.260295
vt 0.500853 0.419647
vt 0.501127 0.260295
vt 2.676124 0.260295
vt 2.675651 0.419647
vt 2.674164 0.260295
vt 2.674164 0.419647
vt 2.672204 0.260295
vt 2.672677 0.419647
vt 0.499147 0.419647
vt 0.498873 0.260295
vt 0.500870 0.419647
vt 0.501144 0.260295
vt -1.672204 0.260295
vt -1.672677 0.419647
vt -1.674164 0.260295
vt -1.674164 0.419647
vt -1.676124 0.260295
vt -1.675651 0.419647
vt -1.670835 0.439371
vt -1.671303 0.438557
vt -1.669901 0.439371
vt -1.669434 0.438557
vt -1.670835 0.437744
vt -1.669901 0.437744
vt 0.528425 0.439371
vt 0.516365 0.439707
vt 0.528425 0.438557
vt 0.516365 0.438557
vt 0.528425 0.437744
vt 0.516365 0.437408
vt 0.471575 2.669901
vt 0.483635 2.669708
vt 0.471575 2.670835
vt 0.483635 2.671028
vt 0.483635 0.439707
vt 0.471575 0.439371
vt 0.483635 0.438557
vt 0.471575 0.438557
vt 0.483635 0.437408
vt 0.471575 0.437744
vt 0.528425 2.670835
vt 0.516365 2.671028
vt 0.528425 2.669901
vt 0.516365 2.669708
vt 2.670835 0.439371
vt 2.669901 0.439371
vt 2.671303 0.438557
vt 2.669434 0.438557
vt 2.670835 0.437744
vt 2.669901 0.437744
vt 0.471559 0.439371
vt 0.471559 0.438557
vt 0.483618 0.439707
vt 0.483618 0.438557
vt 0.471559 0.437744
vt 0.483618 0.437408
vt 0.516382 2.671028
vt 0.516382 2.669708
vt 0.528441 2.670835
vt 0.528441 2.669901
vt 0.516382 0.439707
vt 0.516382 0.438557
vt 0.528441 0.439371
vt 0.528441 0.438557
vt 0.516382 0.437408
vt 0.528441 0.437744
vt 0.483618 2.669708
vt 0.483618 2.671028
vt 0.471559 2.669901
vt 0.471559 2.670835
s 1
g Dr_Deckhouse_Tribal_B1_001_8_Dr_Deckhouse_Tribal_B1_001_8.001_Dr_Deckhouse_Tribal_B1_001_8_Dr_Deckhouse_Tribal_B1_001_8.007_steel_4
usemtl steel_4
f 21/1/1 31/2/2 22/3/3
f 32/4/4 22/3/3 31/2/2
f 34/5/2 24/6/1 33/7/5
f 23/8/5 33/7/5 24/6/1
f 33/7/5 23/8/5 35/9/6
f 25/10/7 35/9/6 23/8/5
f 26/11/8 36/12/9 27/13/7
f 37/14/10 27/13/7 36/12/9
f 39/15/9 29/16/11 38/17/12
f 28/18/13 38/17/12 29/16/11
f 38/17/12 28/18/13 40/19/14
f 30/20/3 40/19/14 28/18/13
f 43/21/15 42/22/15 41/23/15
f 44/24/15 41/23/15 42/22/15
f 42/22/15 45/25/15 44/24/15
f 46/26/15 44/24/15 45/25/15
f 48/27/16 3/28/17 47/29/18
f 1/30/19 47/29/18 3/28/17
f 47/29/18 1/30/19 49/31/20
f 5/32/21 49/31/20 1/30/19
f 51/33/22 9/34/23 50/35/16
f 7/36/17 50/35/16 9/34/23
f 12/37/23 52/38/24 14/39/25
f 53/40/26 14/39/25 52/38/24
f 14/39/25 53/40/26 16/41/27
f 54/42/28 16/41/27 53/40/26
f 56/43/29 19/44/30 55/45/31
f 17/46/32 55/45/31 19/44/30
f 59/47/33 58/48/33 57/49/33
f 60/50/33 57/49/33 58/48/33
f 57/49/33 60/50/33 61/51/33
f 62/52/33 61/51/33 60/50/33
f 64/53/34 63/54/35 2/55/36
f 4/56/37 2/55/36 63/54/35
f 63/54/35 65/57/38 4/56/37
f 6/58/39 4/56/37 65/57/38
f 10/59/40 8/60/41 66/61/34
f 67/62/42 66/61/34 8/60/41
f 13/63/41 11/64/43 68/65/44
f 69/66/45 68/65/44 11/64/43
f 11/64/43 15/67/46 69/66/45
f 70/68/47 69/66/45 15/67/46
f 20/69/46 18/70/39 71/71/47
f 72/72/48 71/71/47 18/70/39
