# Blender 5.1.0
# www.blender.org
mtllib Dr_Deckhouse_Tribal_B1_001_7_Dr_Deckhouse_Tribal_B1_001_7.mtl
o Dr_Deckhouse_Tribal_B1_001_7_Dr_Deckhouse_Tribal_B1_001_7.001_Dr_Deckhouse_Tribal_B1_001_7_Dr_Deckhouse_Tribal_B1_001_7.007
v 2.491987 2.853608 14.407183
v 2.779145 2.853608 14.120217
v 1.734148 2.853608 14.883358
v 0.889371 2.853608 15.178980
v 0.000000 2.853608 15.279191
v -2.491987 2.853608 14.407183
v -2.779145 2.853608 14.120217
v -1.734148 2.853608 14.883358
v -0.889371 2.853608 15.178980
v 2.491922 2.853609 8.157468
v 2.778370 2.853608 8.444508
v 1.734142 2.853609 7.681317
v 0.889378 2.853609 7.385695
v 0.000000 2.853609 7.285533
v -2.491922 2.853609 8.157468
v -2.778370 2.853608 8.444508
v -1.734142 2.853609 7.681317
v 0.000000 2.853611 11.282412
v 3.125486 2.853611 8.790434
v 3.600983 2.853611 9.548167
v -0.889378 2.853609 7.385695
v 3.896586 2.853611 10.392965
v 3.996801 2.853611 11.282337
v 3.896590 2.853611 12.171660
v -3.125486 2.853611 8.790434
v 3.600986 2.853611 13.016558
v -3.600983 2.853611 9.548167
v 3.125440 2.853611 13.774291
v -3.896586 2.853611 10.392965
v -3.996801 2.853611 11.282337
v -3.896590 2.853611 12.171660
v -3.600986 2.853611 13.016558
v -3.125440 2.853611 13.774291
vn -0.0000 1.0000 -0.0000
vt 0.500008 2.734212
vt 0.500008 2.794565
vt 0.486532 2.735724
vt 0.473733 2.740188
vt 0.457911 2.751712
vt 0.452652 2.756936
vt 0.462251 2.747378
vt 0.445447 2.768378
vt 0.440968 2.781134
vt 0.439450 2.794564
vt 0.440968 2.807992
vt 0.445447 2.820750
vt 0.452652 2.832192
vt 0.457900 2.837415
vt 0.462250 2.841748
vt 0.473733 2.848939
vt 0.500009 2.854916
vt 0.486533 2.853403
s 1
g Dr_Deckhouse_Tribal_B1_001_7_Dr_Deckhouse_Tribal_B1_001_7.001_Dr_Deckhouse_Tribal_B1_001_7_Dr_Deckhouse_Tribal_B1_001_7.007_wood_deck_1
usemtl wood_deck_1
f 14/1/1 18/2/1 13/3/1
f 13/3/1 18/2/1 12/4/1
f 16/5/1 25/6/1 18/2/1
f 12/4/1 18/2/1 10/7/1
f 25/6/1 27/8/1 18/2/1
f 10/7/1 18/2/1 11/5/1
f 27/8/1 29/9/1 18/2/1
f 11/5/1 18/2/1 19/6/1
f 29/9/1 30/10/1 18/2/1
f 19/6/1 18/2/1 20/8/1
f 18/2/1 30/10/1 31/11/1
f 20/8/1 18/2/1 22/9/1
f 32/12/1 18/2/1 31/11/1
f 22/9/1 18/2/1 23/10/1
f 33/13/1 18/2/1 32/12/1
f 18/2/1 24/11/1 23/10/1
f 7/14/1 18/2/1 33/13/1
f 26/12/1 24/11/1 18/2/1
f 6/15/1 18/2/1 7/14/1
f 28/13/1 26/12/1 18/2/1
f 8/16/1 18/2/1 6/15/1
f 2/14/1 28/13/1 18/2/1
f 5/17/1 18/2/1 9/18/1
f 1/15/1 2/14/1 18/2/1
f 9/18/1 18/2/1 8/16/1
f 3/16/1 1/15/1 18/2/1
f 15/7/1 16/5/1 18/2/1
f 4/18/1 3/16/1 18/2/1
f 17/4/1 15/7/1 18/2/1
f 5/17/1 4/18/1 18/2/1
f 21/3/1 17/4/1 18/2/1
f 14/1/1 21/3/1 18/2/1
