# Blender 5.1.0
# www.blender.org
mtllib Dido_gun_cal133_x2_001_Dido_gun_cal133_x2_001_Material_Material.mtl
o Dido_gun_cal133_x2_001_Dido_gun_cal133_x2_001_Material_Material
v -1.748224 0.294551 0.568030
v -1.748224 0.000000 0.568030
v -1.838191 0.294551 -0.000000
v -1.838191 0.000000 -0.000000
v -1.748223 0.294551 -0.568032
v -1.748223 -0.000000 -0.568032
v -1.487127 0.294551 -1.080461
v -1.080463 0.000000 1.487126
v -1.487129 0.294551 1.080459
v -1.487129 0.000000 1.080459
v -1.080463 0.294551 1.487126
v -0.568034 0.000000 1.748222
v -0.000000 0.000000 1.838191
v -0.000000 0.294551 1.838191
v -0.568034 0.294551 1.748222
v -0.568032 -0.000000 -1.748223
v -0.568032 0.294551 -1.748223
v -1.080461 -0.000000 -1.487127
v -1.080461 0.294551 -1.487127
v -1.487127 -0.000000 -1.080461
v 0.000000 -0.000000 -1.838191
v 0.000000 0.294551 -1.838191
v 1.748224 0.294551 0.568030
v 1.487129 0.000000 1.080459
v 1.487129 0.294551 1.080459
v 1.748224 0.000000 0.568030
v 1.838191 0.294551 0.000000
v 1.838191 0.000000 0.000000
v 1.748223 0.294551 -0.568032
v 1.748223 -0.000000 -0.568032
v 1.487127 0.294551 -1.080461
v 1.080463 0.000000 1.487126
v 1.080463 0.294551 1.487126
v 0.568034 0.000000 1.748222
v 0.568034 0.294551 1.748222
v 0.568032 -0.000000 -1.748223
v 0.568032 0.294551 -1.748223
v 1.080461 -0.000000 -1.487127
v 1.080461 0.294551 -1.487127
v 1.487127 -0.000000 -1.080461
v -0.000000 1.974500 2.530000
v -0.000000 1.974500 2.507150
vn 0.8090 -0.0000 -0.5878
vn 0.9511 -0.0000 -0.3090
vn 1.0000 -0.0000 -0.0000
vn 0.9511 -0.0000 0.3090
vn 0.8090 -0.0000 0.5878
vn -0.9511 -0.0000 -0.3090
vn -0.8090 -0.0000 -0.5878
vn -1.0000 -0.0000 -0.0000
vn -0.9511 -0.0000 0.3090
vn -0.8090 -0.0000 0.5878
vn 0.5878 -0.0000 0.8090
vn 0.3090 -0.0000 0.9511
vn -0.0000 -0.0000 1.0000
vn -0.3090 -0.0000 0.9511
vn -0.5878 -0.0000 0.8090
vn 0.3090 -0.0000 -0.9511
vn -0.0000 -0.0000 -1.0000
vn -0.3090 -0.0000 -0.9511
vn -0.5878 -0.0000 -0.8090
vn 0.5878 -0.0000 -0.8090
vt 0.000000 0.000000
s 1
g Dido_gun_cal133_x2_001_Dido_gun_cal133_x2_001_Material_Material_details_3
usemtl details_3
f 31/1/1 29/1/2 30/1/2
f 29/1/2 28/1/3 30/1/2
f 28/1/3 29/1/2 27/1/3
f 27/1/3 26/1/4 28/1/3
f 26/1/4 27/1/3 23/1/4
f 26/1/4 23/1/4 24/1/5
f 24/1/5 23/1/4 25/1/5
f 31/1/1 30/1/2 40/1/1
f 6/1/6 5/1/6 7/1/7
f 5/1/6 6/1/6 4/1/8
f 4/1/8 3/1/8 5/1/6
f 3/1/8 4/1/8 2/1/9
f 2/1/9 1/1/9 3/1/8
f 2/1/9 10/1/10 1/1/9
f 10/1/10 9/1/10 1/1/9
f 7/1/7 20/1/7 6/1/6
f 24/1/5 25/1/5 32/1/11
f 25/1/5 33/1/11 32/1/11
f 33/1/11 34/1/12 32/1/11
f 34/1/12 33/1/11 35/1/12
f 34/1/12 35/1/12 13/1/13
f 35/1/12 14/1/13 13/1/13
f 14/1/13 15/1/14 13/1/13
f 13/1/13 15/1/14 12/1/14
f 12/1/14 15/1/14 11/1/15
f 11/1/15 8/1/15 12/1/14
f 11/1/15 9/1/10 8/1/15
f 9/1/10 10/1/10 8/1/15
f 37/1/16 36/1/16 22/1/17
f 22/1/17 36/1/16 21/1/17
f 21/1/17 16/1/18 22/1/17
f 22/1/17 16/1/18 17/1/18
f 17/1/18 16/1/18 18/1/19
f 18/1/19 19/1/19 17/1/18
f 19/1/19 18/1/19 20/1/7
f 20/1/7 7/1/7 19/1/19
f 37/1/16 38/1/20 36/1/16
f 38/1/20 37/1/16 39/1/20
f 39/1/20 40/1/1 38/1/20
f 40/1/1 39/1/20 31/1/1
l 41 42
