# Blender 5.1.0
# www.blender.org
mtllib DidoX_gun_cal133_x2_barrel_001_1.mtl
o DidoX_gun_cal133_x2_barrel_001_1
v 1.163637 5.081561 0.132996
v 1.162614 3.609834 0.000026
v 1.242627 5.081561 0.107326
v 1.084644 5.081561 0.107326
v 1.242627 5.081561 0.107326
v 1.162614 3.609834 0.000026
v 1.291447 5.081565 0.040132
v 1.291447 5.081565 -0.042923
v 1.242627 5.081565 -0.110116
v 1.242627 5.081565 -0.110116
v 1.162614 3.609834 0.000026
v 1.163637 5.081563 -0.135784
v 1.084646 5.081563 -0.110116
v 1.084646 5.081563 -0.110116
v 1.162614 3.609834 0.000026
v 1.035826 5.081560 -0.042923
v 1.035826 5.081560 0.040133
v 1.084644 5.081561 0.107326
v -1.161634 5.081561 0.132995
v -1.162656 4.090012 0.000025
v -1.082644 5.081561 0.107326
v -1.240626 5.081561 0.107326
v -1.082644 5.081561 0.107326
v -1.162656 4.090012 0.000025
v -1.033823 5.081565 0.040131
v -1.033823 5.081565 -0.042924
v -1.082644 5.081565 -0.110117
v -1.082644 5.081565 -0.110117
v -1.162656 4.090012 0.000025
v -1.161634 5.081563 -0.135785
v -1.240625 5.081563 -0.110117
v -1.240625 5.081563 -0.110117
v -1.162656 4.090012 0.000025
v -1.289445 5.081560 -0.042924
v -1.289445 5.081560 0.040132
v -1.240626 5.081561 0.107326
v -1.603180 0.308032 0.533529
v 1.612007 -0.000001 0.616067
v -1.603180 -0.000001 0.616067
v 1.612007 0.308032 0.533529
v -1.603180 0.533527 0.308033
v 1.612007 0.308032 0.533529
v -1.603180 0.308032 0.533529
v 1.612007 0.533527 0.308033
v -1.603180 0.616065 0.000000
v 1.612007 0.616065 0.000000
v -1.603180 0.533527 -0.308033
v 1.612007 0.533527 -0.308032
v -1.603180 0.308031 -0.533528
v 1.612007 0.308031 -0.533528
v -1.603180 -0.000002 -0.616065
v 1.612007 0.308031 -0.533528
v -1.603180 0.308031 -0.533528
v 1.612007 -0.000002 -0.616065
v -1.603180 -0.308035 -0.533528
v 1.612007 -0.308035 -0.533528
vn -0.5855 0.0906 -0.8056
vn 0.0005 1.0000 -0.0008
vn -0.0001 0.0900 -0.9959
vn 0.5854 0.0898 -0.8058
vn -0.9472 0.0913 -0.3075
vn 0.0006 1.0000 -0.0008
vn -0.5856 0.0906 -0.8055
vn -0.9470 0.0919 0.3078
vn -0.5853 0.0921 0.8055
vn -0.0001 0.0919 0.9958
vn 0.0006 1.0000 -0.0009
vn -0.5853 0.0921 0.8056
vn 0.5851 0.0913 0.8058
vn 0.9471 0.0906 0.3080
vn 0.0005 1.0000 -0.0009
vn 0.5852 0.0913 0.8057
vn 0.9472 0.0900 -0.3076
vn 0.5855 0.0898 -0.8057
vn -0.5827 0.1338 -0.8016
vn 0.0010 1.0000 -0.0014
vn -0.0002 0.1329 -0.9911
vn 0.5826 0.1326 -0.8019
vn -0.9425 0.1348 -0.3059
vn -0.5828 0.1338 -0.8015
vn -0.9422 0.1357 0.3064
vn -0.5824 0.1360 0.8015
vn -0.0002 0.1357 0.9907
vn -0.5823 0.1360 0.8015
vn 0.5821 0.1348 0.8018
vn 0.9424 0.1338 0.3065
vn 0.5822 0.1348 0.8018
vn 0.9427 0.1329 -0.3061
vn 0.5826 0.1326 -0.8018
vn -0.0000 0.2588 0.9659
vn -0.0000 0.5000 0.8661
vn -0.0000 0.5000 0.8660
vn -0.0000 0.8660 0.5000
vn -0.0000 1.0000 -0.0000
vn -0.0000 0.8660 -0.5000
vn -0.0000 0.5000 -0.8660
vn -0.0000 0.5000 -0.8661
vn -0.0000 -0.0000 -1.0000
vn -0.0000 -0.2588 -0.9659
vt 0.821531 4.424490
vt 0.820319 4.446862
vt 0.820335 4.424490
vt 0.819139 4.424490
vt 4.424490 0.529593
vt 4.446862 0.528986
vt 4.424490 0.530611
vt 4.424490 0.528335
vt 4.424490 0.527317
vt 0.179665 4.424490
vt 0.179681 4.446862
vt 0.178469 4.424490
vt 0.180861 4.424490
vt -3.424490 0.528335
vt -3.446862 0.528986
vt -3.424490 0.527317
vt -3.424490 0.529593
vt -3.424490 0.530611
vt 0.786335 4.424490
vt 0.785124 4.439563
vt 0.785139 4.424490
vt 0.783944 4.424490
vt 4.439563 0.528986
vt 0.214861 4.424490
vt 0.214876 4.439563
vt 0.213665 4.424490
vt 0.216056 4.424490
vt -3.439563 0.528986
vt 0.221544 4.501735
vt 0.172878 4.501735
vt 0.221544 4.497052
vt 0.172878 4.497052
vt 0.221544 0.537069
vt 0.172878 0.537069
vt 0.221544 0.533652
vt 0.172878 0.533652
vt 0.221544 0.528985
vt 0.172878 0.528985
vt 0.221544 0.524318
vt 0.172878 0.524318
vt 0.221544 0.520901
vt 0.172878 0.520901
vt 0.778456 4.497052
vt 0.827122 4.497052
vt 0.778456 4.501735
vt 0.827122 4.501735
vt 0.778456 4.506417
vt 0.827122 4.506417
s 1
g DidoX_gun_cal133_x2_barrel_001_1_details_2
usemtl details_2
f 3/1/1 2/2/2 1/3/3
f 4/4/4 1/3/3 2/2/2
f 7/5/5 6/6/6 5/7/7
f 8/8/8 6/6/6 7/5/5
f 9/9/9 6/6/6 8/8/8
f 12/10/10 11/11/11 10/12/12
f 13/13/13 11/11/11 12/10/10
f 16/14/14 15/15/15 14/16/16
f 17/17/17 15/15/15 16/14/14
f 18/18/18 15/15/15 17/17/17
f 21/19/19 20/20/20 19/21/21
f 22/22/22 19/21/21 20/20/20
f 25/5/23 24/23/20 23/7/24
f 26/8/25 24/23/20 25/5/23
f 27/9/26 24/23/20 26/8/25
f 30/24/27 29/25/20 28/26/28
f 31/27/29 29/25/20 30/24/27
f 34/14/30 33/28/20 32/16/31
f 35/17/32 33/28/20 34/14/30
f 36/18/33 33/28/20 35/17/32
f 39/29/34 38/30/34 37/31/35
f 40/32/35 37/31/35 38/30/34
f 43/33/36 42/34/36 41/35/37
f 44/36/37 41/35/37 42/34/36
f 41/35/37 44/36/37 45/37/38
f 46/38/38 45/37/38 44/36/37
f 45/37/38 46/38/38 47/39/39
f 48/40/39 47/39/39 46/38/38
f 47/39/39 48/40/39 49/41/40
f 50/42/40 49/41/40 48/40/39
f 53/43/41 52/44/41 51/45/42
f 54/46/42 51/45/42 52/44/41
f 51/45/42 54/46/42 55/47/43
f 56/48/43 55/47/43 54/46/42
