# Blender 5.1.0
# www.blender.org
mtllib DidoX_gun_cal133_x2_barrel_001_2.mtl
o DidoX_gun_cal133_x2_barrel_001_2
v 1.306485 2.324473 0.197994
v 1.162635 2.583477 -0.000002
v 1.395391 2.324473 0.075625
v 1.395391 2.324473 -0.075629
v 1.306486 2.324473 -0.197996
v 1.018784 2.324473 -0.197996
v 0.929878 2.324473 -0.075629
v 0.929878 2.324473 0.075624
v 1.018783 2.324473 0.197994
v 1.395391 2.324473 0.075625
v 1.162635 2.583477 -0.000002
v 1.395391 2.324473 -0.075629
v 0.929878 2.324473 -0.075629
v 1.162635 2.583477 -0.000002
v 0.929878 2.324473 0.075624
v -1.018785 2.324473 0.197994
v -1.162635 2.583477 -0.000003
v -0.929879 2.324474 0.075625
v -0.929879 2.324473 -0.075630
v -1.018784 2.324473 -0.197996
v -1.306486 2.324473 -0.197996
v -1.395393 2.324473 -0.075630
v -1.395392 2.324474 0.075624
v -1.306487 2.324473 0.197994
v -0.929879 2.324474 0.075625
v -1.162635 2.583477 -0.000003
v -0.929879 2.324473 -0.075630
v -1.395393 2.324473 -0.075630
v -1.162635 2.583477 -0.000003
v -1.395392 2.324474 0.075624
v 1.162513 4.831184 0.188017
v 1.295445 5.053304 0.183137
v 1.272935 4.831184 0.152141
v 1.162504 5.053304 0.226334
v 1.052089 4.831184 0.152137
v 1.029564 5.053304 0.183137
v 1.377605 5.053304 0.070053
v 1.272935 4.831184 0.152141
v 1.295445 5.053304 0.183137
v 1.341182 4.831183 0.058206
v 1.377605 5.053304 -0.069728
v 1.341182 4.831183 -0.057903
v 1.295445 5.053304 -0.182814
v 1.272936 4.831183 -0.151831
v 1.162505 5.053304 -0.226009
v 1.272936 4.831183 -0.151831
v 1.295445 5.053304 -0.182814
v 1.162513 4.831184 -0.187711
v 1.029568 5.053304 -0.182814
v 1.052090 4.831183 -0.151832
v 0.947404 5.053304 -0.069728
v 1.052090 4.831183 -0.151832
v 1.029568 5.053304 -0.182814
v 0.983844 4.831183 -0.057903
v 0.947404 5.053304 0.070053
v 0.983844 4.831183 0.058206
v 1.029564 5.053304 0.183137
v 1.052089 4.831184 0.152137
v 1.306486 2.324473 -0.197996
v 1.162635 2.583477 -0.000002
v 1.162635 2.324473 -0.244736
v 1.018784 2.324473 -0.197996
v 1.018783 2.324473 0.197994
v 1.162635 2.583477 -0.000002
v 1.162633 2.324473 0.244736
v 1.306485 2.324473 0.197994
v 1.456745 1.428121 0.095561
v 1.344403 -0.381297 0.250186
v 1.344403 1.428121 0.250185
v 1.456745 -0.381297 0.095562
v 1.456745 1.428121 -0.095565
v 1.456745 -0.381297 -0.095563
v 1.344405 1.428121 -0.250187
v 1.344405 -0.381297 -0.250186
v 1.162635 1.428121 -0.309249
v 1.344405 -0.381297 -0.250186
v 1.344405 1.428121 -0.250187
v 1.162635 -0.381297 -0.309248
v 0.980865 1.428121 -0.250187
v 0.980865 -0.381297 -0.250186
v 0.868523 1.428121 -0.095565
v 0.980865 -0.381297 -0.250186
v 0.980865 1.428121 -0.250187
v 0.868523 -0.381297 -0.095563
v 0.868523 1.428121 0.095560
v 0.868523 -0.381297 0.095561
v 0.980864 1.428121 0.250185
v 0.980864 -0.381297 0.250186
v 1.162633 1.428121 0.309248
v 0.980864 -0.381297 0.250186
v 0.980864 1.428121 0.250185
v 1.162633 -0.381297 0.309249
v 1.344403 1.428121 0.250185
v 1.344403 -0.381297 0.250186
v 1.162513 1.930165 0.188019
v 1.272935 4.831184 0.152141
v 1.272935 1.930165 0.152143
v 1.162513 4.831184 0.188017
v 1.052089 1.930165 0.152139
v 1.052089 4.831184 0.152137
v 1.341182 4.831183 0.058206
v 1.272935 1.930165 0.152143
v 1.272935 4.831184 0.152141
v 1.341182 1.930165 0.058208
v 1.341182 4.831183 -0.057903
v 1.341182 1.930165 -0.057901
v 1.272936 4.831183 -0.151831
v 1.272936 1.930165 -0.151829
v 1.162513 4.831184 -0.187711
v 1.272936 1.930165 -0.151829
v 1.272936 4.831183 -0.151831
v 1.162513 1.930165 -0.187708
v 1.052090 4.831183 -0.151832
v 1.052090 1.930165 -0.151830
v 0.983844 4.831183 -0.057903
v 1.052090 1.930165 -0.151830
v 1.052090 4.831183 -0.151832
v 0.983844 1.930165 -0.057901
v 0.983844 4.831183 0.058206
v 0.983844 1.930165 0.058208
v 1.052089 4.831184 0.152137
v 1.052089 1.930165 0.152139
v 1.395391 2.324473 0.075625
v 1.306485 0.149848 0.197996
v 1.306485 2.324473 0.197994
v 1.395391 0.149848 0.075627
v 1.395391 2.324473 -0.075629
v 1.395391 0.149848 -0.075628
v 1.306486 2.324473 -0.197996
v 1.306486 0.149847 -0.197995
v 1.162635 2.324473 -0.244736
v 1.306486 0.149847 -0.197995
v 1.306486 2.324473 -0.197996
v 1.162635 0.149847 -0.244735
v 1.018784 2.324473 -0.197996
v 1.018784 0.149847 -0.197995
v 0.929878 2.324473 -0.075629
v 1.018784 0.149847 -0.197995
v 1.018784 2.324473 -0.197996
v 0.929877 0.149848 -0.075628
v 0.929878 2.324473 0.075624
v 0.929878 0.149848 0.075625
v 1.018783 2.324473 0.197994
v 1.018783 0.149848 0.197996
v 1.162633 2.324473 0.244736
v 1.018783 0.149848 0.197996
v 1.018783 2.324473 0.197994
v 1.162633 0.149848 0.244737
v 1.306485 2.324473 0.197994
v 1.306485 0.149848 0.197996
v -1.162758 4.831184 0.188016
v -1.029826 5.053304 0.183136
v -1.052335 4.831184 0.152140
v -1.162766 5.053304 0.226333
v -1.273182 4.831184 0.152137
v -1.295706 5.053304 0.183136
v -0.947666 5.053304 0.070052
v -1.052335 4.831184 0.152140
v -1.029826 5.053304 0.183136
v -0.984088 4.831184 0.058205
v -0.947666 5.053304 -0.069728
v -0.984088 4.831184 -0.057904
v -1.029826 5.053304 -0.182815
v -1.052335 4.831184 -0.151832
v -1.162766 5.053304 -0.226010
v -1.052335 4.831184 -0.151832
v -1.029826 5.053304 -0.182815
v -1.162758 4.831184 -0.187711
v -1.295702 5.053304 -0.182815
v -1.273180 4.831184 -0.151833
v -1.377867 5.053304 -0.069728
v -1.273180 4.831184 -0.151833
v -1.295702 5.053304 -0.182815
v -1.341426 4.831184 -0.057904
v -1.377867 5.053304 0.070052
v -1.341426 4.831184 0.058205
v -1.295706 5.053304 0.183136
v -1.273182 4.831184 0.152137
v -1.018784 2.324473 -0.197996
v -1.162635 2.583477 -0.000003
v -1.162635 2.324473 -0.244737
v -1.306486 2.324473 -0.197996
v -1.306487 2.324473 0.197994
v -1.162635 2.583477 -0.000003
v -1.162637 2.324473 0.244735
v -1.018785 2.324473 0.197994
v -0.868525 1.428122 0.095561
v -0.980867 -0.381296 0.250186
v -0.980867 1.428121 0.250184
v -0.868525 -0.381296 0.095562
v -0.868525 1.428121 -0.095565
v -0.868525 -0.381297 -0.095564
v -0.980865 1.428121 -0.250188
v -0.980865 -0.381297 -0.250186
v -1.162635 1.428121 -0.309249
v -0.980865 -0.381297 -0.250186
v -0.980865 1.428121 -0.250188
v -1.162635 -0.381297 -0.309248
v -1.344405 1.428121 -0.250188
v -1.344405 -0.381297 -0.250186
v -1.456747 1.428122 -0.095565
v -1.344405 -0.381297 -0.250186
v -1.344405 1.428121 -0.250188
v -1.456747 -0.381297 -0.095564
v -1.456746 1.428122 0.095559
v -1.456746 -0.381296 0.095561
v -1.344406 1.428121 0.250184
v -1.344406 -0.381296 0.250186
v -1.162637 1.428121 0.309248
v -1.344406 -0.381296 0.250186
v -1.344406 1.428121 0.250184
v -1.162637 -0.381296 0.309249
v -0.980867 1.428121 0.250184
v -0.980867 -0.381296 0.250186
v -1.162757 1.930166 0.188018
v -1.052335 4.831184 0.152140
v -1.052336 1.930166 0.152142
v -1.162758 4.831184 0.188016
v -1.273182 1.930166 0.152139
v -1.273182 4.831184 0.152137
v -0.984088 4.831184 0.058205
v -1.052336 1.930166 0.152142
v -1.052335 4.831184 0.152140
v -0.984088 1.930166 0.058207
v -0.984088 4.831184 -0.057904
v -0.984088 1.930165 -0.057902
v -1.052335 4.831184 -0.151832
v -1.052335 1.930165 -0.151829
v -1.162758 4.831184 -0.187711
v -1.052335 1.930165 -0.151829
v -1.052335 4.831184 -0.151832
v -1.162757 1.930165 -0.187708
v -1.273180 4.831184 -0.151833
v -1.273181 1.930165 -0.151830
v -1.341426 4.831184 -0.057904
v -1.273181 1.930165 -0.151830
v -1.273180 4.831184 -0.151833
v -1.341426 1.930165 -0.057902
v -1.341426 4.831184 0.058205
v -1.341426 1.930166 0.058207
v -1.273182 4.831184 0.152137
v -1.273182 1.930166 0.152139
v -0.929879 2.324474 0.075625
v -1.018785 0.149848 0.197996
v -1.018785 2.324473 0.197994
v -0.929879 0.149848 0.075626
v -0.929879 2.324473 -0.075630
v -0.929879 0.149848 -0.075628
v -1.018784 2.324473 -0.197996
v -1.018784 0.149847 -0.197995
v -1.162635 2.324473 -0.244737
v -1.018784 0.149847 -0.197995
v -1.018784 2.324473 -0.197996
v -1.162635 0.149847 -0.244736
v -1.306486 2.324473 -0.197996
v -1.306487 0.149847 -0.197995
v -1.395393 2.324473 -0.075630
v -1.306487 0.149847 -0.197995
v -1.306486 2.324473 -0.197996
v -1.395393 0.149848 -0.075628
v -1.395392 2.324474 0.075624
v -1.395392 0.149848 0.075625
v -1.306487 2.324473 0.197994
v -1.306487 0.149848 0.197996
v -1.162637 2.324473 0.244735
v -1.306487 0.149848 0.197996
v -1.306487 2.324473 0.197994
v -1.162638 0.149848 0.244736
v -1.018785 2.324473 0.197994
v -1.018785 0.149848 0.197996
v 1.344403 1.428121 0.250185
v 1.162636 1.687123 -0.000002
v 1.456745 1.428121 0.095561
v 1.162633 1.428121 0.309248
v 1.456745 1.428121 -0.095565
v 0.980864 1.428121 0.250185
v 1.344405 1.428121 -0.250187
v 0.868523 1.428121 0.095560
v 1.162635 1.428121 -0.309249
v 0.868523 1.428121 -0.095565
v 0.980865 1.428121 -0.250187
v -0.980867 1.428121 0.250184
v -1.162635 1.687124 -0.000002
v -0.868525 1.428122 0.095561
v -1.162637 1.428121 0.309248
v -0.868525 1.428121 -0.095565
v -1.344406 1.428121 0.250184
v -0.980865 1.428121 -0.250188
v -1.456746 1.428122 0.095559
v -1.162635 1.428121 -0.309249
v -1.456747 1.428122 -0.095565
v -1.344405 1.428121 -0.250188
vn 0.6913 0.6868 0.2246
vn -0.0000 1.0000 -0.0001
vn 0.4273 0.6868 0.5880
vn 0.4273 0.6868 -0.5880
vn -0.0001 1.0000 -0.0000
vn 0.6913 0.6868 -0.2246
vn -0.6913 0.6868 -0.2246
vn -0.0000 1.0000 0.0001
vn -0.4273 0.6868 -0.5880
vn -0.4273 0.6868 0.5880
vn 0.0001 1.0000 -0.0000
vn -0.6913 0.6868 0.2246
vn -0.0001 1.0000 -0.0001
vn 0.0001 1.0000 0.0001
vn 0.5792 -0.1699 0.7973
vn 0.5792 -0.1700 0.7973
vn -0.0000 -0.1700 0.9854
vn -0.5792 -0.1700 0.7973
vn 0.5793 -0.1700 0.7972
vn 0.9372 -0.1699 0.3045
vn 0.9372 -0.1699 -0.3045
vn 0.5793 -0.1699 -0.7972
vn 0.5792 -0.1699 -0.7973
vn -0.0000 -0.1699 -0.9855
vn -0.5792 -0.1699 -0.7973
vn -0.5793 -0.1699 -0.7972
vn -0.9372 -0.1700 -0.3045
vn -0.9372 -0.1700 0.3045
vn -0.5793 -0.1700 0.7972
vn -0.0000 0.6868 -0.7268
vn -0.0000 1.0000 -0.0000
vn 0.4272 0.6868 -0.5880
vn -0.4272 0.6868 -0.5880
vn -0.0000 0.6868 0.7268
vn -0.4272 0.6868 0.5880
vn 0.4272 0.6868 0.5880
vn 0.5878 -0.0000 0.8090
vn 0.9511 -0.0000 0.3090
vn 0.9511 -0.0000 -0.3090
vn 0.5878 -0.0000 -0.8090
vn 0.5877 -0.0000 -0.8091
vn 0.5877 -0.0001 -0.8091
vn -0.0000 -0.0000 -1.0000
vn -0.5877 -0.0000 -0.8091
vn -0.5878 -0.0000 -0.8090
vn -0.9511 -0.0000 -0.3090
vn -0.9511 -0.0000 0.3090
vn -0.5878 -0.0000 0.8090
vn -0.5877 -0.0000 0.8090
vn -0.0000 -0.0000 1.0000
vn 0.5877 -0.0000 0.8090
vn -0.5878 -0.0001 0.8090
vn 0.5878 -0.0001 -0.8090
vn -0.5877 -0.0000 0.8091
vn 0.5877 -0.0000 0.8091
vn 0.5793 -0.1699 0.7972
vn 0.4272 0.6868 -0.5881
vn 0.5877 -0.0001 0.8090
vn -0.5877 0.0001 -0.8091
vn 0.6107 0.7666 0.1984
vn 0.3774 0.7666 0.5195
vn -0.0000 0.7666 0.6421
vn 0.6107 0.7666 -0.1984
vn -0.3774 0.7666 0.5194
vn 0.3774 0.7666 -0.5195
vn -0.6107 0.7666 0.1984
vn -0.0000 0.7666 -0.6421
vn -0.6107 0.7666 -0.1984
vn -0.3774 0.7666 -0.5195
vt 0.176157 0.530131
vt 0.179680 0.528985
vt 0.177503 0.531985
vt 0.177503 0.525985
vt 0.176157 0.527839
vt 0.183203 0.527839
vt 0.181858 0.525985
vt 0.181858 0.531985
vt 0.183203 0.530131
vt -3.466401 0.527839
vt -3.462463 0.528985
vt -3.466401 0.530131
vt 4.466401 0.530131
vt 4.462463 0.528985
vt 4.466401 0.527839
vt 0.211353 0.530131
vt 0.214876 0.528985
vt 0.212699 0.531985
vt 0.212699 0.525985
vt 0.211353 0.527839
vt 0.218399 0.527839
vt 0.217053 0.525985
vt 0.217053 0.531985
vt 0.218399 0.530131
vt 0.178011 4.428296
vt 0.177670 4.424920
vt 0.179682 4.428296
vt 0.179682 4.424920
vt 0.181353 4.428296
vt 0.181694 4.424920
vt -3.424920 0.531760
vt -3.428296 0.531290
vt -3.424920 0.530047
vt -3.428296 0.529867
vt -3.424920 0.527929
vt -3.428296 0.528108
vt -3.424920 0.526215
vt -3.428296 0.526685
vt 0.822330 4.424920
vt 0.821989 4.428296
vt 0.820318 4.424920
vt 0.820318 4.428296
vt 0.818306 4.424920
vt 0.818647 4.428296
vt 4.424920 0.526215
vt 4.428296 0.526685
vt 4.424920 0.527929
vt 4.428296 0.528108
vt 4.424920 0.530047
vt 4.428296 0.529867
vt 4.424920 0.531760
vt 4.428296 0.531290
vt 0.820320 4.466401
vt 0.820320 4.462463
vt 0.822497 4.466401
vt 0.818142 4.466401
vt 0.179680 4.466401
vt 0.179680 4.462463
vt 0.181858 4.466401
vt 0.177503 4.466401
vt -3.480026 0.532776
vt -3.507531 0.532776
vt -3.480026 0.530433
vt -3.507531 0.530433
vt -3.480026 0.527537
vt -3.507531 0.527537
vt -3.480026 0.525194
vt -3.507531 0.525194
vt 0.823071 4.480026
vt 0.823071 4.507531
vt 0.820320 4.480026
vt 0.820320 4.507531
vt 0.817568 4.480026
vt 0.817568 4.507531
vt 4.480026 0.525194
vt 4.507531 0.525194
vt 4.480026 0.527537
vt 4.507531 0.527537
vt 4.480026 0.530433
vt 4.507531 0.530433
vt 4.480026 0.532776
vt 4.507531 0.532776
vt 0.182432 4.480026
vt 0.182432 4.507531
vt 0.179680 4.480026
vt 0.179680 4.507531
vt 0.176929 4.480026
vt 0.176929 4.507531
vt 0.178011 4.472394
vt 0.179682 4.472394
vt 0.181353 4.472394
vt -3.472394 0.531290
vt -3.472394 0.529867
vt -3.472394 0.528108
vt -3.472394 0.526685
vt 0.821989 4.472394
vt 0.820318 4.472394
vt 0.818647 4.472394
vt 4.472394 0.526685
vt 4.472394 0.528108
vt 4.472394 0.529867
vt 4.472394 0.531290
vt -3.466401 0.531985
vt -3.499457 0.531985
vt -3.499457 0.530131
vt -3.499457 0.527839
vt -3.466401 0.525985
vt -3.499457 0.525985
vt 0.822497 4.499457
vt 0.820320 4.499457
vt 0.818142 4.499457
vt 4.466401 0.525985
vt 4.499457 0.525985
vt 4.499457 0.527839
vt 4.499457 0.530131
vt 4.466401 0.531985
vt 4.499457 0.531985
vt 0.181858 4.499457
vt 0.179680 4.499457
vt 0.177503 4.499457
vt 0.213206 4.428296
vt 0.212866 4.424920
vt 0.214878 4.428296
vt 0.214878 4.424920
vt 0.216549 4.428296
vt 0.216890 4.424920
vt -3.428296 0.531290
vt -3.424920 0.526215
vt 0.787134 4.424920
vt 0.786794 4.428296
vt 0.785122 4.424920
vt 0.785122 4.428296
vt 0.783110 4.424920
vt 0.783451 4.428296
vt 4.424920 0.526215
vt 0.785124 4.466401
vt 0.785124 4.462463
vt 0.787301 4.466401
vt 0.782947 4.466401
vt 0.214876 4.466401
vt 0.214876 4.462463
vt 0.217053 4.466401
vt 0.212699 4.466401
vt -3.480026 0.527537
vt 0.787875 4.480026
vt 0.787875 4.507531
vt 0.785124 4.480026
vt 0.785124 4.507531
vt 0.782373 4.480026
vt 0.782373 4.507531
vt 4.480026 0.527537
vt 0.217627 4.480026
vt 0.217627 4.507531
vt 0.214876 4.480026
vt 0.214876 4.507531
vt 0.212125 4.480026
vt 0.212125 4.507531
vt 0.213206 4.472394
vt 0.214878 4.472394
vt 0.216549 4.472394
vt 0.786793 4.472394
vt 0.785122 4.472394
vt 0.783451 4.472394
vt -3.499457 0.530131
vt -3.499457 0.525985
vt 0.787301 4.499457
vt 0.785124 4.499457
vt 0.782947 4.499457
vt 4.499457 0.525985
vt 0.217053 4.499457
vt 0.214876 4.499457
vt 0.212699 4.499457
vt 0.175229 0.530433
vt 0.176929 0.532776
vt 0.179680 0.533671
vt 0.175229 0.527537
vt 0.182432 0.532776
vt 0.176929 0.525194
vt 0.184132 0.530433
vt 0.179680 0.524300
vt 0.184132 0.527537
vt 0.182432 0.525194
vt 0.210424 0.530433
vt 0.212125 0.532776
vt 0.214876 0.533671
vt 0.210424 0.527537
vt 0.217627 0.532776
vt 0.212125 0.525194
vt 0.219328 0.530433
vt 0.214876 0.524300
vt 0.219328 0.527537
vt 0.217627 0.525194
s 1
g DidoX_gun_cal133_x2_barrel_001_2_details_4
usemtl details_4
f 3/1/1 2/2/2 1/3/3
f 5/4/4 2/2/5 4/5/6
f 7/6/7 2/2/8 6/7/9
f 9/8/10 2/2/11 8/9/12
f 12/10/6 11/11/13 10/12/1
f 15/13/12 14/14/14 13/15/7
f 18/16/1 17/17/2 16/18/3
f 20/19/4 17/17/5 19/20/6
f 22/21/7 17/17/8 21/22/9
f 24/23/10 17/17/11 23/24/12
f 27/10/6 26/11/13 25/12/1
f 30/13/12 29/14/14 28/15/7
f 33/25/15 32/26/16 31/27/17
f 34/28/17 31/27/17 32/26/16
f 31/27/17 34/28/17 35/29/18
f 36/30/18 35/29/18 34/28/17
f 39/31/19 38/32/19 37/33/20
f 40/34/20 37/33/20 38/32/19
f 37/33/20 40/34/20 41/35/21
f 42/36/21 41/35/21 40/34/20
f 41/35/21 42/36/21 43/37/22
f 44/38/22 43/37/22 42/36/21
f 47/39/23 46/40/23 45/41/24
f 48/42/24 45/41/24 46/40/23
f 45/41/24 48/42/24 49/43/25
f 50/44/25 49/43/25 48/42/24
f 53/45/26 52/46/26 51/47/27
f 54/48/27 51/47/27 52/46/26
f 51/47/27 54/48/27 55/49/28
f 56/50/28 55/49/28 54/48/27
f 55/49/28 56/50/28 57/51/29
f 58/52/29 57/51/29 56/50/28
f 61/53/30 60/54/31 59/55/32
f 62/56/33 60/54/31 61/53/30
f 65/57/34 64/58/31 63/59/35
f 66/60/36 64/58/31 65/57/34
f 69/61/37 68/62/37 67/63/38
f 70/64/38 67/63/38 68/62/37
f 67/63/38 70/64/38 71/65/39
f 72/66/39 71/65/39 70/64/38
f 71/65/39 72/66/39 73/67/40
f 74/68/40 73/67/40 72/66/39
f 77/69/41 76/70/42 75/71/43
f 78/72/43 75/71/43 76/70/42
f 75/71/43 78/72/43 79/73/44
f 80/74/44 79/73/44 78/72/43
f 83/75/45 82/76/45 81/77/46
f 84/78/46 81/77/46 82/76/45
f 81/77/46 84/78/46 85/79/47
f 86/80/47 85/79/47 84/78/46
f 85/79/47 86/80/47 87/81/48
f 88/82/48 87/81/48 86/80/47
f 91/83/49 90/84/49 89/85/50
f 92/86/50 89/85/50 90/84/49
f 89/85/50 92/86/50 93/87/51
f 94/88/51 93/87/51 92/86/50
f 97/89/37 96/25/37 95/90/50
f 98/27/50 95/90/50 96/25/37
f 95/90/50 98/27/50 99/91/52
f 100/29/48 99/91/52 98/27/50
f 103/32/37 102/92/37 101/34/38
f 104/93/38 101/34/38 102/92/37
f 101/34/38 104/93/38 105/36/39
f 106/94/39 105/36/39 104/93/38
f 105/36/39 106/94/39 107/38/53
f 108/95/40 107/38/53 106/94/39
f 111/40/41 110/96/41 109/42/43
f 112/97/43 109/42/43 110/96/41
f 109/42/43 112/97/43 113/44/44
f 114/98/44 113/44/44 112/97/43
f 117/46/45 116/99/45 115/48/46
f 118/100/46 115/48/46 116/99/45
f 115/48/46 118/100/46 119/50/47
f 120/101/47 119/50/47 118/100/46
f 119/50/47 120/101/47 121/52/48
f 122/102/48 121/52/48 120/101/47
f 125/103/37 124/104/37 123/12/38
f 126/105/38 123/12/38 124/104/37
f 123/12/38 126/105/38 127/10/39
f 128/106/39 127/10/39 126/105/38
f 127/10/39 128/106/39 129/107/40
f 130/108/40 129/107/40 128/106/39
f 133/55/41 132/109/41 131/53/43
f 134/110/43 131/53/43 132/109/41
f 131/53/43 134/110/43 135/56/44
f 136/111/44 135/56/44 134/110/43
f 139/112/45 138/113/45 137/15/46
f 140/114/46 137/15/46 138/113/45
f 137/15/46 140/114/46 141/13/47
f 142/115/47 141/13/47 140/114/46
f 141/13/47 142/115/47 143/116/48
f 144/117/48 143/116/48 142/115/47
f 147/59/49 146/118/54 145/57/50
f 148/119/50 145/57/50 146/118/54
f 145/57/50 148/119/50 149/60/55
f 150/120/55 149/60/55 148/119/50
f 153/121/15 152/122/16 151/123/17
f 154/124/17 151/123/17 152/122/16
f 151/123/17 154/124/17 155/125/18
f 156/126/18 155/125/18 154/124/17
f 159/31/56 158/127/19 157/33/20
f 160/34/20 157/33/20 158/127/19
f 157/33/20 160/34/20 161/35/21
f 162/36/21 161/35/21 160/34/20
f 161/35/21 162/36/21 163/128/22
f 164/38/22 163/128/22 162/36/21
f 167/129/23 166/130/23 165/131/24
f 168/132/24 165/131/24 166/130/23
f 165/131/24 168/132/24 169/133/25
f 170/134/25 169/133/25 168/132/24
f 173/135/26 172/46/26 171/47/27
f 174/48/27 171/47/27 172/46/26
f 171/47/27 174/48/27 175/49/28
f 176/50/28 175/49/28 174/48/27
f 175/49/28 176/50/28 177/51/29
f 178/52/29 177/51/29 176/50/28
f 181/136/30 180/137/31 179/138/57
f 182/139/33 180/137/31 181/136/30
f 185/140/34 184/141/31 183/142/35
f 186/143/36 184/141/31 185/140/34
f 189/61/37 188/62/37 187/63/38
f 190/64/38 187/63/38 188/62/37
f 187/63/38 190/64/38 191/144/39
f 192/66/39 191/144/39 190/64/38
f 191/144/39 192/66/39 193/67/40
f 194/68/40 193/67/40 192/66/39
f 197/145/41 196/146/41 195/147/43
f 198/148/43 195/147/43 196/146/41
f 195/147/43 198/148/43 199/149/44
f 200/150/44 199/149/44 198/148/43
f 203/75/45 202/76/45 201/151/46
f 204/78/46 201/151/46 202/76/45
f 201/151/46 204/78/46 205/79/47
f 206/80/47 205/79/47 204/78/46
f 205/79/47 206/80/47 207/81/48
f 208/82/48 207/81/48 206/80/47
f 211/152/49 210/153/49 209/154/50
f 212/155/50 209/154/50 210/153/49
f 209/154/50 212/155/50 213/156/58
f 214/157/51 213/156/58 212/155/50
f 217/158/37 216/121/37 215/159/50
f 218/123/50 215/159/50 216/121/37
f 215/159/50 218/123/50 219/160/48
f 220/125/48 219/160/48 218/123/50
f 223/127/37 222/92/37 221/34/38
f 224/93/38 221/34/38 222/92/37
f 221/34/38 224/93/38 225/36/39
f 226/94/39 225/36/39 224/93/38
f 225/36/39 226/94/39 227/38/40
f 228/95/40 227/38/40 226/94/39
f 231/130/41 230/161/41 229/132/43
f 232/162/43 229/132/43 230/161/41
f 229/132/43 232/162/43 233/134/59
f 234/163/44 233/134/59 232/162/43
f 237/46/45 236/99/45 235/48/46
f 238/100/46 235/48/46 236/99/45
f 235/48/46 238/100/46 239/50/47
f 240/101/47 239/50/47 238/100/46
f 239/50/47 240/101/47 241/52/48
f 242/102/48 241/52/48 240/101/47
f 245/103/37 244/104/37 243/12/38
f 246/164/38 243/12/38 244/104/37
f 243/12/38 246/164/38 247/10/39
f 248/106/39 247/10/39 246/164/38
f 247/10/39 248/106/39 249/107/40
f 250/165/40 249/107/40 248/106/39
f 253/138/41 252/166/41 251/136/43
f 254/167/43 251/136/43 252/166/41
f 251/136/43 254/167/43 255/139/44
f 256/168/44 255/139/44 254/167/43
f 259/112/45 258/169/45 257/15/46
f 260/114/46 257/15/46 258/169/45
f 257/15/46 260/114/46 261/13/47
f 262/115/47 261/13/47 260/114/46
f 261/13/47 262/115/47 263/116/48
f 264/117/48 263/116/48 262/115/47
f 267/142/54 266/170/48 265/140/50
f 268/171/50 265/140/50 266/170/48
f 265/140/50 268/171/50 269/143/55
f 270/172/37 269/143/55 268/171/50
f 273/173/60 272/2/31 271/174/61
f 271/174/61 272/2/31 274/175/62
f 275/176/63 272/2/31 273/173/60
f 274/175/62 272/2/31 276/177/64
f 277/178/65 272/2/31 275/176/63
f 276/177/64 272/2/31 278/179/66
f 279/180/67 272/2/31 277/178/65
f 278/179/66 272/2/31 280/181/68
f 281/182/69 272/2/31 279/180/67
f 280/181/68 272/2/31 281/182/69
f 284/183/60 283/17/31 282/184/61
f 282/184/61 283/17/31 285/185/62
f 286/186/63 283/17/31 284/183/60
f 285/185/62 283/17/31 287/187/64
f 288/188/65 283/17/31 286/186/63
f 287/187/64 283/17/31 289/189/66
f 290/190/67 283/17/31 288/188/65
f 289/189/66 283/17/31 291/191/68
f 292/192/69 283/17/31 290/190/67
f 291/191/68 283/17/31 292/192/69
