# Blender 5.1.0
# www.blender.org
mtllib DidoX_gun_cal133_x2_barrel_001_0_DidoX_gun_cal133_x2_barrel_001_0.mtl
o DidoX_gun_cal133_x2_barrel_001_0_DidoX_gun_cal133_x2_barrel_001_0
v -1.242628 0.107326 5.081561
v -1.162504 0.226334 5.053304
v -1.163638 0.132996 5.081561
v -1.295445 0.183137 5.053304
v -1.029564 0.183137 5.053304
v -1.291448 0.040132 5.081565
v -1.084644 0.107326 5.081561
v -1.377605 0.070053 5.053304
v -0.947404 0.070053 5.053304
v -1.291448 -0.042923 5.081565
v -1.035826 0.040133 5.081560
v -1.377605 -0.069728 5.053304
v -0.947404 -0.069728 5.053304
v -1.242628 -0.110116 5.081565
v -1.035826 -0.042923 5.081560
v -1.295445 -0.182814 5.053304
v -1.029568 -0.182814 5.053304
v -1.163638 -0.135784 5.081563
v -1.084646 -0.110116 5.081563
v -1.162506 -0.226009 5.053304
v 1.082644 0.107326 5.081561
v 1.162766 0.226333 5.053304
v 1.161633 0.132995 5.081561
v 1.029826 0.183136 5.053304
v 1.295706 0.183136 5.053304
v 1.033823 0.040131 5.081565
v 1.240626 0.107326 5.081561
v 0.947666 0.070052 5.053304
v 1.377867 0.070052 5.053304
v 1.033823 -0.042924 5.081565
v 1.289445 0.040132 5.081560
v 0.947666 -0.069728 5.053304
v 1.377867 -0.069728 5.053304
v 1.082644 -0.110117 5.081565
v 1.289445 -0.042924 5.081560
v 1.029826 -0.182815 5.053304
v 1.295702 -0.182815 5.053304
v 1.161633 -0.135785 5.081563
v 1.240625 -0.110117 5.081563
v 1.162766 -0.226010 5.053304
vn -0.0009 0.2898 0.9571
vn 0.0005 0.2897 0.9571
vn -0.1732 0.2358 0.9563
vn -0.1712 0.2371 0.9563
vn 0.1697 0.2336 0.9574
vn -0.2820 0.0900 0.9552
vn -0.2813 0.0923 0.9552
vn 0.2754 0.0900 0.9571
vn -0.2840 -0.0933 0.9543
vn 0.2758 0.0887 0.9571
vn -0.2844 -0.0918 0.9543
vn 0.2784 -0.0896 0.9563
vn -0.1763 -0.2427 0.9539
vn 0.2777 -0.0918 0.9563
vn 0.1747 -0.2389 0.9552
vn -0.0010 -0.2989 0.9543
vn 0.1728 -0.2404 0.9552
vn 0.0006 -0.2989 0.9543
vn 0.2759 0.0887 0.9571
vt 0.179665 0.531000
vt 0.179682 0.532414
vt 0.178469 0.530611
vt 0.177670 0.531760
vt 0.181694 0.531760
vt 0.177730 0.529593
vt 0.180861 0.530611
vt 0.176426 0.530047
vt 0.182938 0.530047
vt 0.177730 0.528335
vt 0.181600 0.529593
vt 0.176426 0.527929
vt 0.182938 0.527929
vt 0.178469 0.527317
vt 0.181600 0.528335
vt 0.177670 0.526215
vt 0.181694 0.526215
vt 0.179665 0.526928
vt 0.180861 0.527317
vt 0.179682 0.525561
vt 0.214861 0.531000
vt 0.214878 0.532414
vt 0.213665 0.530611
vt 0.212866 0.531760
vt 0.216890 0.531760
vt 0.212926 0.529593
vt 0.216056 0.530611
vt 0.211622 0.530047
vt 0.218134 0.530047
vt 0.212926 0.528335
vt 0.216795 0.529593
vt 0.211622 0.527929
vt 0.218134 0.527929
vt 0.213665 0.527317
vt 0.216795 0.528335
vt 0.212866 0.526215
vt 0.216890 0.526215
vt 0.214861 0.526928
vt 0.216056 0.527317
vt 0.214878 0.525561
s 1
g DidoX_gun_cal133_x2_barrel_001_0_DidoX_gun_cal133_x2_barrel_001_0_details_3
usemtl details_3
f 3/1/1 2/2/2 1/3/3
f 4/4/4 1/3/3 2/2/2
f 2/2/2 3/1/1 5/5/5
f 1/3/3 4/4/4 6/6/6
f 7/7/5 5/5/5 3/1/1
f 8/8/7 6/6/6 4/4/4
f 5/5/5 7/7/5 9/9/8
f 6/6/6 8/8/7 10/10/9
f 11/11/10 9/9/8 7/7/5
f 12/12/11 10/10/9 8/8/7
f 9/9/8 11/11/10 13/13/12
f 10/10/9 12/12/11 14/14/13
f 15/15/14 13/13/12 11/11/10
f 16/16/13 14/14/13 12/12/11
f 13/13/12 15/15/14 17/17/15
f 14/14/13 16/16/13 18/18/16
f 19/19/17 17/17/15 15/15/14
f 20/20/18 18/18/16 16/16/13
f 17/17/15 19/19/17 20/20/18
f 18/18/16 20/20/18 19/19/17
f 23/21/1 22/22/2 21/23/3
f 24/24/4 21/23/3 22/22/2
f 22/22/2 23/21/1 25/25/5
f 21/23/3 24/24/4 26/26/6
f 27/27/5 25/25/5 23/21/1
f 28/28/7 26/26/6 24/24/4
f 25/25/5 27/27/5 29/29/8
f 26/26/6 28/28/7 30/30/9
f 31/31/19 29/29/8 27/27/5
f 32/32/11 30/30/9 28/28/7
f 29/29/8 31/31/19 33/33/12
f 30/30/9 32/32/11 34/34/13
f 35/35/14 33/33/12 31/31/19
f 36/36/13 34/34/13 32/32/11
f 33/33/12 35/35/14 37/37/15
f 34/34/13 36/36/13 38/38/16
f 39/39/17 37/37/15 35/35/14
f 40/40/18 38/38/16 36/36/13
f 37/37/15 39/39/17 40/40/18
f 38/38/16 40/40/18 39/39/17
