# Blender 5.1.0
# www.blender.org
mtllib Atlanta_gun_28_x2_base.mtl
o Atlanta_gun_28_x2_base
v 0.829968 0.157253 0.184495
v 0.000000 0.157253 0.000000
v 0.829968 0.157253 -0.184495
v 0.625513 0.157253 0.573648
v -0.829968 0.157253 0.184495
v 0.000000 0.157253 0.573648
v 0.625513 0.157253 -0.674735
v -0.625513 0.157253 0.573648
v 0.829968 0.157253 0.000000
v -0.829968 0.157253 0.000000
v -0.829968 0.157253 -0.184495
v 0.000000 0.157253 -0.674735
v -0.625513 0.157253 -0.674735
vn -0.0000 1.0000 -0.0000
vt -0.106630 4.462501
vt -0.091368 4.474509
vt -0.093126 4.475675
vt -0.091368 4.453866
vt -0.103068 4.453866
s 1
g Atlanta_gun_28_x2_base_steel_deck_1
usemtl steel_deck_1
f 2/1/1 1/2/1 9/3/1
f 1/2/1 2/1/1 4/4/1
f 3/2/1 7/4/1 2/1/1
f 5/2/1 8/4/1 2/1/1
f 8/4/1 6/5/1 2/1/1
f 11/2/1 2/1/1 13/4/1
f 10/3/1 5/2/1 2/1/1
f 4/4/1 2/1/1 6/5/1
f 13/4/1 2/1/1 12/5/1
f 2/1/1 9/3/1 3/2/1
f 10/3/1 2/1/1 11/2/1
f 7/4/1 12/5/1 2/1/1
