# Blender 5.1.0
# www.blender.org
mtllib Hood_gun_140_x1_001_0_Hood_gun_140_x1_001_0.mtl
o Hood_gun_140_x1_001_0_Hood_gun_140_x1_001_0
v 0.500172 0.145624 0.500170
v 0.651461 0.000000 0.269845
v 0.500172 0.000000 0.500170
v 0.651461 0.145625 0.269845
v 0.707347 0.145625 0.000002
v 0.707346 0.000001 0.000002
v 0.651460 0.000001 -0.269842
v 0.651460 0.145625 -0.269842
v 0.500172 0.145625 -0.500169
v 0.500172 0.000001 -0.500169
v 0.269848 0.000000 0.651457
v 0.500172 0.145624 0.500170
v 0.500172 0.000000 0.500170
v 0.269848 0.145624 0.651457
v 0.000005 0.145624 0.707342
v 0.000005 0.000000 0.707342
v -0.269837 0.000000 0.651457
v -0.269837 0.145624 0.651457
v -0.500162 0.145624 0.500169
v -0.500162 0.000000 0.500169
v -0.651452 0.000000 0.269844
v -0.500162 0.145624 0.500169
v -0.500162 0.000000 0.500169
v -0.651452 0.145624 0.269844
v -0.707338 0.145624 0.000000
v -0.707339 0.000000 0.000000
v -0.651452 0.000001 -0.269844
v -0.651452 0.145624 -0.269844
v -0.500161 0.145625 -0.500169
v -0.500161 0.000001 -0.500169
v -0.269836 0.000001 -0.651457
v -0.500161 0.145625 -0.500169
v -0.500161 0.000001 -0.500169
v -0.269836 0.145625 -0.651457
v 0.000005 0.145625 -0.707342
v 0.000005 0.000001 -0.707342
v 0.269847 0.000001 -0.651457
v 0.269847 0.145625 -0.651457
v 0.500172 0.145625 -0.500169
v 0.500172 0.000001 -0.500169
vn 0.7071 -0.0000 0.7071
vn 0.9239 -0.0000 0.3827
vn 1.0000 -0.0000 -0.0000
vn 0.9239 -0.0000 -0.3827
vn 0.7071 -0.0000 -0.7071
vn 0.3827 -0.0000 0.9239
vn -0.0000 -0.0000 1.0000
vn -0.3827 -0.0000 0.9239
vn -0.7071 -0.0000 0.7071
vn -0.9239 -0.0000 0.3827
vn -1.0000 -0.0000 -0.0000
vn -0.9239 -0.0000 -0.3827
vn -0.7071 -0.0000 -0.7071
vn -0.3827 -0.0000 -0.9239
vn -0.0000 -0.0000 -1.0000
vn 0.3827 -0.0000 -0.9239
vt 2.893495 0.500000
vt 2.897867 0.500000
vt 2.893495 0.502205
vt 2.897867 0.502205
vt 2.902989 0.502205
vt 2.902989 0.500000
vt 2.908111 0.500000
vt 2.908111 0.502205
vt 2.912483 0.502205
vt 2.912483 0.500000
vt 0.509480 0.500000
vt 0.509480 0.502205
vt 0.505113 0.500000
vt 0.505113 0.502205
vt 0.499998 0.502205
vt 0.499998 0.500000
vt 0.494883 0.500000
vt 0.494883 0.502205
vt 0.490517 0.502205
vt 0.490517 0.500000
vt -1.893495 0.500000
vt -1.893495 0.502205
vt -1.897867 0.500000
vt -1.897867 0.502205
vt -1.902989 0.502205
vt -1.902989 0.500000
vt -1.908111 0.500000
vt -1.908111 0.502205
vt -1.912483 0.502205
vt -1.912483 0.500000
vt 0.509483 0.500000
vt 0.509483 0.502205
vt 0.505117 0.500000
vt 0.505117 0.502205
vt 0.500002 0.502205
vt 0.500002 0.500000
vt 0.494887 0.500000
vt 0.494887 0.502205
vt 0.490520 0.502205
vt 0.490520 0.500000
s 1
g Hood_gun_140_x1_001_0_Hood_gun_140_x1_001_0_steel_deck_1
usemtl steel_deck_1
f 3/1/1 2/2/2 1/3/1
f 4/4/2 1/3/1 2/2/2
f 4/4/2 2/2/2 5/5/3
f 6/6/3 5/5/3 2/2/2
f 6/6/3 7/7/4 5/5/3
f 8/8/4 5/5/3 7/7/4
f 8/8/4 7/7/4 9/9/5
f 10/10/5 9/9/5 7/7/4
f 13/11/1 12/12/1 11/13/6
f 14/14/6 11/13/6 12/12/1
f 14/14/6 15/15/7 11/13/6
f 16/16/7 11/13/6 15/15/7
f 16/16/7 15/15/7 17/17/8
f 18/18/8 17/17/8 15/15/7
f 18/18/8 19/19/9 17/17/8
f 20/20/9 17/17/8 19/19/9
f 23/21/9 22/22/9 21/23/10
f 24/24/10 21/23/10 22/22/9
f 24/24/10 25/25/11 21/23/10
f 26/26/11 21/23/10 25/25/11
f 26/26/11 25/25/11 27/27/12
f 28/28/12 27/27/12 25/25/11
f 28/28/12 29/29/13 27/27/12
f 30/30/13 27/27/12 29/29/13
f 33/31/13 32/32/13 31/33/14
f 34/34/14 31/33/14 32/32/13
f 34/34/14 35/35/15 31/33/14
f 36/36/15 31/33/14 35/35/15
f 36/36/15 35/35/15 37/37/16
f 38/38/16 37/37/16 35/35/15
f 38/38/16 39/39/5 37/37/16
f 40/40/5 37/37/16 39/39/5
