# Blender 5.1.0
# www.blender.org
mtllib Hood_gun_140_barrel_1_001_2_Hood_gun_140_barrel_1_001_2.mtl
o Hood_gun_140_barrel_1_001_2_Hood_gun_140_barrel_1_001_2
v 0.001346 1.590439 4.689892
v 0.002060 1.499991 2.278781
v -0.052403 1.572975 4.689892
v 0.055094 1.572975 4.689892
v -0.052403 1.572975 4.689892
v 0.002060 1.499991 2.278781
v -0.085621 1.527253 4.689893
v -0.085621 1.470738 4.689893
v -0.052403 1.425017 4.689893
v -0.052403 1.425017 4.689893
v 0.002060 1.499991 2.278781
v 0.001346 1.407553 4.689893
v 0.055094 1.425017 4.689893
v 0.055094 1.425017 4.689893
v 0.002060 1.499991 2.278781
v 0.088313 1.470738 4.689892
v 0.088313 1.527253 4.689892
v 0.055094 1.572975 4.689892
vn 0.5874 -0.8084 0.0377
vn -0.0002 -0.0001 1.0000
vn 0.0001 -0.9993 0.0375
vn -0.5874 -0.8086 0.0338
vn 0.9504 -0.3087 0.0381
vn -0.0003 -0.0002 1.0000
vn 0.5877 -0.8084 0.0343
vn 0.9503 0.3088 0.0383
vn 0.5874 0.8084 0.0384
vn 0.0001 0.9993 0.0383
vn -0.0002 -0.0002 1.0000
vn 0.5873 0.8086 0.0347
vn -0.5872 0.8085 0.0380
vn -0.9503 0.3089 0.0377
vn -0.5874 0.8086 0.0343
vn -0.9504 -0.3087 0.0375
vn -0.5875 -0.8084 0.0374
vt 0.500797 2.826457
vt 0.499971 2.863070
vt 0.499982 2.826457
vt 0.499167 2.826457
vt 2.826457 0.520469
vt 2.863070 0.520056
vt 2.826457 0.521161
vt 2.826457 0.519613
vt 2.826457 0.518921
vt 0.500018 2.826457
vt 0.500029 2.863070
vt 0.499203 2.826457
vt 0.500833 2.826457
vt -1.826457 0.519613
vt -1.863070 0.520056
vt -1.826457 0.518921
vt -1.826457 0.520469
vt -1.826457 0.521161
s 1
g Hood_gun_140_barrel_1_001_2_Hood_gun_140_barrel_1_001_2_details_2
usemtl details_2
f 3/1/1 2/2/2 1/3/3
f 4/4/4 1/3/3 2/2/2
f 7/5/5 6/6/6 5/7/7
f 8/8/8 6/6/6 7/5/5
f 9/9/9 6/6/6 8/8/8
f 12/10/10 11/11/11 10/12/12
f 13/13/13 11/11/11 12/10/10
f 16/14/14 15/15/11 14/16/15
f 17/17/16 15/15/11 16/14/14
f 18/18/17 15/15/11 17/17/16
