# Blender 5.1.0
# www.blender.org
mtllib KiGe_Deckhouse_D2_001_3_KiGe_Deckhouse_D2_001_3.mtl
o KiGe_Deckhouse_D2_001_3_KiGe_Deckhouse_D2_001_3.001
v -4.068602 9.498371 25.154095
v -4.068599 9.498392 26.205929
v -4.068619 9.498381 22.873436
v -4.816785 9.498422 23.116993
v -4.816785 9.498410 25.154171
v -4.884533 9.498422 22.477276
v -4.068608 9.498370 20.446362
v -5.158890 9.498422 21.837563
v -5.564975 9.498372 20.446358
v -5.564978 9.498423 21.431614
v -0.572620 10.574547 27.371548
v -4.068605 10.574547 26.205898
v -1.058066 10.574547 27.695919
v -2.738261 10.574546 28.396053
v -1.058057 10.574548 30.283985
v 0.000000 9.498396 26.205898
v -4.068608 10.574546 28.396069
v -4.518996 10.574546 28.179180
v -4.518993 10.574547 26.422802
v -4.830672 10.574547 26.813625
v -4.830675 10.574547 27.788342
v -4.941910 10.574547 27.300991
v -0.750805 12.574554 31.774433
v 0.000000 9.498376 22.873436
v 4.068602 9.498371 25.154095
v 4.068599 9.498392 26.205929
v 4.068619 9.498381 22.873436
v 4.816785 9.498422 23.116993
v 4.816785 9.498410 25.154171
v 4.884533 9.498422 22.477276
v 4.068608 9.498370 20.446362
v 5.158890 9.498422 21.837563
v 5.564975 9.498372 20.446358
v 5.564978 9.498423 21.431614
v -0.958061 12.574553 29.675289
v -0.958057 12.574554 31.541561
v -1.058063 12.574553 28.753956
v -1.058060 12.574553 29.675289
v -5.564971 9.498316 17.555588
v -4.068613 9.498319 20.344402
v -4.068613 9.498316 17.555588
v -5.564982 9.498319 20.344402
v -6.098599 9.498319 20.238262
v -6.098590 9.498318 17.661720
v -6.550968 9.498318 17.963993
v 0.000000 10.574547 26.205898
v 0.000000 10.574547 27.257641
v 0.572620 10.574547 27.371548
v 4.068605 10.574547 26.205898
v 1.058066 10.574547 27.695919
v 2.738261 10.574546 28.396053
v 1.058057 10.574548 30.283985
v 4.068608 10.574546 28.396069
v 4.518996 10.574546 28.179180
v 4.518993 10.574547 26.422802
v 4.830672 10.574547 26.813625
v 4.830675 10.574547 27.788342
v 4.941910 10.574547 27.300991
v -6.550978 9.498318 19.935993
v -6.853237 9.498318 18.416367
v -6.853248 9.498318 19.483612
v 0.000000 12.574553 28.753956
v -6.959381 9.498318 18.949989
v -5.464943 9.498393 17.453629
v 0.000000 12.574554 31.774448
v 0.750805 12.574554 31.774433
v 0.958061 12.574553 29.675289
v 0.958057 12.574554 31.541561
v 1.058063 12.574553 28.753956
v 1.058060 12.574553 29.675289
v 5.564971 9.498316 17.555588
v 4.068613 9.498319 20.344402
v 4.068613 9.498316 17.555588
v 5.564982 9.498319 20.344402
v 6.098599 9.498319 20.238262
v 6.098590 9.498318 17.661720
v 6.550968 9.498318 17.963993
v 6.550978 9.498318 19.935993
v 6.853237 9.498318 18.416367
v 6.853248 9.498318 19.483612
v 6.959381 9.498318 18.949989
v 5.464943 9.498393 17.453629
v 4.068613 9.498393 17.453629
v 5.464974 9.498384 17.246132
v 5.074579 9.498373 16.855824
v 4.786685 9.498373 16.184544
v 4.716792 9.498372 15.524574
v 4.068635 9.498361 14.410595
v 4.716792 9.498361 14.410595
v 0.000000 14.574553 28.754025
v -4.068613 9.498393 17.453629
v -5.464974 9.498384 17.246132
v -5.074579 9.498373 16.855824
v -4.786685 9.498373 16.184544
v -4.716792 9.498372 15.524574
v -4.068635 9.498361 14.410595
v 0.000000 14.574555 30.148403
v -4.716792 9.498361 14.410595
v 0.533591 14.574555 30.042271
v 0.000000 14.574553 27.359638
v 0.985970 14.574555 29.740002
v 0.533591 14.574555 27.465771
v 1.288240 14.574555 29.287624
v 0.985970 14.574555 27.768047
v 1.394382 14.574555 28.754025
v 1.288240 14.574555 28.220417
v -0.533591 14.574555 30.042271
v -0.985970 14.574555 29.740002
v -0.533591 14.574555 27.465771
v -1.288240 14.574555 29.287624
v -0.985970 14.574555 27.768047
v -1.394382 14.574555 28.754025
v -1.288240 14.574555 28.220417
v -12.049321 5.847548 10.768639
v -12.049321 5.847547 8.893459
v -11.148463 5.847547 8.421494
v -10.149850 5.847547 8.579659
v -9.402541 5.847549 13.956730
v -10.149850 5.847547 5.348091
v -12.049321 5.847547 7.962482
v -12.764247 5.847547 7.247555
v -13.223256 5.847547 6.346699
v -13.381417 5.847547 5.348091
v -13.223252 5.847547 4.349480
v -12.764241 5.847546 3.448624
v -12.049317 5.847546 2.733696
v -11.148458 5.847546 2.274685
v -10.149848 5.847546 2.116524
v -9.151238 5.847546 2.274685
v 12.049321 5.847548 10.768639
v 12.049321 5.847547 8.893459
v 11.148463 5.847547 8.421494
v 10.149850 5.847547 8.579659
v 9.402541 5.847549 13.956730
v 10.149850 5.847547 5.348091
v 12.049321 5.847547 7.962482
v 12.764247 5.847547 7.247555
v 13.223256 5.847547 6.346699
v 13.381417 5.847547 5.348091
v 13.223252 5.847547 4.349480
v 12.764241 5.847546 3.448624
v 12.049317 5.847546 2.733696
v 11.148458 5.847546 2.274685
v 10.149848 5.847546 2.116524
v 9.151238 5.847546 2.274685
v 8.250381 5.847546 2.733696
v 7.535454 5.847546 3.448624
v 7.076445 5.847547 4.349480
v 9.151237 5.847547 8.421474
v 6.641457 5.847549 13.956730
v 6.918280 5.847547 5.348091
v 6.641455 5.847547 4.349518
v 8.250379 5.847547 7.962482
v 7.076443 5.847547 6.346699
v 7.535454 5.847547 7.247555
v -8.250381 5.847546 2.733696
v 0.000000 9.498384 22.873436
v -7.535454 5.847546 3.448624
v 0.000000 9.498364 14.310608
v 4.068614 9.498360 22.873436
v 4.068632 9.498369 14.310608
v -7.076445 5.847547 4.349480
v -9.151237 5.847547 8.421474
v -6.641457 5.847549 13.956730
v -6.918280 5.847547 5.348091
v -6.641455 5.847547 4.349518
v -8.250379 5.847547 7.962482
v -7.076443 5.847547 6.346699
v -7.535454 5.847547 7.247555
v -4.068614 9.498360 22.873436
v -4.068632 9.498369 14.310608
v 0.000000 2.923747 19.314100
v -13.475480 2.923747 19.314093
v 0.000000 2.923749 44.755493
v 13.475480 2.923747 19.314093
v 13.475480 2.923748 28.476706
v -13.475480 2.923748 28.476706
v -1.063991 2.923749 44.755493
v 0.000000 2.923743 2.217741
v 1.063991 2.923749 44.755493
v 2.244342 2.923743 2.217741
v 13.475480 2.923744 0.000009
v -2.244342 2.923743 2.217741
v 0.000000 2.923743 2.217741
v -13.475480 2.923744 0.000009
v 0.000000 2.923743 -0.000002
v 2.244342 2.923743 -0.000002
v 2.244342 2.923743 -0.000002
v 2.244342 2.923743 2.217741
v 0.000000 6.574576 35.920433
v 0.000000 6.574574 -0.000004
v 6.641466 6.574574 -0.000004
v 6.641466 6.574576 28.476707
v -2.244342 2.923743 -0.000002
v 1.113498 6.574576 35.920433
v -2.244342 2.923743 -0.000002
v -2.244342 2.923743 2.217741
v -6.641466 6.574574 -0.000004
v -6.641466 6.574576 28.476707
v -1.113498 6.574576 35.920433
vn -0.0000 1.0000 -0.0000
vn 0.0001 1.0000 -0.0000
vn 0.0001 1.0000 -0.0001
vn -0.0001 1.0000 -0.0000
vn -0.0001 1.0000 -0.0001
vt 0.552790 0.544175
vt 0.498542 0.430004
vt 0.552791 0.430004
vt 0.498542 0.588608
vt 0.552790 0.574584
vt 0.552790 0.588608
vt 0.552790 0.544175
vt 0.562766 0.547422
vt 0.562766 0.574585
vt 0.563669 0.538893
vt 0.552790 0.511814
vt 0.567327 0.530363
vt 0.572742 0.511814
vt 0.572742 0.524951
vt 0.480348 7.622474
vt 0.480347 7.606565
vt 0.471646 7.624197
vt 0.418519 7.606565
vt 0.464269 7.629104
vt 0.438736 7.639694
vt 0.464269 7.668251
vt 0.418519 7.639694
vt 0.411675 7.636414
vt 0.498542 0.544175
vt 0.411675 7.609846
vt 0.406938 7.615758
vt 0.406938 7.630502
vt 0.405248 7.623130
vt 0.480348 7.690796
vt 0.480348 7.645108
vt 0.468938 7.690796
vt 0.465788 7.659044
vt 0.465789 7.687274
vt 0.464269 7.645108
vt 0.444294 0.544175
vt 0.444294 0.430004
vt 0.444294 0.588608
vt 0.444294 0.574584
vt 0.444294 0.544175
vt 0.434318 0.547422
vt 0.434318 0.574585
vt 0.433415 0.538893
vt 0.444294 0.511814
vt 0.429757 0.530363
vt 0.424342 0.511814
vt 0.424342 0.524951
vt 0.464269 7.659044
vt 0.552790 0.473270
vt 0.572742 0.473270
vt 0.552790 0.510455
vt 0.572742 0.510455
vt 0.579857 0.474685
vt 0.579857 0.509039
vt 0.585888 0.505009
vt 0.585888 0.478716
vt 0.589919 0.484747
vt 0.589919 0.498977
vt 0.591334 0.491862
vt 0.571408 0.469144
vt 0.571408 0.471911
vt 0.552790 0.471911
vt 0.566203 0.463940
vt 0.562365 0.454990
vt 0.561433 0.446190
vt 0.561433 0.431337
vt 0.552791 0.431337
vt 0.444294 0.473270
vt 0.444294 0.510455
vt 0.424342 0.473270
vt 0.424342 0.510455
vt 0.417227 0.509039
vt 0.417228 0.474685
vt 0.411196 0.478716
vt 0.411196 0.505009
vt 0.407166 0.484747
vt 0.407165 0.498977
vt 0.376202 7.504882
vt 0.374589 7.496810
vt 0.376202 7.488739
vt 0.425676 0.469144
vt 0.444294 0.471911
vt 0.425676 0.471911
vt 0.430881 0.463940
vt 0.434720 0.454990
vt 0.435652 0.446190
vt 0.444294 0.431337
vt 0.435652 0.431337
vt 0.472239 7.664595
vt 0.480348 7.666201
vt 0.480348 7.645109
vt 0.465364 7.660023
vt 0.480348 7.624017
vt 0.472239 7.625622
vt 0.465364 7.630195
vt 0.460771 7.653180
vt 0.459158 7.645109
vt 0.460771 7.637037
vt 0.675850 7.523764
vt 0.689540 7.530903
vt 0.689540 7.559268
vt 0.660674 7.526157
vt 0.649318 7.607491
vt 0.660674 7.477275
vt 0.689540 7.516821
vt 0.700404 7.506007
vt 0.707379 7.492380
vt 0.709783 7.477275
vt 0.707379 7.462170
vt 0.700404 7.448544
vt 0.689540 7.437729
vt 0.675850 7.430786
vt 0.660674 7.428394
vt 0.645499 7.430786
vt 0.631809 7.437729
vt 0.620945 7.448544
vt 0.613969 7.462170
vt 0.645499 7.523764
vt 0.607359 7.607491
vt 0.611566 7.477275
vt 0.607359 7.462171
vt 0.631809 7.516821
vt 0.613969 7.492380
vt 0.620945 7.506007
vt 0.678215 0.618885
vt 0.498542 0.496717
vt 0.678215 0.496717
vt 0.498542 0.835936
vt 0.512729 0.835936
vt 0.318869 0.618885
vt 0.318869 0.496717
vt 0.484356 0.835936
vt 0.528467 0.268766
vt 0.678215 0.239196
vt 0.528467 0.239196
vt 0.500025 8.439140
vt 0.561916 8.439140
vt 0.500026 8.698924
vt 0.468618 0.268766
vt 0.318869 0.239196
vt 0.468618 0.239196
vt 0.500025 8.408175
vt 0.539188 8.408175
vt 0.500025 8.434391
vt 0.539188 8.434391
vt 0.498542 0.718135
vt 0.409989 0.618885
vt 0.409989 0.239196
vt 0.587095 0.239196
vt 0.513389 0.718135
vt 0.498542 0.239196
vt 0.483695 0.718135
vt 0.587095 0.618885
s 1
g KiGe_Deckhouse_D2_001_3_KiGe_Deckhouse_D2_001_3.001_steel_deck_1
usemtl steel_deck_1
f 170/1/1 159/2/1 171/3/1
f 16/4/1 1/5/1 2/6/1
f 3/7/1 4/8/2 1/5/1
f 5/9/2 1/5/1 4/8/2
f 6/10/1 4/8/2 3/7/1
f 7/11/1 6/10/1 3/7/1
f 7/11/1 8/12/1 6/10/1
f 7/11/1 9/13/1 8/12/1
f 10/14/3 8/12/1 9/13/1
f 47/15/1 46/16/1 11/17/1
f 12/18/1 11/17/1 46/16/1
f 13/19/1 11/17/1 12/18/1
f 14/20/1 13/19/1 12/18/1
f 14/20/1 15/21/1 13/19/1
f 17/22/1 14/20/1 12/18/1
f 17/22/1 12/18/1 18/23/1
f 1/5/1 24/24/1 3/7/1
f 19/25/1 20/26/1 18/23/1
f 21/27/1 18/23/1 20/26/1
f 22/28/1 21/27/1 20/26/1
f 65/29/1 62/30/1 23/31/1
f 62/30/1 35/32/1 23/31/1
f 36/33/1 23/31/1 35/32/1
f 62/30/1 37/34/1 35/32/1
f 159/2/1 160/35/1 161/36/1
f 19/25/1 18/23/1 12/18/1
f 16/4/1 26/37/1 25/38/1
f 27/39/1 25/38/1 28/40/4
f 29/41/4 28/40/4 25/38/1
f 30/42/1 27/39/1 28/40/4
f 31/43/1 27/39/1 30/42/1
f 31/43/1 30/42/1 32/44/1
f 31/43/1 32/44/1 33/45/1
f 34/46/5 33/45/1 32/44/1
f 37/34/1 38/47/1 35/32/1
f 41/48/1 39/49/1 40/50/1
f 42/51/1 40/50/1 39/49/1
f 44/52/1 43/53/1 39/49/1
f 59/54/1 43/53/1 45/55/1
f 45/55/1 60/56/1 59/54/1
f 61/57/1 59/54/1 60/56/1
f 61/57/1 60/56/1 63/58/1
f 92/59/1 64/60/1 91/61/1
f 44/52/1 45/55/1 43/53/1
f 42/51/1 39/49/1 43/53/1
f 47/15/1 48/17/1 46/16/1
f 49/18/1 46/16/1 48/17/1
f 50/19/1 49/18/1 48/17/1
f 51/20/1 49/18/1 50/19/1
f 51/20/1 50/19/1 52/21/1
f 53/22/1 49/18/1 51/20/1
f 53/22/1 54/23/1 49/18/1
f 55/25/1 49/18/1 54/23/1
f 55/25/1 54/23/1 56/26/1
f 57/27/1 56/26/1 54/23/1
f 58/28/1 56/26/1 57/27/1
f 93/62/1 91/61/1 94/63/1
f 92/59/1 91/61/1 93/62/1
f 94/63/1 91/61/1 95/64/1
f 98/65/1 95/64/1 96/66/1
f 91/61/1 96/66/1 95/64/1
f 65/29/1 66/31/1 62/30/1
f 62/30/1 66/31/1 67/32/1
f 68/33/1 67/32/1 66/31/1
f 62/30/1 67/32/1 69/34/1
f 69/34/1 67/32/1 70/47/1
f 73/67/1 72/68/1 71/69/1
f 74/70/1 71/69/1 72/68/1
f 74/70/1 75/71/1 71/69/1
f 76/72/1 71/69/1 75/71/1
f 76/72/1 75/71/1 77/73/1
f 78/74/1 77/73/1 75/71/1
f 77/73/1 78/74/1 79/75/1
f 80/76/1 79/75/1 78/74/1
f 80/77/1 81/78/1 79/79/1
f 84/80/1 83/81/1 82/82/1
f 84/80/1 85/83/1 83/81/1
f 85/83/1 86/84/1 83/81/1
f 86/84/1 87/85/1 83/81/1
f 83/81/1 87/85/1 88/86/1
f 89/87/1 88/86/1 87/85/1
f 107/88/1 97/89/1 90/90/1
f 107/88/1 90/90/1 108/91/1
f 90/90/1 100/92/1 109/93/1
f 111/94/1 90/90/1 109/93/1
f 110/95/1 90/90/1 112/96/1
f 108/91/1 90/90/1 110/95/1
f 113/97/1 90/90/1 111/94/1
f 99/88/1 90/90/1 97/89/1
f 112/96/1 90/90/1 113/97/1
f 99/88/1 101/91/1 90/90/1
f 90/90/1 102/93/1 100/92/1
f 101/91/1 103/95/1 90/90/1
f 104/94/1 102/93/1 90/90/1
f 103/95/1 105/96/1 90/90/1
f 106/97/1 104/94/1 90/90/1
f 105/96/1 106/97/1 90/90/1
f 119/103/1 116/98/1 117/101/1
f 119/103/1 120/104/1 116/98/1
f 119/103/1 121/105/1 120/104/1
f 119/103/1 122/106/1 121/105/1
f 119/103/1 123/107/1 122/106/1
f 119/103/1 124/108/1 123/107/1
f 119/103/1 125/109/1 124/108/1
f 119/103/1 126/110/1 125/109/1
f 119/103/1 127/111/1 126/110/1
f 119/103/1 128/112/1 127/111/1
f 119/103/1 129/113/1 128/112/1
f 119/103/1 156/114/1 129/113/1
f 119/103/1 158/115/1 156/114/1
f 119/103/1 162/116/1 158/115/1
f 119/103/1 117/101/1 163/117/1
f 119/103/1 165/119/1 162/116/1
f 119/103/1 163/117/1 167/121/1
f 119/103/1 168/122/1 165/119/1
f 119/103/1 169/123/1 168/122/1
f 119/103/1 167/121/1 169/123/1
f 135/103/1 133/101/1 132/98/1
f 135/103/1 132/98/1 136/104/1
f 135/103/1 136/104/1 137/105/1
f 135/103/1 137/105/1 138/106/1
f 135/103/1 138/106/1 139/107/1
f 135/103/1 139/107/1 140/108/1
f 135/103/1 140/108/1 141/109/1
f 135/103/1 141/109/1 142/110/1
f 135/103/1 142/110/1 143/111/1
f 135/103/1 143/111/1 144/112/1
f 135/103/1 144/112/1 145/113/1
f 135/103/1 145/113/1 146/114/1
f 135/103/1 146/114/1 147/115/1
f 135/103/1 147/115/1 148/116/1
f 135/103/1 149/117/1 133/101/1
f 135/103/1 148/116/1 151/119/1
f 135/103/1 153/121/1 149/117/1
f 135/103/1 151/119/1 154/122/1
f 135/103/1 154/122/1 155/123/1
f 135/103/1 155/123/1 153/121/1
f 24/24/1 25/38/1 27/39/1
f 177/124/1 172/125/1 173/126/1
f 174/127/1 172/125/1 178/128/1
f 177/124/1 178/128/1 172/125/1
f 176/129/1 175/130/1 172/125/1
f 176/129/1 172/125/1 180/131/1
f 173/126/1 183/132/1 185/133/1
f 183/132/1 194/134/1 185/133/1
f 179/135/1 183/136/1 172/137/1
f 173/126/1 172/125/1 183/132/1
f 174/127/1 180/131/1 172/125/1
f 175/130/1 181/138/1 172/125/1
f 175/130/1 182/139/1 181/138/1
f 181/138/1 182/139/1 187/140/1
f 179/135/1 172/137/1 181/136/1
f 186/141/1 196/142/1 184/143/1
f 197/144/1 184/143/1 196/142/1
f 189/144/1 188/142/1 184/143/1
f 186/141/1 184/143/1 188/142/1
f 190/145/1 193/146/1 192/147/1
f 198/148/1 200/149/1 190/145/1
f 170/1/1 157/24/1 159/2/1
f 1/5/1 16/4/1 24/24/1
f 159/2/1 157/24/1 160/35/1
f 24/24/1 16/4/1 25/38/1
f 192/147/1 191/150/1 190/145/1
f 190/145/1 195/151/1 193/146/1
f 190/145/1 191/150/1 198/148/1
f 198/148/1 199/152/1 200/149/1
g KiGe_Deckhouse_D2_001_3_KiGe_Deckhouse_D2_001_3.001_wood_deck_1
usemtl wood_deck_1
f 116/98/1 115/99/1 114/100/1
f 116/98/1 114/100/1 117/101/1
f 118/102/1 117/101/1 114/100/1
f 117/101/1 118/102/1 163/117/1
f 164/118/1 163/117/1 118/102/1
f 166/120/1 162/116/1 165/119/1
f 166/120/1 165/119/1 164/118/1
f 167/121/1 163/117/1 164/118/1
f 165/119/1 168/122/1 164/118/1
f 169/123/1 167/121/1 164/118/1
f 168/122/1 169/123/1 164/118/1
f 132/98/1 130/100/1 131/99/1
f 132/98/1 133/101/1 130/100/1
f 134/102/1 130/100/1 133/101/1
f 133/101/1 149/117/1 134/102/1
f 150/118/1 134/102/1 149/117/1
f 152/120/1 151/119/1 148/116/1
f 152/120/1 150/118/1 151/119/1
f 153/121/1 150/118/1 149/117/1
f 151/119/1 150/118/1 154/122/1
f 155/123/1 150/118/1 153/121/1
f 154/122/1 150/118/1 155/123/1
