# Blender 5.1.0
# www.blender.org
mtllib KiGe_Deckhouse_D2_001_4_KiGe_Deckhouse_D2_001_4.mtl
o KiGe_Deckhouse_D2_001_4_KiGe_Deckhouse_D2_001_4.001
v -0.533591 14.574555 30.042271
v -0.533591 15.498345 30.042278
v -0.985970 14.574555 29.740002
v -0.985970 15.498345 29.740002
v -0.533591 14.574555 27.465771
v -0.533591 15.498345 27.465771
v -0.985970 14.574555 27.768047
v -0.985970 15.498345 27.768040
v -0.750805 12.574554 31.774433
v -0.750805 13.498346 31.774433
v -6.550968 9.498318 17.963993
v -6.098590 10.422109 17.661716
v -6.550968 10.422109 17.963985
v -6.098590 9.498318 17.661720
v -5.564971 10.422108 17.555588
v -5.564971 9.498316 17.555588
v -4.068613 9.498316 17.555588
v -4.068613 10.422108 17.555588
v -6.550968 10.422109 17.963985
v -6.853237 9.498318 18.416367
v -6.550968 9.498318 17.963993
v -6.853238 10.422109 18.416367
v -6.959381 9.498318 18.949989
v -6.959382 10.422109 18.949986
v -6.853248 9.498318 19.483612
v -6.853249 10.422109 19.483612
v -6.550978 9.498318 19.935993
v -6.550979 10.422109 19.935993
v -6.550979 10.422109 19.935993
v -6.098599 9.498319 20.238262
v -6.550978 9.498318 19.935993
v -6.098600 10.422109 20.238262
v -5.564982 9.498319 20.344402
v -5.564983 10.422109 20.344402
v -4.068613 10.422109 20.344402
v -4.068613 9.498319 20.344402
v -6.137619 9.345898 20.332455
v -5.564971 9.345874 17.453629
v -5.564983 9.345898 20.446362
v -6.137608 9.345898 17.567516
v -6.623075 9.345898 20.008087
v -6.623065 9.345898 17.891888
v -6.947435 9.345898 18.377346
v -6.947448 9.345898 19.522633
v -7.061340 9.345885 18.949986
v -4.712198 9.032903 19.929676
v -4.712198 6.574574 17.970272
v -4.712198 9.032902 17.970272
v -4.712198 6.574579 19.929676
v -4.068613 10.422108 17.453629
v -5.464943 9.498393 17.453629
v -5.464943 10.422113 17.453629
v -4.068613 9.498393 17.453629
v -5.464943 9.498393 17.453629
v -5.464977 10.422109 17.246124
v -5.464943 10.422113 17.453629
v -5.464974 9.498384 17.246132
v -5.464974 9.498384 17.246132
v -5.074583 10.422098 16.855824
v -5.464977 10.422109 17.246124
v -5.074579 9.498373 16.855824
v -4.786687 10.422098 16.184544
v -4.786685 9.498373 16.184544
v -4.716794 10.422098 15.524567
v -4.716792 9.498372 15.524574
v -4.716794 10.422088 14.410587
v -4.716792 9.498361 14.410595
v -4.716792 9.498361 14.410595
v -4.068636 10.422086 14.410587
v -4.716794 10.422088 14.410587
v -4.068635 9.498361 14.410595
v -4.068613 9.032903 19.929676
v -4.712198 9.032902 17.970272
v -4.068613 9.032902 17.970272
v -4.712198 9.032903 19.929676
v -4.068613 9.032902 17.970272
v -4.712198 6.574574 17.970272
v -4.068613 6.574574 17.970272
v -4.712198 9.032902 17.970272
v -4.068613 6.574579 19.929676
v 0.000000 15.498345 30.148403
v 0.000000 14.574555 30.148403
v 0.533591 14.574555 30.042271
v 0.533591 15.498345 30.042278
v 0.985970 14.574555 29.740002
v 0.985970 15.498345 29.740002
v -4.712198 9.032903 19.929676
v -4.068613 9.032903 19.929676
v -4.712198 6.574579 19.929676
v -4.068599 9.498392 26.205929
v -4.068597 9.498397 26.901234
v -4.518991 9.498396 26.422802
v -4.830670 9.498396 26.813625
v -4.941910 9.498396 27.300991
v -4.830675 9.498396 27.788342
v -4.518996 9.498397 28.179180
v -4.068608 9.498397 28.396069
v -2.738261 9.498398 28.396053
v -1.288240 14.574555 29.287624
v -0.985970 15.498345 29.740002
v 0.000000 15.498345 27.359638
v 0.000000 14.574553 27.359638
v 0.533591 14.574555 27.465771
v 0.533591 15.498345 27.465771
v 0.985970 14.574555 27.768047
v 0.985970 15.498345 27.768040
v -0.985970 14.574555 29.740002
v -1.288240 15.498345 29.287624
v -1.394382 14.574555 28.754025
v -1.394382 15.498345 28.754025
v -1.288240 15.498345 28.220417
v -1.288240 14.574555 28.220417
v -0.985970 15.498345 27.768040
v -0.985970 14.574555 27.768047
v -0.958061 12.574553 29.675289
v 0.000000 13.498346 31.774448
v -0.958057 13.498346 31.541561
v 0.000000 12.574554 31.774448
v 0.750805 12.574554 31.774433
v 0.750805 13.498346 31.774433
v 6.550968 9.498318 17.963993
v 6.098590 10.422109 17.661716
v 6.550968 10.422109 17.963985
v 6.098590 9.498318 17.661720
v 5.564971 10.422108 17.555588
v 5.564971 9.498316 17.555588
v 4.068613 9.498316 17.555588
v 4.068613 10.422108 17.555588
v 6.550968 10.422109 17.963985
v 6.853237 9.498318 18.416367
v 6.550968 9.498318 17.963993
v 6.853238 10.422109 18.416367
v 6.959381 9.498318 18.949989
v 6.959382 10.422109 18.949986
v 6.853248 9.498318 19.483612
v 6.853249 10.422109 19.483612
v 6.550978 9.498318 19.935993
v 6.550979 10.422109 19.935993
v 6.550979 10.422109 19.935993
v 6.098599 9.498319 20.238262
v 6.550978 9.498318 19.935993
v 6.098600 10.422109 20.238262
v 5.564982 9.498319 20.344402
v 5.564983 10.422109 20.344402
v 4.068613 10.422109 20.344402
v 4.068613 9.498319 20.344402
v 6.137619 9.345898 20.332455
v 5.564971 9.345874 17.453629
v 5.564983 9.345898 20.446362
v 6.137608 9.345898 17.567516
v 6.623075 9.345898 20.008087
v 6.623065 9.345898 17.891888
v 6.947435 9.345898 18.377346
v 6.947448 9.345898 19.522633
v 7.061340 9.345885 18.949986
v 4.712198 9.032903 19.929676
v 4.712198 6.574574 17.970272
v 4.712198 9.032902 17.970272
v 4.712198 6.574579 19.929676
v 4.068613 10.422108 17.453629
v 5.464943 9.498393 17.453629
v 5.464943 10.422113 17.453629
v 4.068613 9.498393 17.453629
v 5.464943 9.498393 17.453629
v 5.464977 10.422109 17.246124
v 5.464943 10.422113 17.453629
v 5.464974 9.498384 17.246132
v 5.464974 9.498384 17.246132
v 5.074583 10.422098 16.855824
v 5.464977 10.422109 17.246124
v 5.074579 9.498373 16.855824
v 4.786687 10.422098 16.184544
v 4.786685 9.498373 16.184544
v 4.716794 10.422098 15.524567
v 4.716792 9.498372 15.524574
v 4.716794 10.422088 14.410587
v 4.716792 9.498361 14.410595
v 4.716792 9.498361 14.410595
v 4.068636 10.422086 14.410587
v 4.716794 10.422088 14.410587
v 4.068635 9.498361 14.410595
v 4.068613 9.032903 19.929676
v 4.712198 9.032902 17.970272
v 4.068613 9.032902 17.970272
v 4.712198 9.032903 19.929676
v 4.068613 9.032902 17.970272
v 4.712198 6.574574 17.970272
v 4.068613 6.574574 17.970272
v 4.712198 9.032902 17.970272
v 4.068613 6.574579 19.929676
v 4.712198 9.032903 19.929676
v 4.068613 9.032903 19.929676
v 4.712198 6.574579 19.929676
v 4.068599 9.498392 26.205929
v 4.068597 9.498397 26.901234
v 4.518991 9.498396 26.422802
v 4.830670 9.498396 26.813625
v 4.941910 9.498396 27.300991
v 4.830675 9.498396 27.788342
v 4.518996 9.498397 28.179180
v 4.068608 9.498397 28.396069
v 2.738261 9.498398 28.396053
v 1.288240 14.574555 29.287624
v 0.985970 15.498345 29.740002
v 0.985970 14.574555 29.740002
v 1.288240 15.498345 29.287624
v 1.394382 14.574555 28.754025
v 1.394382 15.498345 28.754025
v 1.288240 15.498345 28.220417
v 1.288240 14.574555 28.220417
v 0.985970 15.498345 27.768040
v 0.985970 14.574555 27.768047
v 0.958061 12.574553 29.675289
v 0.958057 13.498346 31.541561
v 0.958057 12.574554 31.541561
v 0.958061 13.498344 29.675289
v 0.958057 12.574554 31.541561
v 0.750805 13.498346 31.774433
v 0.750805 12.574554 31.774433
v 0.958057 13.498346 31.541561
v -0.958057 12.574554 31.541561
v 0.000000 19.673906 4.884430
v -0.958061 13.498344 29.675289
v -0.958057 12.574554 31.541561
v -0.750805 13.498346 31.774433
v 0.920228 19.673906 5.868927
v 0.920220 19.673906 5.018997
v 2.338049 19.673906 3.348465
v 2.095459 19.673906 3.105873
v -0.750805 12.574554 31.774433
v -0.958057 13.498346 31.541561
v 0.476372 19.673906 6.407814
v 2.095519 19.673906 7.782051
v 2.338108 19.673906 7.539467
v 0.000000 19.673906 5.868927
v 0.000000 19.673906 6.224003
v 0.000000 19.673906 6.407814
v -0.920228 19.673906 5.868927
v -0.920220 19.673906 5.018997
v -2.338049 19.673906 3.348465
v -2.095459 19.673906 3.105873
v -0.476372 19.673906 6.407814
v -2.095519 19.673906 7.782051
v -2.338108 19.673906 7.539467
vn -0.0000 -0.0000 -1.0000
vn 0.3827 -0.0000 -0.9239
vn 0.5449 0.1947 -0.8156
vn 0.5449 -0.1947 -0.8156
vn -0.0000 -0.0000 1.0000
vn 0.3827 -0.0000 0.9239
vn 0.5449 0.1947 0.8156
vn 0.5449 -0.1947 0.8156
vn 0.0980 -0.0000 0.9952
vn 0.8156 0.1947 0.5449
vn 0.8156 -0.1947 0.5449
vn 0.9239 -0.0000 0.3827
vn 1.0000 -0.0000 -0.0000
vn 0.9239 -0.0000 -0.3827
vn 0.8156 0.1947 -0.5449
vn 0.8156 -0.1947 -0.5449
vn 0.0980 -0.0000 -0.9952
vn -0.0000 -1.0000 -0.0000
vn 0.0001 -1.0000 -0.0000
vn 1.0000 -0.0000 -0.0002
vn 1.0000 -0.0000 -0.0001
vn 0.7070 -0.0000 0.7072
vn 0.8280 -0.0000 0.5608
vn 0.9676 -0.0000 0.2526
vn 0.9986 -0.0000 0.0527
vn -0.3827 -0.0000 -0.9239
vn -0.7068 -0.0000 -0.7074
vn -0.3827 -0.0000 0.9239
vn -0.7068 -0.0000 0.7074
vn 0.7470 -0.0000 -0.6648
vn -0.0980 -0.0000 0.9952
vn -0.7074 -0.0000 0.7068
vn -0.9239 -0.0000 0.3827
vn -1.0000 -0.0000 -0.0000
vn -0.9239 -0.0000 -0.3827
vn -0.7074 -0.0000 -0.7068
vn -0.0980 -0.0000 -0.9952
vn -0.0001 -1.0000 -0.0000
vn -1.0000 -0.0000 -0.0002
vn -1.0000 -0.0000 -0.0001
vn -0.7070 -0.0000 0.7072
vn -0.8280 -0.0000 0.5608
vn -0.9676 -0.0000 0.2526
vn -0.9986 -0.0000 0.0527
vn -0.7470 -0.0000 -0.6648
vt 0.480348 0.514861
vt 0.472239 0.514861
vt 0.480348 0.528801
vt 0.472239 0.528801
vt 0.465364 0.514861
vt 0.465364 0.528801
vt 0.519652 0.514861
vt 0.519652 0.528800
vt 0.527761 0.514861
vt 0.527761 0.528801
vt 0.534636 0.514861
vt 0.534636 0.528801
vt 0.480348 0.484682
vt 0.468938 0.484682
vt 0.480348 0.498621
vt 0.468938 0.498621
vt 0.619205 0.452202
vt 0.619205 0.438263
vt 0.612330 0.452202
vt 0.612330 0.438263
vt 0.604221 0.452202
vt 0.604221 0.438263
vt 0.581481 0.438263
vt 0.581481 0.452202
vt 7.481896 0.438263
vt 7.481896 0.452202
vt 7.488739 0.438263
vt 7.488739 0.452202
vt 7.496810 0.438263
vt 7.496810 0.452202
vt 7.504882 0.438263
vt 7.504882 0.452202
vt 7.511725 0.438263
vt 7.511725 0.452202
vt 0.380795 0.438263
vt 0.380795 0.452202
vt 0.387670 0.438263
vt 0.387670 0.452202
vt 0.395779 0.438263
vt 0.395779 0.452202
vt 0.418519 0.452202
vt 0.418519 0.438263
vt 0.604221 7.519445
vt 0.612923 7.517722
vt 0.604221 7.474176
vt 0.612923 7.475899
vt 0.620300 7.512815
vt 0.620300 7.480805
vt 0.625229 7.488149
vt 0.625230 7.505473
vt 0.626960 7.496810
vt 7.481991 0.431240
vt 7.511630 0.431240
vt 7.481991 0.394145
vt 7.511630 0.394145
vt 0.397299 0.452202
vt 0.397299 0.438264
vt 0.418519 0.438264
vt 7.474176 0.452202
vt 7.474176 0.438264
vt 7.471037 0.452202
vt 7.471038 0.438264
vt 7.465134 0.452202
vt 7.465134 0.438263
vt 7.454980 0.452202
vt 7.454980 0.438263
vt 7.444997 0.452202
vt 7.444997 0.438263
vt 7.428146 0.452202
vt 7.428147 0.438263
vt 0.591331 0.452202
vt 0.591331 0.438263
vt 0.581482 0.452202
vt 0.581482 0.438263
vt 0.581481 7.481991
vt 0.581481 7.511630
vt 0.591262 7.481991
vt 0.591262 7.511630
vt 0.581481 0.394145
vt 0.581481 0.431240
vt 0.591262 0.394145
vt 0.591262 0.431240
vt 0.408738 0.394145
vt 0.408738 0.431240
vt 0.418519 0.394145
vt 0.588325 7.609846
vt 0.581481 7.606565
vt 0.581481 7.617083
vt 0.418519 0.431240
vt 0.593062 7.615758
vt 0.594752 7.623130
vt 0.593062 7.630502
vt 0.588325 7.636414
vt 0.581481 7.639694
vt 0.561264 7.639694
vt 7.660023 0.514861
vt 7.653180 0.514861
vt 7.660023 0.528801
vt 7.653180 0.528801
vt 7.645109 0.514861
vt 7.637037 0.514861
vt 7.637037 0.528801
vt 7.645109 0.528801
vt 7.630195 0.528801
vt 7.630195 0.514861
vt 7.687274 0.484682
vt 7.659044 0.484682
vt 7.687274 0.498621
vt 7.659044 0.498621
vt 7.690796 0.498621
vt 7.690796 0.484682
vt 0.519652 7.605755
vt 0.519652 7.620647
vt 0.533637 7.620647
vt 0.533637 7.607790
vt 0.555183 7.582521
vt 0.551496 7.578852
vt 0.519652 7.626018
vt 0.555184 7.645916
vt 0.551497 7.649585
vt 0.526892 7.628798
vt 0.519652 7.628798
s 1
g KiGe_Deckhouse_D2_001_4_KiGe_Deckhouse_D2_001_4.001_steel_4
usemtl steel_4
f 82/1/1 1/2/2 81/3/1
f 2/4/2 81/3/1 1/2/2
f 1/2/2 3/5/3 2/4/2
f 4/6/4 2/4/2 3/5/3
f 102/7/5 101/8/5 5/9/6
f 6/10/6 5/9/6 101/8/5
f 5/9/6 6/10/6 7/11/7
f 8/12/8 7/11/7 6/10/6
f 118/13/1 9/14/1 116/15/1
f 10/16/1 116/15/1 9/14/1
f 13/17/8 11/18/7 12/19/6
f 14/20/6 12/19/6 11/18/7
f 12/19/6 14/20/6 15/21/9
f 16/22/9 15/21/9 14/20/6
f 16/22/9 17/23/5 15/21/9
f 18/24/5 15/21/9 17/23/5
f 21/25/10 19/26/11 20/27/12
f 22/28/12 20/27/12 19/26/11
f 20/27/12 22/28/12 23/29/13
f 24/30/13 23/29/13 22/28/12
f 23/29/13 24/30/13 25/31/14
f 26/32/14 25/31/14 24/30/13
f 25/31/14 26/32/14 27/33/15
f 28/34/16 27/33/15 26/32/14
f 31/35/3 29/36/4 30/37/2
f 32/38/2 30/37/2 29/36/4
f 30/37/2 32/38/2 33/39/17
f 34/40/17 33/39/17 32/38/2
f 34/40/17 35/41/1 33/39/17
f 36/42/1 33/39/17 35/41/1
f 39/43/18 37/44/18 38/45/18
f 40/46/18 38/45/18 37/44/18
f 37/44/18 41/47/18 40/46/18
f 42/48/18 40/46/18 41/47/18
f 42/48/18 41/47/18 43/49/18
f 44/50/18 43/49/18 41/47/18
f 43/49/18 44/50/18 45/51/19
f 48/52/13 46/53/13 47/54/13
f 49/55/13 47/54/13 46/53/13
f 52/56/1 50/41/1 51/57/1
f 53/58/1 51/57/1 50/41/1
f 56/59/20 54/60/20 55/61/20
f 57/62/21 55/61/20 54/60/20
f 60/61/22 58/62/22 59/63/23
f 61/64/23 59/63/23 58/62/22
f 59/63/23 61/64/23 62/65/24
f 63/66/24 62/65/24 61/64/23
f 62/65/24 63/66/24 64/67/25
f 65/68/25 64/67/25 63/66/24
f 64/67/25 65/68/25 66/69/13
f 67/70/13 66/69/13 65/68/25
f 70/71/5 68/72/5 69/73/5
f 71/74/5 69/73/5 68/72/5
f 74/75/18 72/76/18 73/77/18
f 75/78/18 73/77/18 72/76/18
f 78/79/5 76/80/5 77/81/5
f 79/82/5 77/81/5 76/80/5
f 89/83/1 87/84/1 80/85/1
f 92/86/18 90/87/18 91/88/18
f 88/89/1 80/85/1 87/84/1
f 82/1/1 81/3/1 83/2/26
f 84/4/26 83/2/26 81/3/1
f 83/2/26 84/4/26 85/5/27
f 86/6/27 85/5/27 84/4/26
f 92/86/18 91/88/18 93/90/18
f 93/90/18 91/88/18 94/91/18
f 94/91/18 91/88/18 95/92/18
f 95/92/18 91/88/18 96/93/18
f 96/93/18 91/88/18 97/94/18
f 97/94/18 91/88/18 98/95/18
f 107/96/15 99/97/14 100/98/16
f 108/99/14 100/98/16 99/97/14
f 99/97/14 109/100/13 108/99/14
f 112/101/12 111/102/12 109/100/13
f 110/103/13 109/100/13 111/102/12
f 110/103/13 108/99/14 109/100/13
f 102/7/5 103/9/28 101/8/5
f 104/10/28 101/8/5 103/9/28
f 103/9/28 105/11/29 104/10/28
f 106/12/29 104/10/28 105/11/29
f 111/102/12 112/101/12 113/104/11
f 114/105/10 113/104/11 112/101/12
f 221/106/13 115/107/13 117/108/13
f 223/109/13 117/108/13 115/107/13
f 231/108/30 225/110/30 224/106/30
f 230/111/30 224/106/30 225/110/30
f 118/13/1 116/15/1 119/14/1
f 120/16/1 119/14/1 116/15/1
f 123/17/29 122/19/28 121/18/29
f 124/20/28 121/18/29 122/19/28
f 122/19/28 125/21/31 124/20/28
f 126/22/31 124/20/28 125/21/31
f 126/22/31 125/21/31 127/23/5
f 128/24/5 127/23/5 125/21/31
f 131/25/32 130/27/33 129/26/32
f 132/28/33 129/26/32 130/27/33
f 130/27/33 133/29/34 132/28/33
f 134/30/34 132/28/33 133/29/34
f 133/29/34 135/31/35 134/30/34
f 136/32/35 134/30/34 135/31/35
f 135/31/35 137/33/36 136/32/35
f 138/34/36 136/32/35 137/33/36
f 141/35/27 140/37/26 139/36/27
f 142/38/26 139/36/27 140/37/26
f 140/37/26 143/39/37 142/38/26
f 144/40/37 142/38/26 143/39/37
f 144/40/37 143/39/37 145/41/1
f 146/42/1 145/41/1 143/39/37
f 149/43/18 148/45/18 147/44/18
f 150/46/18 147/44/18 148/45/18
f 147/44/18 150/46/18 151/47/18
f 152/48/18 151/47/18 150/46/18
f 152/48/18 153/49/18 151/47/18
f 154/50/18 151/47/18 153/49/18
f 153/49/18 155/51/38 154/50/18
f 158/52/34 157/54/34 156/53/34
f 159/55/34 156/53/34 157/54/34
f 162/56/1 161/57/1 160/41/1
f 163/58/1 160/41/1 161/57/1
f 166/59/39 165/61/39 164/60/39
f 167/62/40 164/60/39 165/61/39
f 170/61/41 169/63/42 168/62/41
f 171/64/42 168/62/41 169/63/42
f 169/63/42 172/65/43 171/64/42
f 173/66/43 171/64/42 172/65/43
f 172/65/43 174/67/44 173/66/43
f 175/68/44 173/66/43 174/67/44
f 174/67/44 176/69/34 175/68/44
f 177/70/34 175/68/44 176/69/34
f 180/71/5 179/73/5 178/72/5
f 181/74/5 178/72/5 179/73/5
f 184/75/18 183/77/18 182/76/18
f 185/78/18 182/76/18 183/77/18
f 188/79/5 187/81/5 186/80/5
f 189/82/5 186/80/5 187/81/5
f 192/89/1 191/84/1 190/85/1
f 193/83/1 190/85/1 191/84/1
f 196/86/18 195/88/18 194/87/18
f 196/86/18 197/90/18 195/88/18
f 197/90/18 198/91/18 195/88/18
f 198/91/18 199/92/18 195/88/18
f 199/92/18 200/93/18 195/88/18
f 200/93/18 201/94/18 195/88/18
f 201/94/18 202/95/18 195/88/18
f 205/96/36 204/98/36 203/97/35
f 206/99/35 203/97/35 204/98/36
f 203/97/35 206/99/35 207/100/34
f 208/103/34 207/100/34 206/99/35
f 208/103/34 209/102/33 207/100/34
f 210/101/33 207/100/34 209/102/33
f 209/102/33 211/104/32 210/101/33
f 212/105/32 210/101/33 211/104/32
f 215/106/34 214/108/34 213/107/34
f 216/109/34 213/107/34 214/108/34
f 219/111/45 218/110/45 217/106/45
f 220/108/45 217/106/45 218/110/45
f 222/112/18 235/113/18 238/114/18
f 239/115/18 222/112/18 238/114/18
f 239/115/18 240/116/18 222/112/18
f 222/112/18 226/114/18 235/113/18
f 227/115/18 226/114/18 222/112/18
f 227/115/18 222/112/18 228/116/18
f 229/117/18 228/116/18 222/112/18
f 235/113/18 226/114/18 236/118/18
f 244/119/18 238/114/18 243/120/18
f 242/121/18 236/118/18 237/122/18
f 235/113/18 236/118/18 238/114/18
f 232/121/18 226/114/18 233/120/18
f 234/119/18 233/120/18 226/114/18
f 232/121/18 236/118/18 226/114/18
f 242/121/18 243/120/18 238/114/18
f 241/117/18 222/112/18 240/116/18
f 242/121/18 238/114/18 236/118/18
f 232/121/18 237/122/18 236/118/18
