# Blender 5.1.0
# www.blender.org
mtllib KiGe_Deckhouse_С2_001_8_KiGe_Deckhouse_С2_001_8.mtl
o KiGe_Deckhouse_С2_001_8_KiGe_Deckhouse_С2_001_8.001
v 3.639273 9.178309 12.481174
v 3.639273 9.178309 12.064190
v -0.541116 9.178306 12.522121
v -0.541116 9.178302 12.023426
v -3.639267 9.178306 7.742954
v -3.639267 9.178306 7.325970
v 0.541123 9.178306 7.783909
v 0.541123 9.178302 7.285213
v 1.111777 8.064208 12.978024
v 1.111761 9.178309 11.567341
v 1.111761 8.064208 11.567341
v 1.111777 9.178309 12.978024
v -2.519937 9.178302 11.526585
v -2.519937 8.064189 13.018978
v -2.519937 9.178306 13.018978
v -2.519938 8.064189 11.526585
v 3.639273 9.178309 12.978024
v 1.111777 8.064208 12.978024
v 3.639273 8.064208 12.978024
v 1.111777 9.178309 12.978024
v 3.639273 8.064208 11.567341
v 1.111761 9.178309 11.567341
v 3.639273 9.178309 11.567341
v 1.111761 8.064208 11.567341
v -0.541116 9.178306 13.018970
v -2.519937 8.064189 13.018978
v -0.541116 8.064189 13.018970
v -2.519937 9.178306 13.018978
v -0.541117 8.064189 11.526585
v -2.519937 9.178302 11.526585
v -0.541116 9.178302 11.526577
v -2.519938 8.064189 11.526585
v 3.639273 9.178309 12.481174
v 3.639273 8.064208 12.978024
v 3.639273 8.064208 12.481174
v 3.639273 9.178309 12.978024
v 1.111777 9.178309 12.978024
v 3.639273 9.178309 12.978024
v 1.111761 9.178309 11.567341
v 3.639273 9.178309 11.567341
v 3.639273 8.064208 12.064190
v 3.639273 9.178309 11.567341
v 3.639273 9.178309 12.064190
v 3.639273 8.064208 11.567341
v -0.541116 9.178306 12.522121
v -0.541116 8.064189 13.018970
v -0.541116 8.064189 12.522121
v -0.541116 9.178306 13.018970
v -2.519937 9.178306 13.018978
v -0.541116 9.178306 13.018970
v -2.519937 9.178302 11.526585
v -0.541116 9.178302 11.526577
v -0.541117 8.064189 12.023426
v -0.541116 9.178302 11.526577
v -0.541116 9.178302 12.023426
v -0.541117 8.064189 11.526585
v -1.111770 8.064208 8.239803
v -1.111755 9.178309 6.829121
v -1.111770 9.178306 8.239803
v -1.111755 8.064208 6.829121
v 2.519943 9.178302 6.788364
v 2.519944 8.064189 8.280758
v 2.519943 8.064189 6.788364
v 2.519943 9.178306 8.280758
v -3.639267 9.178306 8.239803
v -1.111770 8.064208 8.239803
v -1.111770 9.178306 8.239803
v -3.639267 8.064208 8.239803
v -3.639267 8.064208 6.829121
v -1.111755 9.178309 6.829121
v -1.111755 8.064208 6.829121
v -3.639267 9.178306 6.829121
v 0.541123 9.178306 8.280750
v 2.519944 8.064189 8.280758
v 2.519943 9.178306 8.280758
v 0.541123 8.064189 8.280750
v 0.541123 8.064189 6.788364
v 2.519943 9.178302 6.788364
v 2.519943 8.064189 6.788364
v 0.541123 9.178302 6.788364
v -3.639267 9.178306 7.742954
v -3.639267 8.064208 8.239803
v -3.639267 9.178306 8.239803
v -3.639267 8.064208 7.742954
v -1.111770 9.178306 8.239803
v -3.639267 9.178306 8.239803
v -1.111755 9.178309 6.829121
v -3.639267 9.178306 6.829121
v -3.639267 8.064208 7.325970
v -3.639267 9.178306 6.829121
v -3.639267 8.064208 6.829121
v -3.639267 9.178306 7.325970
v 0.541123 9.178306 7.783909
v 0.541123 8.064189 8.280750
v 0.541123 9.178306 8.280750
v 0.541123 8.064189 7.783909
v 2.519943 9.178306 8.280758
v 0.541123 9.178306 8.280750
v 2.519943 9.178302 6.788364
v 0.541123 9.178302 6.788364
v 0.541123 8.064189 7.285213
v 0.541123 9.178302 6.788364
v 0.541123 8.064189 6.788364
v 0.541123 9.178302 7.285213
vn 1.0000 -0.0000 -0.0000
vn -0.0000 -0.0000 -1.0000
vn -0.0000 -0.0000 1.0000
vn -1.0000 -0.0000 -0.0000
vn -0.0000 -1.0000 -0.0000
vt 0.494377 0.359516
vt 0.494377 0.376327
vt 0.472939 0.359516
vt 0.472939 0.376327
vt 0.472317 0.376327
vt 0.472317 0.359516
vt 0.494996 0.376327
vt 0.494996 0.359516
vt -2.281148 0.359516
vt -2.242917 0.359516
vt -2.281148 0.376327
vt -2.242917 0.376327
vt 3.281148 0.376327
vt 3.242916 0.376327
vt 3.281148 0.359516
vt 3.242916 0.359516
vt -2.217914 0.359516
vt -2.187983 0.359516
vt -2.217914 0.376327
vt -2.187983 0.376327
vt 3.217914 0.376327
vt 3.187983 0.376327
vt 3.217914 0.359516
vt 3.187983 0.359516
vt 0.519510 0.359516
vt 0.527061 0.359516
vt 0.519510 0.376327
vt 0.527061 0.376327
vt 0.480490 3.281148
vt 0.472939 3.281148
vt 0.472939 3.242917
vt 0.486827 3.281148
vt 0.494377 3.242916
vt 0.494377 3.281148
vt 0.513173 0.376327
vt 0.505623 0.376327
vt 0.513173 0.359516
vt 0.505623 0.359516
vt 0.520132 0.359516
vt 0.527683 0.359516
vt 0.520132 0.376327
vt 0.527683 0.376327
vt 0.479868 3.217914
vt 0.472317 3.217914
vt 0.472317 3.187983
vt 0.487446 3.217914
vt 0.494996 3.187983
vt 0.494996 3.217914
vt 0.512554 0.376327
vt 0.505004 0.376327
vt 0.512554 0.359516
vt 0.505004 0.359516
vt 0.566378 0.376327
vt 0.544940 0.376327
vt 0.566378 0.359516
vt 0.544940 0.359516
vt 0.544321 0.359516
vt 0.567000 0.359516
vt 0.544321 0.376327
vt 0.567000 0.376327
vt 3.242917 0.376327
vt 3.242917 0.359516
vt -2.242916 0.359516
vt -2.242916 0.376327
vt 0.433623 0.376327
vt 0.433623 0.359516
vt 0.441173 0.376327
vt 0.441173 0.359516
vt 0.566378 3.281148
vt 0.558827 3.281148
vt 0.566378 3.242917
vt 0.552490 3.281148
vt 0.544940 3.242916
vt 0.544940 3.281148
vt 0.455060 0.359516
vt 0.455060 0.376327
vt 0.447510 0.359516
vt 0.447510 0.376327
vt 0.433000 0.376327
vt 0.433000 0.359516
vt 0.440550 0.376327
vt 0.440550 0.359516
vt 0.567000 3.217914
vt 0.559450 3.217914
vt 0.567000 3.187983
vt 0.551871 3.217914
vt 0.544321 3.187983
vt 0.544321 3.217914
vt 0.455679 0.359516
vt 0.455679 0.376327
vt 0.448129 0.359516
vt 0.448129 0.376327
s 1
g KiGe_Deckhouse_С2_001_8_KiGe_Deckhouse_С2_001_8.001_steel_4
usemtl steel_4
f 11/1/1 10/2/1 9/3/1
f 12/4/1 9/3/1 10/2/1
f 15/5/1 14/6/1 13/7/1
f 16/8/1 13/7/1 14/6/1
f 19/9/2 18/10/2 17/11/2
f 20/12/2 17/11/2 18/10/2
f 23/13/3 22/14/3 21/15/3
f 24/16/3 21/15/3 22/14/3
f 27/17/2 26/18/2 25/19/2
f 28/20/2 25/19/2 26/18/2
f 31/21/3 30/22/3 29/23/3
f 32/24/3 29/23/3 30/22/3
f 35/25/4 34/26/4 33/27/4
f 36/28/4 33/27/4 34/26/4
f 1/29/5 38/30/5 37/31/5
f 1/29/5 37/31/5 2/32/5
f 39/33/5 2/32/5 37/31/5
f 39/33/5 40/34/5 2/32/5
f 43/35/4 42/36/4 41/37/4
f 44/38/4 41/37/4 42/36/4
f 47/39/4 46/40/4 45/41/4
f 48/42/4 45/41/4 46/40/4
f 3/43/5 50/44/5 49/45/5
f 3/43/5 49/45/5 4/46/5
f 51/47/5 4/46/5 49/45/5
f 51/47/5 52/48/5 4/46/5
f 55/49/4 54/50/4 53/51/4
f 56/52/4 53/51/4 54/50/4
f 59/53/4 58/54/4 57/55/4
f 60/56/4 57/55/4 58/54/4
f 63/57/4 62/58/4 61/59/4
f 64/60/4 61/59/4 62/58/4
f 67/61/2 66/62/2 65/13/2
f 68/15/2 65/13/2 66/62/2
f 71/63/3 70/64/3 69/9/3
f 72/11/3 69/9/3 70/64/3
f 75/22/2 74/24/2 73/21/2
f 76/23/2 73/21/2 74/24/2
f 79/18/3 78/20/3 77/17/3
f 80/19/3 77/17/3 78/20/3
f 83/65/1 82/66/1 81/67/1
f 84/68/1 81/67/1 82/66/1
f 86/69/5 5/70/5 85/71/5
f 5/70/5 6/72/5 85/71/5
f 87/73/5 85/71/5 6/72/5
f 88/74/5 87/73/5 6/72/5
f 91/75/1 90/76/1 89/77/1
f 92/78/1 89/77/1 90/76/1
f 95/79/1 94/80/1 93/81/1
f 96/82/1 93/81/1 94/80/1
f 98/83/5 7/84/5 97/85/5
f 7/84/5 8/86/5 97/85/5
f 99/87/5 97/85/5 8/86/5
f 100/88/5 99/87/5 8/86/5
f 103/89/1 102/90/1 101/91/1
f 104/92/1 101/91/1 102/90/1
