# Blender 5.1.0
# www.blender.org
mtllib P_Spotlight_A_001.mtl
o Spotlight.002
v -0.457223 1.309274 -0.308279
v -0.395968 1.080663 -0.308279
v -0.395968 1.537882 -0.308282
v -0.228614 0.913309 -0.308279
v -0.228614 1.705237 -0.308279
v -0.000003 0.852051 -0.308281
v -0.000003 1.766494 -0.308280
v 0.228608 0.913309 -0.308280
v 0.228606 1.705239 -0.308281
v 0.395963 1.080663 -0.308281
v 0.395963 1.537882 -0.308280
v 0.457219 1.309274 -0.308280
v -0.228614 0.913309 -0.308279
v -0.395968 1.080663 0.398371
v -0.228614 0.913309 0.398371
v -0.395968 1.080663 -0.308279
v -0.457223 1.309272 0.398374
v -0.457223 1.309274 -0.308279
v -0.395968 1.537881 0.398371
v -0.395968 1.537882 -0.308282
v -0.228614 1.705235 0.398369
v -0.228614 1.705237 -0.308279
v -0.228614 0.913309 0.398371
v -0.000003 0.852051 -0.308281
v -0.228614 0.913309 -0.308279
v -0.000003 0.852050 0.398373
v 0.228608 0.913309 -0.308280
v 0.228608 0.913309 0.398373
v 0.228608 0.913309 0.398373
v 0.395963 1.080663 -0.308281
v 0.228608 0.913309 -0.308280
v 0.395962 1.080663 0.398373
v 0.457219 1.309274 -0.308280
v 0.457219 1.309274 0.398369
v 0.395963 1.537882 -0.308280
v 0.395963 1.537881 0.398373
v 0.228606 1.705239 -0.308281
v 0.228606 1.705235 0.398369
v 0.228606 1.705235 0.398369
v -0.000003 1.766494 -0.308280
v 0.228606 1.705239 -0.308281
v -0.000003 1.766494 0.398369
v -0.228614 1.705237 -0.308279
v -0.228614 1.705235 0.398369
v -0.206769 0.548937 -0.199096
v -0.366756 -0.000001 -0.046610
v -0.296115 -0.000001 -0.264012
v -0.256316 0.548937 -0.046608
v -0.296118 -0.000002 0.170796
v -0.206769 0.548937 0.105882
v -0.296115 -0.000001 -0.264012
v -0.077056 0.548937 -0.293340
v -0.206769 0.548937 -0.199096
v -0.111181 -0.000001 -0.398374
v 0.083282 0.548937 -0.293339
v 0.117410 -0.000001 -0.398374
v 0.212995 0.548937 -0.199096
v 0.302341 -0.000000 -0.264010
v 0.302341 -0.000000 -0.264010
v 0.262542 0.548937 -0.046608
v 0.212995 0.548937 -0.199096
v 0.372982 -0.000000 -0.046608
v 0.212995 0.548937 0.105882
v 0.302341 0.000000 0.170796
v 0.302341 0.000000 0.170796
v 0.083279 0.548937 0.200125
v 0.212995 0.548937 0.105882
v 0.117407 -0.000002 0.305157
v -0.077056 0.548937 0.200125
v -0.111184 -0.000002 0.305157
v -0.206769 0.548937 0.105882
v -0.296118 -0.000002 0.170796
v -0.077056 0.548937 0.200125
v 0.212995 0.548937 0.105882
v 0.083279 0.548937 0.200125
v 0.212995 0.548937 -0.199096
v 0.262542 0.548937 -0.046608
v -0.077056 0.548937 -0.293340
v 0.083282 0.548937 -0.293339
v -0.256316 0.548937 -0.046608
v -0.206769 0.548937 0.105882
v -0.206769 0.548937 -0.199096
v 0.413460 1.338735 0.375860
v -0.413466 1.338734 0.305403
v 0.413463 1.338690 0.305416
v -0.413472 1.338653 0.375859
v -0.413472 1.338653 0.375859
v 0.415649 1.296456 0.377442
v -0.415661 1.296456 0.377442
v 0.413460 1.338735 0.375860
v 0.415649 1.296454 0.305403
v -0.415661 1.296456 0.377442
v 0.415649 1.296456 0.377442
v -0.415661 1.296454 0.305403
v 0.021135 0.904128 0.375860
v 0.021135 1.731054 0.305403
v 0.021090 0.904125 0.305416
v 0.021053 1.731059 0.375859
v 0.021053 1.731059 0.375859
v -0.021146 0.901939 0.377442
v -0.021146 1.733249 0.377442
v 0.021135 0.904128 0.375860
v -0.021146 0.901936 0.305403
v -0.021146 1.733249 0.377442
v -0.021146 0.901939 0.377442
v -0.021146 1.733249 0.305403
v -0.198048 0.966248 0.398371
v -0.309545 1.130557 0.140844
v -0.178718 0.999730 0.140846
v -0.343027 1.111227 0.398371
v -0.357431 1.309272 0.140847
v -0.396094 1.309272 0.398374
v -0.309545 1.487985 0.140844
v -0.343027 1.507316 0.398371
v -0.178718 1.618811 0.140843
v -0.198048 1.652295 0.398369
v -0.178718 0.999730 0.140846
v -0.000003 0.913182 0.398373
v -0.198048 0.966248 0.398371
v -0.000003 0.951843 0.140846
v 0.198042 0.966248 0.398373
v 0.178712 0.999730 0.140846
v 0.178712 0.999730 0.140846
v 0.343021 1.111228 0.398373
v 0.198042 0.966248 0.398373
v 0.309539 1.130557 0.140846
v 0.396087 1.309274 0.398369
v 0.357426 1.309272 0.140842
v 0.343022 1.507316 0.398373
v 0.309541 1.487987 0.140846
v 0.198042 1.652295 0.398369
v 0.178712 1.618811 0.140843
v 0.178712 1.618811 0.140843
v -0.000003 1.705363 0.398369
v 0.198042 1.652295 0.398369
v -0.000003 1.666700 0.140843
v -0.198048 1.652295 0.398369
v -0.178718 1.618811 0.140843
v -0.303575 0.630917 -0.114799
v -0.528651 0.784253 0.051477
v -0.528651 0.784253 -0.114799
v -0.303575 0.630917 0.051477
v 0.303577 0.630918 0.051477
v 0.303577 0.630918 -0.114799
v 0.528653 0.784255 0.051477
v 0.528653 0.784255 -0.114799
v -0.376851 0.474657 0.051477
v -0.622137 0.718398 -0.114799
v -0.622137 0.718398 0.051477
v -0.376851 0.474657 -0.114799
v 0.376853 0.474657 0.051477
v 0.376853 0.474657 -0.114799
v 0.622137 0.718401 -0.114799
v 0.622137 0.718401 0.051477
v -0.622137 1.175836 -0.114799
v -0.622137 0.718398 0.051477
v -0.622137 0.718398 -0.114799
v -0.622137 1.175836 0.051477
v -0.658975 1.425785 -0.156363
v -0.658974 1.175835 0.093047
v -0.658974 1.175836 -0.156363
v -0.658974 1.425784 0.093047
v -0.528651 1.175837 0.051477
v -0.622137 0.718398 0.051477
v -0.622137 1.175836 0.051477
v -0.528651 0.784253 0.051477
v -0.303575 0.630917 0.051477
v -0.376851 0.474657 0.051477
v 0.376853 0.474657 0.051477
v 0.303577 0.630918 0.051477
v 0.622137 0.718401 0.051477
v 0.528653 0.784255 0.051477
v 0.528653 1.175839 0.051477
v 0.622137 1.175839 0.051477
v -0.622137 1.175836 -0.114799
v -0.528651 0.784253 -0.114799
v -0.528651 1.175837 -0.114799
v -0.622137 0.718398 -0.114799
v -0.303575 0.630917 -0.114799
v -0.376851 0.474657 -0.114799
v 0.303577 0.630918 -0.114799
v 0.376853 0.474657 -0.114799
v 0.622137 0.718401 -0.114799
v 0.528653 0.784255 -0.114799
v 0.622137 1.175839 -0.114799
v 0.528653 1.175839 -0.114799
v 0.658974 1.425787 0.093047
v -0.658974 1.175835 0.093047
v -0.658974 1.425784 0.093047
v 0.658975 1.175837 0.093047
v -0.528651 1.175837 0.051477
v -0.528651 0.784253 -0.114799
v -0.528651 0.784253 0.051477
v -0.528651 1.175837 -0.114799
v -0.658974 1.175835 0.093047
v 0.658975 1.175839 -0.156361
v -0.658974 1.175836 -0.156363
v 0.658975 1.175837 0.093047
v 0.622137 1.175839 -0.114799
v 0.622137 0.718401 0.051477
v 0.622137 1.175839 0.051477
v 0.622137 0.718401 -0.114799
v 0.658975 1.425788 -0.156361
v 0.658975 1.175837 0.093047
v 0.658974 1.425787 0.093047
v 0.658975 1.175839 -0.156361
v 0.658974 1.425787 0.093047
v -0.658975 1.425785 -0.156363
v 0.658975 1.425788 -0.156361
v -0.658974 1.425784 0.093047
v 0.658975 1.175839 -0.156361
v -0.658975 1.425785 -0.156363
v -0.658974 1.175836 -0.156363
v 0.658975 1.425788 -0.156361
v 0.528653 1.175839 0.051477
v 0.528653 0.784255 -0.114799
v 0.528653 1.175839 -0.114799
v 0.528653 0.784255 0.051477
v 0.387854 0.142956 -0.440648
v 0.387854 0.000000 0.347433
v 0.387854 0.142955 0.347434
v 0.387854 0.000001 -0.440650
v -0.387848 0.142956 -0.440661
v 0.387854 0.142955 0.347434
v -0.387848 0.142956 0.347434
v 0.387854 0.142956 -0.440648
v -0.387848 0.000000 0.347433
v 0.387854 0.142955 0.347434
v 0.387854 0.000000 0.347433
v -0.387848 0.142956 0.347434
v -0.387848 0.142956 -0.440661
v -0.387848 0.000000 0.347433
v -0.387848 0.000001 -0.440662
v -0.387848 0.142956 0.347434
v -0.387848 0.142956 -0.440661
v 0.387854 0.000001 -0.440650
v 0.387854 0.142956 -0.440648
v -0.387848 0.000001 -0.440662
v -0.395968 1.080663 0.398371
v -0.396094 1.309272 0.398374
v -0.343027 1.111227 0.398371
v -0.457223 1.309272 0.398374
v -0.228614 0.913309 0.398371
v -0.343027 1.507316 0.398371
v -0.198048 0.966248 0.398371
v -0.395968 1.537881 0.398371
v -0.000003 0.852050 0.398373
v -0.198048 1.652295 0.398369
v -0.000003 0.913182 0.398373
v -0.228614 1.705235 0.398369
v 0.228608 0.913309 0.398373
v -0.000003 1.705363 0.398369
v 0.198042 0.966248 0.398373
v -0.000003 1.766494 0.398369
v 0.395962 1.080663 0.398373
v 0.198042 1.652295 0.398369
v 0.343021 1.111228 0.398373
v 0.228606 1.705235 0.398369
v 0.457219 1.309274 0.398369
v 0.343022 1.507316 0.398373
v 0.396087 1.309274 0.398369
v 0.395963 1.537881 0.398373
v -0.387583 1.085503 0.162016
v 0.387576 1.085503 0.162016
v -0.000003 0.861733 0.162016
v -0.000003 1.756811 0.162015
v -0.387583 1.533038 0.162016
v 0.387578 1.533040 0.162016
vn -0.0000 -0.0000 -1.0000
vn -0.5000 -0.8660 -0.0000
vn -0.8660 -0.5000 -0.0000
vn -1.0000 -0.0000 -0.0000
vn -0.8660 0.5000 -0.0000
vn -0.5000 0.8660 -0.0000
vn -0.5003 0.8659 -0.0000
vn -0.0000 -1.0000 -0.0000
vn 0.5000 -0.8660 -0.0000
vn 0.5000 -0.8660 -0.0001
vn 0.8660 -0.5000 -0.0000
vn 1.0000 -0.0000 -0.0000
vn 0.8660 0.5000 -0.0000
vn 0.5000 0.8660 -0.0000
vn 0.4999 0.8661 -0.0000
vn -0.0000 1.0000 -0.0000
vn -0.4999 0.8661 -0.0000
vn -0.5000 0.8660 -0.0001
vn -0.7933 0.1972 -0.5761
vn -0.9804 0.1972 -0.0000
vn -0.7931 0.1972 0.5762
vn -0.7932 0.1972 0.5761
vn -0.7931 0.1972 -0.5763
vn -0.3029 0.1972 -0.9324
vn -0.7930 0.1972 -0.5764
vn -0.3030 0.1972 -0.9324
vn 0.3030 0.1972 -0.9324
vn 0.3029 0.1972 -0.9324
vn 0.7931 0.1972 -0.5763
vn 0.7933 0.1972 -0.5761
vn 0.9804 0.1972 -0.0000
vn 0.7932 0.1972 0.5761
vn 0.7933 0.1972 0.5761
vn 0.7931 0.1972 0.5763
vn 0.3029 0.1972 0.9324
vn 0.3030 0.1972 0.9324
vn -0.3030 0.1972 0.9324
vn -0.3029 0.1972 0.9324
vn -0.7931 0.1972 0.5763
vn 0.0001 1.0000 -0.0006
vn -0.0001 1.0000 0.0011
vn -0.0000 1.0000 -0.0005
vn -0.0001 1.0000 0.0012
vn -0.0000 0.0375 0.9993
vn -0.0000 0.0374 0.9993
vn 1.0000 -0.0001 -0.0006
vn 1.0000 0.0001 0.0011
vn 1.0000 -0.0000 -0.0005
vn 1.0000 0.0001 0.0012
vn 0.0375 -0.0000 0.9993
vn 0.0374 -0.0000 0.9993
vn 0.4947 0.8563 0.1485
vn 0.8564 0.4945 0.1485
vn 0.4946 0.8563 0.1485
vn 0.9889 -0.0000 0.1485
vn 0.8564 -0.4945 0.1485
vn 0.4947 -0.8563 0.1485
vn 0.4946 -0.8563 0.1485
vn 0.4944 0.8565 0.1485
vn -0.0000 0.9889 0.1485
vn -0.4944 0.8565 0.1485
vn -0.4946 0.8563 0.1485
vn -0.8564 0.4945 0.1485
vn -0.9889 -0.0000 0.1485
vn -0.8564 -0.4945 0.1485
vn -0.4945 -0.8564 0.1485
vn -0.4943 -0.8565 0.1485
vn -0.0000 -0.9889 0.1485
vn 0.4943 -0.8565 0.1485
vn 0.8840 0.4674 -0.0000
vn 0.2946 0.9556 -0.0000
vn -0.2946 0.9556 -0.0000
vn -0.8840 0.4674 -0.0000
vn -0.9232 -0.3844 -0.0000
vn -0.3812 -0.9245 -0.0000
vn 0.3812 -0.9245 -0.0000
vn 0.9232 -0.3843 -0.0000
vn -0.9233 -0.3841 -0.0000
vn -0.0000 -0.0000 1.0000
vn 0.9233 -0.3841 -0.0000
vt 0.525674 0.237332
vt 0.525674 0.230393
vt 0.526606 0.233862
vt 0.523130 0.227853
vt 0.523130 0.239872
vt 0.519654 0.226923
vt 0.519654 0.240801
vt 0.516178 0.227853
vt 0.516178 0.239872
vt 0.513633 0.230393
vt 0.513633 0.237332
vt 0.512702 0.233862
vt -2.327448 0.227853
vt -2.327448 0.230393
vt -2.338163 0.227853
vt -2.338163 0.230393
vt -2.327448 0.233862
vt -2.338163 0.233862
vt -2.327448 0.237332
vt -2.338163 0.237332
vt -2.327448 0.239872
vt -2.338163 0.239872
vt 0.523130 3.338163
vt 0.519654 3.338163
vt 0.523130 3.327448
vt 0.519654 3.327448
vt 0.516178 3.338163
vt 0.516178 3.327448
vt 3.338163 0.227853
vt 3.338163 0.230393
vt 3.327448 0.227853
vt 3.327448 0.230393
vt 3.338163 0.233862
vt 3.327448 0.233862
vt 3.338163 0.237332
vt 3.327448 0.237332
vt 3.338163 0.239872
vt 3.327448 0.239872
vt 0.483822 3.338163
vt 0.480346 3.338163
vt 0.483822 3.327448
vt 0.480346 3.327448
vt 0.476870 3.338163
vt 0.476870 3.327448
vt -2.337492 0.213991
vt -2.334195 0.213991
vt -2.336507 0.222323
vt -2.334195 0.222323
vt -2.330899 0.213991
vt -2.331883 0.222323
vt 0.522797 0.222323
vt 0.520825 0.222323
vt 0.524156 0.213991
vt 0.521344 0.213991
vt 0.518387 0.222323
vt 0.517868 0.213991
vt 0.516415 0.222323
vt 0.515056 0.213991
vt 3.336507 0.222323
vt 3.334195 0.222323
vt 3.337491 0.213991
vt 3.334195 0.213991
vt 3.331883 0.222323
vt 3.330899 0.213991
vt 0.483585 0.222323
vt 0.481613 0.222323
vt 0.484944 0.213991
vt 0.482132 0.213991
vt 0.479175 0.222323
vt 0.478656 0.213991
vt 0.477203 0.222323
vt 0.475844 0.213991
vt 0.481613 3.330454
vt 0.483585 3.331883
vt 0.479175 3.330454
vt 0.483585 3.336507
vt 0.484338 3.334195
vt 0.479175 3.337936
vt 0.481613 3.337936
vt 0.476449 3.334195
vt 0.477203 3.331883
vt 0.477203 3.336507
vt 0.486633 3.328858
vt 0.474060 3.328858
vt 0.486633 3.327790
vt 0.474060 3.327790
vt 0.474026 0.233668
vt 0.486666 0.233668
vt 0.474060 0.234308
vt 0.486633 0.234309
vt 0.513334 3.327766
vt 0.525974 3.327766
vt 0.513334 3.328858
vt 0.525974 3.328858
vt 3.328858 0.227713
vt 3.328858 0.240264
vt 3.327790 0.227713
vt 3.327790 0.240264
vt 0.480025 0.240297
vt 0.480025 0.227680
vt 0.480667 0.240264
vt 0.480668 0.227713
vt -2.327766 0.227680
vt -2.327766 0.240297
vt -2.328858 0.227680
vt -2.328858 0.240297
vt 3.331353 0.229164
vt 3.331353 0.231150
vt 3.327448 0.228656
vt 3.327448 0.230856
vt 3.331353 0.233862
vt 3.331353 0.236574
vt 3.327448 0.236868
vt 3.331353 0.238560
vt 3.327448 0.239068
vt 0.477335 3.327448
vt 0.477629 3.331353
vt 0.480346 3.331353
vt 0.483358 3.327448
vt 0.483064 3.331353
vt -2.327448 0.228656
vt -2.327448 0.230856
vt -2.331353 0.229164
vt -2.331353 0.231150
vt -2.331353 0.233862
vt -2.327448 0.236868
vt -2.331353 0.236575
vt -2.327448 0.239068
vt -2.331353 0.238560
vt 0.516642 3.327448
vt 0.516936 3.331353
vt 0.519654 3.331353
vt 0.522665 3.327448
vt 0.522371 3.331353
vt 0.472308 3.335229
vt 0.472308 3.332708
vt 0.475731 3.335229
vt 0.475731 3.332708
vt 0.484962 3.332708
vt 0.484962 3.335229
vt 0.488385 3.332708
vt 0.488385 3.335229
vt 0.529113 3.332708
vt 0.529113 3.335229
vt 0.525384 3.332708
vt 0.525384 3.335229
vt 0.513924 3.332708
vt 0.513924 3.335229
vt 0.510194 3.335229
vt 0.510194 3.332708
vt -2.335229 0.224895
vt -2.332708 0.224895
vt -2.335229 0.231837
vt -2.332708 0.231837
vt -2.335859 0.231837
vt -2.332078 0.231837
vt -2.335859 0.235630
vt -2.332078 0.235630
vt 0.470887 0.231837
vt 0.470887 0.224895
vt 0.472308 0.231837
vt 0.472308 0.225894
vt 0.475731 0.223567
vt 0.474616 0.221195
vt 0.486077 0.221195
vt 0.484962 0.223567
vt 0.489806 0.224895
vt 0.488385 0.225894
vt 0.488385 0.231837
vt 0.489806 0.231837
vt 0.527692 0.231837
vt 0.527692 0.225894
vt 0.529113 0.231837
vt 0.529113 0.224895
vt 0.524269 0.223567
vt 0.525384 0.221195
vt 0.515038 0.223567
vt 0.513924 0.221195
vt 0.510194 0.224895
vt 0.511615 0.225894
vt 0.510194 0.231837
vt 0.511615 0.231837
vt 0.470327 0.235630
vt 0.470327 0.231837
vt 0.490366 0.235631
vt 0.490366 0.231837
vt 3.332708 0.225894
vt 3.335229 0.225894
vt 3.332708 0.231837
vt 3.335229 0.231837
vt 0.529673 3.335859
vt 0.509634 3.335859
vt 0.529673 3.332078
vt 0.509634 3.332078
vt 3.332708 0.224895
vt 3.335229 0.224895
vt 3.332078 0.235631
vt 3.332078 0.231837
vt 3.335859 0.235631
vt 3.335859 0.231837
vt 0.490366 3.335859
vt 0.470327 3.335859
vt 0.490366 3.332078
vt 0.470327 3.332078
vt 0.529673 0.231837
vt 0.529673 0.235630
vt 0.509634 0.231837
vt 0.509634 0.235631
vt -2.335229 0.225894
vt -2.332708 0.225894
vt 3.328221 0.216161
vt 3.328221 0.213991
vt 3.340170 0.216161
vt 3.340170 0.213991
vt 0.474449 3.328221
vt 0.486244 3.328221
vt 0.474449 3.340170
vt 0.486244 3.340170
vt 0.486244 0.213991
vt 0.486244 0.216161
vt 0.474449 0.213991
vt 0.474449 0.216161
vt -2.340170 0.213991
vt -2.328221 0.213991
vt -2.340170 0.216161
vt -2.328221 0.216161
vt 0.513756 0.216161
vt 0.513756 0.213991
vt 0.525551 0.216161
vt 0.525551 0.213991
vt 0.475131 0.230856
vt 0.474324 0.233862
vt 0.474326 0.230393
vt 0.473394 0.233862
vt 0.476870 0.227853
vt 0.475131 0.236868
vt 0.477335 0.228656
vt 0.474326 0.237332
vt 0.480346 0.226923
vt 0.477335 0.239068
vt 0.480346 0.227851
vt 0.476870 0.239872
vt 0.483822 0.227853
vt 0.480346 0.239874
vt 0.483358 0.228656
vt 0.480346 0.240801
vt 0.486367 0.230393
vt 0.483358 0.239068
vt 0.485562 0.230856
vt 0.483822 0.239872
vt 0.487298 0.233862
vt 0.485562 0.236868
vt 0.486369 0.233862
vt 0.486367 0.237332
vt 0.480346 0.227070
vt 0.486240 0.230466
vt 0.474453 0.230466
vt 0.480346 0.240654
vt 0.474453 0.237258
vt 0.486240 0.237258
s 1
g Spotlight.002_steel_4
usemtl steel_4
f 3/1/1 2/2/1 1/3/1
f 2/2/1 3/1/1 4/4/1
f 5/5/1 4/4/1 3/1/1
f 4/4/1 5/5/1 6/6/1
f 7/7/1 6/6/1 5/5/1
f 6/6/1 7/7/1 8/8/1
f 9/9/1 8/8/1 7/7/1
f 8/8/1 9/9/1 10/10/1
f 11/11/1 10/10/1 9/9/1
f 11/11/1 12/12/1 10/10/1
f 15/13/2 14/14/3 13/15/2
f 16/16/3 13/15/2 14/14/3
f 14/14/3 17/17/4 16/16/3
f 18/18/4 16/16/3 17/17/4
f 17/17/4 19/19/5 18/18/4
f 20/20/5 18/18/4 19/19/5
f 19/19/5 21/21/6 20/20/5
f 22/22/7 20/20/5 21/21/6
f 25/23/2 24/24/8 23/25/2
f 26/26/8 23/25/2 24/24/8
f 24/24/8 27/27/9 26/26/8
f 28/28/9 26/26/8 27/27/9
f 31/29/10 30/30/11 29/31/9
f 32/32/11 29/31/9 30/30/11
f 30/30/11 33/33/12 32/32/11
f 34/34/12 32/32/11 33/33/12
f 33/33/12 35/35/13 34/34/12
f 36/36/13 34/34/12 35/35/13
f 35/35/13 37/37/14 36/36/13
f 38/38/14 36/36/13 37/37/14
f 41/39/15 40/40/16 39/41/14
f 42/42/16 39/41/14 40/40/16
f 40/40/16 43/43/17 42/42/16
f 44/44/18 42/42/16 43/43/17
f 47/45/19 46/46/20 45/47/19
f 48/48/20 45/47/19 46/46/20
f 46/46/20 49/49/21 48/48/20
f 50/50/22 48/48/20 49/49/21
f 53/51/23 52/52/24 51/53/25
f 54/54/26 51/53/25 52/52/24
f 52/52/24 55/55/27 54/54/26
f 56/56/28 54/54/26 55/55/27
f 55/55/27 57/57/29 56/56/28
f 58/58/29 56/56/28 57/57/29
f 61/59/30 60/60/31 59/61/30
f 62/62/31 59/61/30 60/60/31
f 60/60/31 63/63/32 62/62/31
f 64/64/33 62/62/31 63/63/32
f 67/65/34 66/66/35 65/67/34
f 68/68/36 65/67/34 66/66/35
f 66/66/35 69/69/37 68/68/36
f 70/70/38 68/68/36 69/69/37
f 69/69/37 71/71/39 70/70/38
f 72/72/39 70/70/38 71/71/39
f 75/73/16 74/74/16 73/75/16
f 74/74/16 76/76/16 73/75/16
f 77/77/16 76/76/16 74/74/16
f 76/76/16 78/78/16 73/75/16
f 79/79/16 78/78/16 76/76/16
f 78/78/16 80/80/16 73/75/16
f 73/75/16 80/80/16 81/81/16
f 82/82/16 80/80/16 78/78/16
f 85/83/40 84/84/41 83/85/42
f 86/86/43 83/85/42 84/84/41
f 89/87/44 88/88/45 87/89/44
f 90/90/45 87/89/44 88/88/45
f 93/91/8 92/92/8 91/93/8
f 94/94/8 91/93/8 92/92/8
f 97/95/46 96/96/47 95/97/48
f 98/98/49 95/97/48 96/96/47
f 101/99/50 100/100/51 99/101/50
f 102/102/51 99/101/50 100/100/51
f 105/103/4 104/104/4 103/105/4
f 106/106/4 103/105/4 104/104/4
f 109/107/52 108/108/53 107/109/54
f 110/110/53 107/109/54 108/108/53
f 108/108/53 111/111/55 110/110/53
f 112/34/55 110/110/53 111/111/55
f 111/111/55 113/112/56 112/34/55
f 114/113/56 112/34/55 113/112/56
f 113/112/56 115/114/57 114/113/56
f 116/115/58 114/113/56 115/114/57
f 119/116/59 118/42/60 117/117/59
f 120/118/60 117/117/59 118/42/60
f 118/42/60 121/119/61 120/118/60
f 122/120/61 120/118/60 121/119/61
f 125/121/62 124/122/63 123/123/62
f 126/124/63 123/123/62 124/122/63
f 124/122/63 127/17/64 126/124/63
f 128/125/64 126/124/63 127/17/64
f 127/17/64 129/126/65 128/125/64
f 130/127/65 128/125/64 129/126/65
f 129/126/65 131/128/66 130/127/65
f 132/129/66 130/127/65 131/128/66
f 135/130/67 134/26/68 133/131/67
f 136/132/68 133/131/67 134/26/68
f 134/26/68 137/133/69 136/132/68
f 138/134/69 136/132/68 137/133/69
f 141/135/70 140/136/70 139/137/71
f 142/138/71 139/137/71 140/136/70
f 142/138/71 143/139/72 139/137/71
f 144/140/72 139/137/71 143/139/72
f 143/139/72 145/141/73 144/140/72
f 146/142/73 144/140/72 145/141/73
f 149/143/74 148/144/74 147/145/75
f 150/146/75 147/145/75 148/144/74
f 147/145/75 150/146/75 151/147/76
f 152/148/76 151/147/76 150/146/75
f 152/148/76 153/149/77 151/147/76
f 154/150/77 151/147/76 153/149/77
f 157/151/78 156/152/78 155/153/4
f 158/154/4 155/153/4 156/152/78
f 161/155/4 160/156/4 159/157/4
f 162/158/4 159/157/4 160/156/4
f 165/159/79 164/160/79 163/161/79
f 166/162/79 163/161/79 164/160/79
f 166/162/79 164/160/79 167/163/79
f 168/164/79 167/163/79 164/160/79
f 168/164/79 169/165/79 167/163/79
f 170/166/79 167/163/79 169/165/79
f 169/165/79 171/167/79 170/166/79
f 172/168/79 170/166/79 171/167/79
f 172/168/79 171/167/79 173/169/79
f 174/170/79 173/169/79 171/167/79
f 177/171/1 176/172/1 175/173/1
f 178/174/1 175/173/1 176/172/1
f 176/172/1 179/175/1 178/174/1
f 180/176/1 178/174/1 179/175/1
f 179/175/1 181/177/1 180/176/1
f 182/178/1 180/176/1 181/177/1
f 182/178/1 181/177/1 183/179/1
f 184/180/1 183/179/1 181/177/1
f 183/179/1 184/180/1 185/181/1
f 186/182/1 185/181/1 184/180/1
f 189/183/79 188/184/79 187/185/79
f 190/186/79 187/185/79 188/184/79
f 193/187/70 192/188/70 191/189/12
f 194/190/12 191/189/12 192/188/70
f 197/191/8 196/192/8 195/193/8
f 198/194/8 195/193/8 196/192/8
f 201/189/12 200/195/80 199/190/12
f 202/196/80 199/190/12 200/195/80
f 205/197/12 204/198/12 203/199/12
f 206/200/12 203/199/12 204/198/12
f 209/201/16 208/202/16 207/203/16
f 210/204/16 207/203/16 208/202/16
f 213/205/1 212/206/1 211/207/1
f 214/208/1 211/207/1 212/206/1
f 217/153/4 216/209/73 215/154/4
f 218/210/73 215/154/4 216/209/73
f 221/211/12 220/212/12 219/213/12
f 222/214/12 219/213/12 220/212/12
f 225/215/16 224/216/16 223/217/16
f 226/218/16 223/217/16 224/216/16
f 229/219/79 228/220/79 227/221/79
f 230/222/79 227/221/79 228/220/79
f 233/223/4 232/224/4 231/225/4
f 234/226/4 231/225/4 232/224/4
f 237/227/1 236/228/1 235/229/1
f 238/230/1 235/229/1 236/228/1
f 241/231/79 240/232/79 239/233/79
f 242/234/79 239/233/79 240/232/79
f 239/233/79 243/235/79 241/231/79
f 240/232/79 244/236/79 242/234/79
f 245/237/79 241/231/79 243/235/79
f 246/238/79 242/234/79 244/236/79
f 243/235/79 247/239/79 245/237/79
f 244/236/79 248/240/79 246/238/79
f 249/241/79 245/237/79 247/239/79
f 250/242/79 246/238/79 248/240/79
f 247/239/79 251/243/79 249/241/79
f 248/240/79 252/244/79 250/242/79
f 253/245/79 249/241/79 251/243/79
f 254/246/79 250/242/79 252/244/79
f 251/243/79 255/247/79 253/245/79
f 252/244/79 256/248/79 254/246/79
f 257/249/79 253/245/79 255/247/79
f 258/250/79 254/246/79 256/248/79
f 255/247/79 259/251/79 257/249/79
f 256/248/79 260/252/79 258/250/79
f 261/253/79 257/249/79 259/251/79
f 262/254/79 258/250/79 260/252/79
f 259/251/79 262/254/79 261/253/79
f 260/252/79 261/253/79 262/254/79
g Spotlight.002_waterline
usemtl waterline
f 265/255/79 264/256/79 263/257/79
f 264/256/79 266/258/79 263/257/79
f 263/257/79 266/258/79 267/259/79
f 268/260/79 266/258/79 264/256/79
