# Blender 5.1.0
# www.blender.org
mtllib Dr_Deckhouse_Tribal_A1_001_5_Dr_Deckhouse_Tribal_A1_001_5.mtl
o Dr_Deckhouse_Tribal_A1_001_5_Dr_Deckhouse_Tribal_A1_001_5
v -2.777457 21.579805 2.799979
v -0.910145 23.986183 2.799975
v -2.761976 23.700556 3.250557
v -0.910145 23.986183 2.799975
v -2.134771 25.609600 3.645292
v -2.761976 23.700556 3.250557
v 2.777459 21.579805 2.799978
v 2.761978 23.700556 3.250557
v 0.910147 23.986183 2.799975
v 0.910147 23.986183 2.799975
v 2.761978 23.700556 3.250557
v 2.134773 25.609600 3.645292
v -1.918245 10.436235 6.753594
v 0.000001 10.436235 5.044055
v -1.918245 10.436235 5.044055
v 0.000001 10.436235 6.753595
v 1.918246 10.436235 6.753595
v 1.918246 10.436235 5.044055
v -1.918245 9.663073 6.753595
v 0.000001 10.436235 6.753595
v -1.918245 10.436235 6.753594
v 0.000001 9.663073 6.753595
v 1.918246 9.663073 6.753595
v 1.918246 10.436235 6.753595
v -1.918245 9.663073 5.044055
v 0.000001 9.663073 6.753595
v -1.918245 9.663073 6.753595
v 0.000000 9.663073 5.044055
v 1.918246 9.663073 5.044055
v 1.918246 9.663073 6.753595
v -0.000000 4.965975 6.753595
v -0.956927 6.804498 6.753595
v -0.956927 4.965975 6.753595
v -0.000000 6.804498 6.753595
v 0.956928 6.804498 6.753595
v 0.956928 4.965975 6.753595
v 4.088027 11.736818 4.747537
v 2.570076 11.736818 4.747539
v 2.570076 11.099487 4.747533
v 4.088024 9.442511 4.747531
v -0.000009 9.442511 4.747531
v -0.000009 11.099512 4.747534
v -2.570091 11.099512 4.747532
v -4.088041 9.442511 4.747530
v -4.088041 11.736818 4.747537
v -2.570094 11.736818 4.747539
v 0.956959 6.804449 4.753590
v 1.918246 7.390442 4.753590
v 0.956959 7.390442 4.753589
v 1.918243 5.893149 4.753590
v 0.000000 5.893149 4.753590
v 0.000000 6.804474 4.753590
v -1.918252 5.893126 4.753589
v -0.956934 6.804449 4.753589
v -0.956933 7.390442 4.753589
v -1.918245 7.390442 4.753589
v -1.918255 11.166212 0.000001
v -2.733675 11.166212 1.853604
v -1.918255 11.166212 1.853603
v -2.733675 11.166212 0.000001
v -2.878391 20.389551 2.753593
v -3.204135 14.955788 2.753591
v -2.878397 14.631342 2.753594
v -3.204126 20.065182 2.753590
v -3.691662 15.732671 2.753591
v -3.691665 19.288347 2.753590
v -3.994698 16.598701 2.753590
v -3.994701 18.422194 2.753590
v -4.097439 17.510471 2.753590
v -2.877638 6.293679 2.753596
v -2.733675 9.094276 2.753601
v -2.877638 9.094227 2.753602
v -1.918255 5.375177 2.753600
v -1.918255 11.166212 2.753601
v -2.733675 11.166212 2.753600
v -1.918255 3.753447 2.753584
v -2.877374 4.694860 2.753580
v 0.000000 5.375177 2.753600
v -1.918255 5.375177 2.753600
v 0.000000 3.753422 2.753579
v 1.918255 3.753447 2.753585
v 1.918255 5.375177 2.753600
v 2.877639 6.293679 2.753596
v 2.877375 4.694860 2.753580
v 1.918255 5.375177 2.753600
v 2.733675 9.094276 2.753600
v 2.877639 9.094227 2.753601
v 1.918255 11.166212 2.753601
v 2.733675 11.166212 2.753601
v -2.733675 9.094276 1.853604
v -2.733675 11.166212 0.000001
v -2.733675 9.094276 0.000001
v -2.733675 11.166212 1.853604
v -2.877638 9.094227 2.753602
v -4.188028 7.297773 2.753603
v -2.877638 6.293679 2.753596
v -4.188028 9.186897 2.753601
v -2.877895 10.190992 2.753597
v 1.918255 11.166212 0.000001
v 2.733675 11.166212 1.853603
v 2.733675 11.166212 0.000001
v 1.918255 11.166212 1.853603
v 3.204137 14.955788 2.753591
v 2.878393 20.389551 2.753593
v 2.878399 14.631342 2.753593
v 3.204128 20.065182 2.753591
v 3.691664 15.732671 2.753591
v 3.691667 19.288347 2.753591
v 3.994699 16.598701 2.753591
v 3.994703 18.422194 2.753591
v 4.097441 17.510471 2.753591
v 2.733675 9.094276 1.853603
v 2.733675 11.166212 0.000001
v 2.733675 11.166212 1.853603
v 2.733675 9.094276 0.000001
v 4.188010 7.297773 2.753603
v 2.877639 9.094227 2.753601
v 2.877639 6.293679 2.753596
v 4.188010 9.186897 2.753602
v 2.877896 10.190992 2.753597
v 0.279825 6.485784 10.891075
v 0.000010 6.556898 10.891074
v -0.279806 6.485784 10.891074
v 0.486458 6.279160 10.891075
v -0.486435 6.279160 10.891074
v 0.486451 5.104261 10.891083
v -0.486438 5.104261 10.891080
v -0.910145 23.986183 2.799975
v 0.000001 25.609724 3.645220
v -2.134771 25.609600 3.645292
v 0.000001 23.986183 2.799975
v 0.910147 23.986183 2.799975
v 2.134773 25.609600 3.645292
v 1.251037 8.242310 8.753607
v 1.155806 8.721066 8.753607
v -0.000012 8.242310 8.753607
v 1.155806 7.763555 8.753607
v 0.884613 9.126919 8.753607
v 0.884613 7.357676 8.753607
v 0.478740 9.398134 8.753608
v 0.478740 7.086486 8.753607
v -0.000012 9.493359 8.753607
v -0.000012 6.991261 8.753607
v -0.478767 9.398134 8.753607
v -0.478767 7.086486 8.753607
v -0.884637 9.126919 8.753606
v -0.884637 7.357676 8.753607
v -1.155833 8.721066 8.753606
v -1.155833 7.763555 8.753607
v -1.251064 8.242310 8.753606
vn -0.2609 0.2024 -0.9439
vn -0.2674 0.2786 -0.9224
vn 0.2609 0.2024 -0.9439
vn 0.2674 0.2786 -0.9224
vn -0.0000 -1.0000 -0.0000
vn -0.0000 -0.0000 -1.0000
vn -0.0000 1.0000 -0.0000
vn 1.0000 -0.0000 -0.0000
vn -1.0000 -0.0000 -0.0000
vn -0.0001 0.4618 -0.8870
vn -0.0000 0.4618 -0.8870
vn 0.0001 0.4618 -0.8870
vt 0.458146 1.795542
vt 0.486205 1.791229
vt 0.457912 1.827565
vt 0.467650 1.766715
vt 0.513786 1.791229
vt 0.541844 1.795542
vt 0.542079 1.827565
vt 0.532341 1.766715
vt 0.470930 0.367551
vt 0.499994 0.367551
vt 0.470930 0.393494
vt 0.499994 0.393494
vt 0.529059 0.393494
vt 0.529059 0.367551
vt 0.470930 2.050076
vt 0.499994 2.050076
vt 0.470930 2.061751
vt 0.499994 2.061751
vt 0.529059 2.061751
vt 0.529059 2.050076
vt 0.529070 0.393494
vt 0.500006 0.393494
vt 0.529070 0.367551
vt 0.500006 0.367551
vt 0.470941 0.367551
vt 0.470941 0.393494
vt 0.485495 2.144170
vt 0.485495 2.116408
vt 0.499994 2.144170
vt 0.499994 2.116408
vt 0.514493 2.116408
vt 0.514493 2.144170
vt 0.538936 2.040061
vt 0.538936 2.030438
vt 0.561935 2.030438
vt 0.561935 2.065082
vt 0.499994 2.065082
vt 0.499994 2.040061
vt 0.461053 2.040061
vt 0.438053 2.065082
vt 0.438053 2.030438
vt 0.461053 2.030438
vt 0.514494 2.096068
vt 0.529059 2.096068
vt 0.514494 2.116409
vt 0.529059 2.130170
vt 0.499994 2.130170
vt 0.499994 2.116409
vt 0.470929 2.130170
vt 0.485495 2.116409
vt 0.485495 2.096068
vt 0.470929 2.096068
vt 0.470929 0.332793
vt 0.458574 0.332793
vt 0.470929 0.304664
vt 0.458574 0.304664
vt 0.456382 1.941547
vt 0.451446 1.936647
vt 0.456382 1.854598
vt 0.451447 1.859496
vt 0.444060 1.924917
vt 0.444060 1.871226
vt 0.439468 1.911839
vt 0.439468 1.884305
vt 0.437911 1.898072
vt 0.456393 2.070341
vt 0.458574 2.070340
vt 0.456393 2.112629
vt 0.470929 2.137991
vt 0.470929 2.039054
vt 0.458574 2.039054
vt 0.470929 2.162479
vt 0.456397 2.148264
vt 0.499994 2.137991
vt 0.499994 2.162479
vt 0.529059 2.162479
vt 0.529059 2.137991
vt 0.543591 2.148264
vt 0.543595 2.112629
vt 0.541414 2.070340
vt 0.543596 2.070341
vt 0.529059 2.039054
vt 0.541414 2.039054
vt -1.070340 0.304664
vt -1.039054 0.304664
vt -1.070340 0.332793
vt -1.039054 0.332793
vt 0.425727 2.097467
vt 0.425727 2.068941
vt 0.456389 2.053780
vt 0.541414 0.304664
vt 0.541414 0.332793
vt 0.529059 0.304664
vt 0.529059 0.332793
vt 0.543608 1.941547
vt 0.543608 1.854598
vt 0.548543 1.936647
vt 0.548543 1.859496
vt 0.555930 1.924917
vt 0.555930 1.871226
vt 0.560522 1.911839
vt 0.560522 1.884305
vt 0.562078 1.898072
vt 2.039054 0.332793
vt 2.039054 0.304664
vt 2.070340 0.332793
vt 2.070340 0.304664
vt 0.574262 2.097467
vt 0.574262 2.068941
vt 0.543600 2.053780
vt 0.495755 2.121221
vt 0.499994 2.120147
vt 0.504234 2.121221
vt 0.507365 2.124341
vt 0.492624 2.124341
vt 0.507365 2.142082
vt 0.492624 2.142082
vt 0.499995 1.766714
vt 0.499995 1.791229
vt 0.499994 2.083205
vt 0.517507 2.075975
vt 0.518950 2.083205
vt 0.517507 2.090434
vt 0.513398 2.069847
vt 0.513398 2.096562
vt 0.507248 2.065752
vt 0.507248 2.100657
vt 0.499994 2.064314
vt 0.499994 2.102095
vt 0.492740 2.065752
vt 0.492740 2.100657
vt 0.486590 2.069847
vt 0.486590 2.096562
vt 0.482481 2.075975
vt 0.482481 2.090434
vt 0.481038 2.083205
s 1
g Dr_Deckhouse_Tribal_A1_001_5_Dr_Deckhouse_Tribal_A1_001_5_steel_5
usemtl steel_5
f 3/1/1 2/2/1 1/3/1
f 6/1/2 5/4/2 4/2/2
f 9/5/3 8/6/3 7/7/3
f 12/8/4 11/6/4 10/5/4
f 15/9/5 14/10/5 13/11/5
f 16/12/5 13/11/5 14/10/5
f 16/12/5 14/10/5 17/13/5
f 18/14/5 17/13/5 14/10/5
f 21/15/6 20/16/6 19/17/6
f 22/18/6 19/17/6 20/16/6
f 22/18/6 20/16/6 23/19/6
f 24/20/6 23/19/6 20/16/6
f 27/21/7 26/22/7 25/23/7
f 28/24/7 25/23/7 26/22/7
f 28/24/7 26/22/7 29/25/7
f 30/26/7 29/25/7 26/22/7
f 33/27/6 32/28/6 31/29/6
f 34/30/6 31/29/6 32/28/6
f 34/30/6 35/31/6 31/29/6
f 36/32/6 31/29/6 35/31/6
f 39/33/6 38/34/6 37/35/6
f 37/35/6 40/36/6 39/33/6
f 40/36/6 41/37/6 39/33/6
f 42/38/6 39/33/6 41/37/6
f 42/38/6 41/37/6 43/39/6
f 44/40/6 43/39/6 41/37/6
f 44/40/6 45/41/6 43/39/6
f 46/42/6 43/39/6 45/41/6
f 49/43/6 48/44/6 47/45/6
f 50/46/6 47/45/6 48/44/6
f 50/46/6 51/47/6 47/45/6
f 52/48/6 47/45/6 51/47/6
f 51/47/6 53/49/6 52/48/6
f 54/50/6 52/48/6 53/49/6
f 54/50/6 53/49/6 55/51/6
f 56/52/6 55/51/6 53/49/6
f 59/53/5 58/54/5 57/55/5
f 60/56/5 57/55/5 58/54/5
f 63/57/6 62/58/6 61/59/6
f 64/60/6 61/59/6 62/58/6
f 62/58/6 65/61/6 64/60/6
f 66/62/6 64/60/6 65/61/6
f 65/61/6 67/63/6 66/62/6
f 68/64/6 66/62/6 67/63/6
f 69/65/6 68/64/6 67/63/6
f 72/66/6 71/67/6 70/68/6
f 73/69/6 70/68/6 71/67/6
f 74/70/6 73/69/6 71/67/6
f 71/67/6 75/71/6 74/70/6
f 73/69/6 76/72/6 70/68/6
f 77/73/6 70/68/6 76/72/6
f 79/69/6 78/74/6 76/72/6
f 80/75/6 76/72/6 78/74/6
f 80/75/6 78/74/6 81/76/6
f 82/77/6 81/76/6 78/74/6
f 84/78/6 81/76/6 83/79/6
f 85/77/6 83/79/6 81/76/6
f 85/77/6 86/80/6 83/79/6
f 87/81/6 83/79/6 86/80/6
f 85/77/6 88/82/6 86/80/6
f 89/83/6 86/80/6 88/82/6
f 92/84/8 91/85/8 90/86/8
f 93/87/8 90/86/8 91/85/8
f 96/68/6 95/88/6 94/66/6
f 97/89/6 94/66/6 95/88/6
f 98/90/6 94/66/6 97/89/6
f 101/91/5 100/92/5 99/93/5
f 102/94/5 99/93/5 100/92/5
f 105/95/6 104/96/6 103/97/6
f 106/98/6 103/97/6 104/96/6
f 103/97/6 106/98/6 107/99/6
f 108/100/6 107/99/6 106/98/6
f 107/99/6 108/100/6 109/101/6
f 110/102/6 109/101/6 108/100/6
f 110/102/6 111/103/6 109/101/6
f 114/104/9 113/105/9 112/106/9
f 115/107/9 112/106/9 113/105/9
f 118/79/6 117/81/6 116/108/6
f 119/109/6 116/108/6 117/81/6
f 117/81/6 120/110/6 119/109/6
f 123/111/6 122/112/6 121/113/6
f 121/113/6 124/114/6 123/111/6
f 125/115/6 123/111/6 124/114/6
f 124/114/6 126/116/6 125/115/6
f 127/117/6 125/115/6 126/116/6
f 130/4/10 129/118/11 128/2/11
f 131/119/11 128/2/11 129/118/11
f 131/119/11 129/118/11 132/5/11
f 133/8/12 132/5/11 129/118/11
f 136/120/6 135/121/6 134/122/6
f 137/123/6 136/120/6 134/122/6
f 136/120/6 138/124/6 135/121/6
f 139/125/6 136/120/6 137/123/6
f 136/120/6 140/126/6 138/124/6
f 141/127/6 136/120/6 139/125/6
f 136/120/6 142/128/6 140/126/6
f 143/129/6 136/120/6 141/127/6
f 142/128/6 136/120/6 144/130/6
f 136/120/6 143/129/6 145/131/6
f 144/130/6 136/120/6 146/132/6
f 136/120/6 145/131/6 147/133/6
f 146/132/6 136/120/6 148/134/6
f 136/120/6 147/133/6 149/135/6
f 148/134/6 136/120/6 150/136/6
f 136/120/6 149/135/6 150/136/6
