# Blender 5.1.0
# www.blender.org
mtllib Dr_Deckhouse_Tribal_A1_001_4_Dr_Deckhouse_Tribal_A1_001_4.mtl
o Dr_Deckhouse_Tribal_A1_001_4_Dr_Deckhouse_Tribal_A1_001_4
v -2.877367 21.614161 2.899977
v -2.778257 21.217508 2.899979
v 2.877369 21.614161 2.899978
v 2.778259 21.217508 2.899980
v 0.000001 9.017654 6.906009
v -1.818245 9.017654 6.906009
v 1.818246 9.017654 6.906009
v -2.777451 21.579805 2.999977
v -2.777451 23.654667 3.440928
v -0.910145 23.986183 2.999977
v -0.910145 23.986183 2.999977
v -2.777451 23.654667 3.440928
v -2.134777 25.564505 3.846807
v 2.777453 21.579805 2.999978
v 0.910147 23.986183 2.999977
v 2.777453 23.654667 3.440927
v 0.910147 23.986183 2.999977
v 2.134779 25.564505 3.846807
v 2.777453 23.654667 3.440927
v -1.818246 11.942322 6.906008
v -1.079741 12.852282 6.906007
v 0.000001 12.852282 6.906007
v 1.079743 12.852282 6.906007
v 1.818246 11.942322 6.906009
v -1.918245 10.436235 5.044053
v 0.000000 9.663073 5.044053
v -1.918245 9.663073 5.044053
v 0.000001 10.436235 5.044053
v 1.918246 10.436235 5.044053
v 1.918246 9.663073 5.044053
v 1.918243 5.893150 4.899944
v 0.956928 7.390442 4.899945
v 1.918246 7.390442 4.899945
v 0.956928 6.804474 4.899945
v 0.000000 6.804499 4.899944
v 0.000000 5.893150 4.899943
v -1.918252 5.893126 4.899943
v -0.956927 6.804474 4.899945
v -1.918245 7.390442 4.899945
v -0.956927 7.390442 4.899945
v 2.570082 10.999500 4.899952
v -0.000009 11.099487 4.899951
v 2.570082 11.099487 4.899952
v -0.000009 9.542498 4.899951
v 2.670076 10.999500 4.899952
v -2.570100 10.999500 4.899951
v -2.570097 11.099487 4.899951
v -2.670094 10.999500 4.899951
v 3.988024 9.542498 4.899951
v 3.988027 11.636831 4.899956
v 2.670079 11.636831 4.899957
v -3.988041 9.542522 4.899951
v -3.988041 11.636831 4.899956
v -2.670097 11.636831 4.899957
v -2.491990 20.635317 2.899980
v -2.779147 20.348352 2.899980
v -1.734151 21.111492 2.899980
v -0.959122 24.086170 2.899977
v -0.889374 21.407114 2.899980
v 0.000001 21.507326 2.899980
v 0.000001 24.086170 2.899977
v 0.959124 24.086170 2.899977
v 0.889376 21.407114 2.899981
v 1.734152 21.111492 2.899981
v 2.491992 20.635317 2.899980
v 2.779149 20.348352 2.899981
v -2.491925 14.385602 2.899981
v -2.778183 13.361223 2.899980
v -2.778372 14.672642 2.899980
v -1.734145 13.909451 2.899981
v 0.000000 10.190992 2.899979
v -0.889381 13.613830 2.899981
v -2.878205 13.361223 2.899980
v 0.000001 13.513668 2.899981
v 0.889382 13.613830 2.899981
v -2.877846 10.190992 2.899969
v 1.734146 13.909451 2.899981
v -2.877641 6.293679 2.899963
v 2.778184 13.361223 2.899981
v 2.491926 14.385602 2.899981
v 2.778374 14.672642 2.899980
v 2.878206 13.361223 2.899981
v -2.977836 10.029736 2.899967
v 2.877846 10.190992 2.899968
v -2.977651 6.454934 2.899963
v -4.088028 9.124861 2.899956
v -4.088028 7.359760 2.899960
v -1.918255 3.753422 2.899957
v -2.877374 4.694860 2.899958
v 0.000000 3.753422 2.899957
v 1.918255 3.753422 2.899958
v 2.877642 6.293679 2.899963
v 2.877375 4.694860 2.899959
v 2.977651 6.454934 2.899963
v 2.977837 10.029736 2.899968
v 4.088010 9.124861 2.899957
v 4.088010 7.359759 2.899960
v 0.228554 6.395642 11.979045
v -0.228534 6.395642 11.979045
v 0.000010 6.453711 11.979045
v -0.386435 6.237737 11.979046
v 0.386454 6.237737 11.979048
v -0.386438 5.643738 11.979051
v 0.386454 5.643738 11.979052
v -0.486438 5.104261 11.979053
v -0.486438 5.643738 11.979050
v 0.486451 5.104261 11.979056
v 0.486455 5.643738 11.979053
v 0.000001 25.564529 3.846806
v -0.910145 23.986183 2.999977
v -2.134777 25.564505 3.846807
v 0.000001 23.986183 2.999977
v 0.910147 23.986183 2.999977
v 2.134779 25.564505 3.846807
vn 0.2588 -0.2008 0.9448
vn 0.2680 -0.2857 0.9201
vn -0.2588 -0.2008 0.9448
vn -0.2680 -0.2857 0.9201
vn -0.0000 -0.0000 1.0000
vn -0.0000 -0.4728 0.8812
vt 0.513795 1.791229
vt 0.542088 1.796235
vt 0.542088 1.827565
vt 0.532350 1.767396
vt 0.457921 1.796235
vt 0.486214 1.791229
vt 0.457921 1.827565
vt 0.467659 1.767396
vt 0.527555 2.071497
vt 0.500006 2.071497
vt 0.527555 1.998370
vt 0.516365 1.984630
vt 0.500005 1.984630
vt 0.483645 1.984630
vt 0.472456 1.998370
vt 0.472456 2.071497
vt 0.529070 2.061751
vt 0.500006 2.061751
vt 0.529070 2.050076
vt 0.500006 2.050076
vt 0.470941 2.050076
vt 0.470941 2.061751
vt 0.470941 2.096068
vt 0.485507 2.096068
vt 0.470941 2.130170
vt 0.485507 2.116409
vt 0.500006 2.116408
vt 0.500006 2.130170
vt 0.529071 2.130170
vt 0.514505 2.116409
vt 0.529071 2.096068
vt 0.514505 2.096068
vt 0.461064 2.040061
vt 0.500006 2.040061
vt 0.461064 2.041571
vt 0.500006 2.063572
vt 0.459549 2.041571
vt 0.538947 2.041571
vt 0.538947 2.040061
vt 0.540462 2.041571
vt 0.439580 2.063572
vt 0.439580 2.031948
vt 0.459549 2.031948
vt 0.560432 2.063571
vt 0.560431 2.031948
vt 0.540462 2.031948
vt 0.542114 1.855220
vt 0.537763 1.850887
vt 0.542100 1.833036
vt 0.526280 1.843697
vt 0.543602 1.827046
vt 0.514537 1.789719
vt 0.513480 1.839233
vt 0.500005 1.837719
vt 0.500005 1.789719
vt 0.485472 1.789719
vt 0.486529 1.839233
vt 0.473729 1.843697
vt 0.456408 1.827046
vt 0.457909 1.833036
vt 0.462247 1.850887
vt 0.457896 1.855220
vt 0.542103 1.940923
vt 0.542100 1.976944
vt 0.537762 1.945257
vt 0.526281 1.952447
vt 0.500006 2.053780
vt 0.513481 1.956911
vt 0.543615 1.976944
vt 0.500005 1.958423
vt 0.486530 1.956911
vt 0.543610 2.053780
vt 0.473730 1.952447
vt 0.543607 2.112629
vt 0.457911 1.976944
vt 0.462248 1.945257
vt 0.457908 1.940923
vt 0.456395 1.976944
vt 0.545125 2.056215
vt 0.456401 2.053780
vt 0.545123 2.110194
vt 0.572758 2.069878
vt 0.572758 2.096531
vt 0.529071 2.162479
vt 0.543603 2.148264
vt 0.500006 2.162479
vt 0.470941 2.162479
vt 0.456404 2.112629
vt 0.456409 2.148264
vt 0.454889 2.110194
vt 0.454886 2.056215
vt 0.427253 2.069878
vt 0.427253 2.096531
vt 0.500006 2.121705
vt 0.503469 2.122582
vt 0.496543 2.122582
vt 0.505861 2.124967
vt 0.494150 2.124967
vt 0.505861 2.133936
vt 0.494150 2.133936
vt 0.507376 2.142082
vt 0.507376 2.133936
vt 0.492635 2.142082
vt 0.492635 2.133936
vt 0.500005 1.767396
vt 0.500005 1.791229
s 1
g Dr_Deckhouse_Tribal_A1_001_4_Dr_Deckhouse_Tribal_A1_001_4_steel_deck_1
usemtl steel_deck_1
f 10/1/1 9/2/1 8/3/1
f 13/4/2 12/2/2 11/1/2
f 16/5/3 15/6/3 14/7/3
f 19/5/4 18/8/4 17/6/4
f 6/9/5 5/10/5 20/11/5
f 21/12/5 20/11/5 5/10/5
f 5/10/5 22/13/5 21/12/5
f 22/13/5 5/10/5 23/14/5
f 23/14/5 5/10/5 24/15/5
f 7/16/5 24/15/5 5/10/5
f 27/17/5 26/18/5 25/19/5
f 28/20/5 25/19/5 26/18/5
f 28/20/5 26/18/5 29/21/5
f 30/22/5 29/21/5 26/18/5
f 33/23/5 32/24/5 31/25/5
f 32/24/5 34/26/5 31/25/5
f 31/25/5 34/26/5 35/27/5
f 36/28/5 31/25/5 35/27/5
f 37/29/5 36/28/5 35/27/5
f 38/30/5 37/29/5 35/27/5
f 39/31/5 37/29/5 38/30/5
f 40/32/5 39/31/5 38/30/5
f 43/33/5 42/34/5 41/35/5
f 44/36/5 41/35/5 42/34/5
f 41/35/5 44/36/5 45/37/5
f 44/36/5 42/34/5 46/38/5
f 47/39/5 46/38/5 42/34/5
f 46/38/5 48/40/5 44/36/5
f 49/41/5 45/37/5 44/36/5
f 49/41/5 50/42/5 45/37/5
f 51/43/5 45/37/5 50/42/5
f 52/44/5 44/36/5 48/40/5
f 52/44/5 48/40/5 53/45/5
f 54/46/5 53/45/5 48/40/5
f 56/47/5 55/48/5 2/49/5
f 55/48/5 57/50/5 2/49/5
f 2/49/5 57/50/5 1/51/5
f 58/52/5 1/51/5 57/50/5
f 57/50/5 59/53/5 58/52/5
f 59/53/5 60/54/5 58/52/5
f 61/55/5 58/52/5 60/54/5
f 61/55/5 60/54/5 62/56/5
f 63/57/5 62/56/5 60/54/5
f 63/57/5 64/58/5 62/56/5
f 62/56/5 64/58/5 3/59/5
f 4/60/5 3/59/5 64/58/5
f 64/58/5 65/61/5 4/60/5
f 65/61/5 66/62/5 4/60/5
f 69/63/5 68/64/5 67/65/5
f 67/65/5 68/64/5 70/66/5
f 70/66/5 68/64/5 71/67/5
f 72/68/5 70/66/5 71/67/5
f 68/64/5 73/69/5 71/67/5
f 74/70/5 72/68/5 71/67/5
f 75/71/5 74/70/5 71/67/5
f 76/72/5 71/67/5 73/69/5
f 77/73/5 75/71/5 71/67/5
f 76/72/5 78/74/5 71/67/5
f 79/75/5 77/73/5 71/67/5
f 79/75/5 80/76/5 77/73/5
f 79/75/5 81/77/5 80/76/5
f 79/75/5 71/67/5 82/78/5
f 76/72/5 83/79/5 78/74/5
f 84/80/5 82/78/5 71/67/5
f 85/81/5 78/74/5 83/79/5
f 83/79/5 86/82/5 85/81/5
f 87/83/5 85/81/5 86/82/5
f 71/67/5 78/74/5 88/84/5
f 89/85/5 88/84/5 78/74/5
f 88/84/5 90/86/5 71/67/5
f 90/86/5 91/87/5 71/67/5
f 71/67/5 91/87/5 92/88/5
f 92/88/5 84/80/5 71/67/5
f 93/89/5 92/88/5 91/87/5
f 92/88/5 94/90/5 84/80/5
f 95/91/5 84/80/5 94/90/5
f 95/91/5 94/90/5 96/92/5
f 97/93/5 96/92/5 94/90/5
f 100/94/5 99/95/5 98/96/5
f 99/95/5 101/97/5 98/96/5
f 102/98/5 98/96/5 101/97/5
f 101/97/5 103/99/5 102/98/5
f 104/100/5 102/98/5 103/99/5
f 103/99/5 105/101/5 104/100/5
f 105/101/5 103/99/5 106/102/5
f 107/103/5 104/100/5 105/101/5
f 108/104/5 104/100/5 107/103/5
f 111/4/6 110/1/6 109/105/6
f 112/106/6 109/105/6 110/1/6
f 112/106/6 113/6/6 109/105/6
f 114/8/6 109/105/6 113/6/6
