# Blender 5.1.0
# www.blender.org
mtllib Dr_Deckhouse_Tribal_A1_001_10_Dr_Deckhouse_Tribal_A1_001_10.mtl
o Dr_Deckhouse_Tribal_A1_001_10_Dr_Deckhouse_Tribal_A1_001_10
v -2.491990 20.635317 2.899980
v -2.779147 20.348352 2.899980
v -1.734151 21.111492 2.899980
v -0.889374 21.407114 2.899980
v 0.000001 21.507326 2.899980
v 0.889376 21.407114 2.899981
v 1.734152 21.111492 2.899981
v 2.491992 20.635317 2.899980
v 2.779149 20.348352 2.899981
v -2.491925 14.385602 2.899981
v -2.778372 14.672642 2.899980
v -1.734145 13.909451 2.899981
v -0.889381 13.613830 2.899981
v 0.000001 13.513668 2.899981
v 0.889382 13.613830 2.899981
v 1.734146 13.909451 2.899981
v 2.491926 14.385602 2.899981
v 2.778374 14.672642 2.899980
v 0.000001 17.510546 2.899984
v -3.125489 15.018568 2.899984
v -3.600986 15.776302 2.899984
v 3.125491 15.018568 2.899984
v -3.896589 16.621099 2.899984
v 3.600987 15.776302 2.899984
v -3.996803 17.510471 2.899983
v 3.896591 16.621099 2.899984
v -3.896592 18.399794 2.899983
v 3.996805 17.510471 2.899984
v -3.600989 19.244692 2.899983
v 3.896594 18.399794 2.899984
v -3.125442 20.002426 2.899983
v 3.600990 19.244692 2.899984
v 3.125444 20.002426 2.899984
vn -0.0000 -0.0000 1.0000
vt 0.500005 1.958423
vt 0.500005 1.898071
vt 0.513481 1.956911
vt 0.526281 1.952447
vt 0.486530 1.956911
vt 0.537762 1.945257
vt 0.473730 1.952447
vt 0.542103 1.940923
vt 0.462248 1.945257
vt 0.547362 1.935699
vt 0.457908 1.940923
vt 0.554567 1.924258
vt 0.452648 1.935699
vt 0.559045 1.911501
vt 0.445444 1.924258
vt 0.560564 1.898072
vt 0.440965 1.911501
vt 0.559045 1.884643
vt 0.439446 1.898072
vt 0.554566 1.871885
vt 0.440965 1.884643
vt 0.547361 1.860443
vt 0.445444 1.871885
vt 0.542114 1.855220
vt 0.452649 1.860443
vt 0.537763 1.850887
vt 0.457896 1.855220
vt 0.526280 1.843697
vt 0.462247 1.850887
vt 0.513480 1.839233
vt 0.473729 1.843697
vt 0.500005 1.837719
vt 0.486529 1.839233
s 1
g Dr_Deckhouse_Tribal_A1_001_10_Dr_Deckhouse_Tribal_A1_001_10_wood_deck_1
usemtl wood_deck_1
f 14/1/1 19/2/1 13/3/1
f 13/3/1 19/2/1 12/4/1
f 19/2/1 14/1/1 15/5/1
f 12/4/1 19/2/1 10/6/1
f 19/2/1 15/5/1 16/7/1
f 10/6/1 19/2/1 11/8/1
f 19/2/1 16/7/1 17/9/1
f 11/8/1 19/2/1 20/10/1
f 19/2/1 17/9/1 18/11/1
f 20/10/1 19/2/1 21/12/1
f 19/2/1 18/11/1 22/13/1
f 21/12/1 19/2/1 23/14/1
f 19/2/1 22/13/1 24/15/1
f 23/14/1 19/2/1 25/16/1
f 19/2/1 24/15/1 26/17/1
f 19/2/1 27/18/1 25/16/1
f 19/2/1 26/17/1 28/19/1
f 29/20/1 27/18/1 19/2/1
f 30/21/1 19/2/1 28/19/1
f 31/22/1 29/20/1 19/2/1
f 30/21/1 32/23/1 19/2/1
f 2/24/1 31/22/1 19/2/1
f 32/23/1 33/25/1 19/2/1
f 1/26/1 2/24/1 19/2/1
f 33/25/1 9/27/1 19/2/1
f 3/28/1 1/26/1 19/2/1
f 9/27/1 8/29/1 19/2/1
f 4/30/1 3/28/1 19/2/1
f 8/29/1 7/31/1 19/2/1
f 5/32/1 4/30/1 19/2/1
f 7/31/1 6/33/1 19/2/1
f 6/33/1 5/32/1 19/2/1
